<svg width="1283"
  height="944"
  fill="none"
  xmlns="http://www.w3.org/2000/svg">
  <style>
    @keyframes rotate {
      0% {
        transform: rotate(0);
      }

      100% {
        transform: rotate(360deg);
      }
    }

    @keyframes dash {
      from {
        stroke-dashoffset: 80;
      }

      to {
        stroke-dashoffset: 0;
      }
    }

    #cloud-lines path {
      stroke-dasharray: 10;
      stroke-dashoffset: 10;
      animation: dash 2s infinite .5s linear;
    }

    #outer-app path {
      animation: rotate 1s infinite .5s;
      transform-box: fill-box;
      transform-origin: 50%;
    }

    #inner-app path {
      animation: rotate 1s infinite;
      transform-box: fill-box;
      transform-origin: 50%;
    }

  </style>
  <g id="earth">
    <path d="M663 944c260.678 0 472-211.322 472-472S923.678 0 663 0 191 211.322 191 472s211.322 472 472 472Z"
      fill="url(#paint0_radial_264_25)" />
    <path id="Vector_2"
      d="M543.57 442.18c3.159-33.092 56.861-67.207 93.722-83.753 36.86-15.507 70.554-21.717 66.343-48.598-4.21-26.88-14.742-47.567-71.603-47.567-56.861 0-32.643 74.448-78.979 29.982-47.385-44.458 10.534-33.092 33.702-43.428 23.167-10.343 47.385-51.7 6.317-54.802-41.068-3.102-32.643 17.577-64.236 6.203-31.594-11.374-47.385 40.326-67.395 33.091-13.692-5.171-49.494-31.021-73.712-57.902C339.285 215.732 300.326 266.4 274 324.304c7.375 77.55 49.493 117.876 49.493 117.876s21.059 50.668 152.69 112.705c0 0 25.275 1.031-4.209-26.882-29.485-28.953-61.076-65.144-25.275-83.753 35.802-18.608 47.386-17.577 55.812 17.577 9.468 34.122 38.953 13.445 41.061-19.648l-.002.001Zm173.749 150.967c-49.493-41.356-44.228-59.972-107.412-59.972-63.187 0-102.146 14.476-86.354 100.298 15.793 85.823 63.187 47.568 58.969 113.744-4.209 66.176 11.584 80.652 22.117 96.159 10.534 15.507 41.069 62.043 52.653-3.102 11.583-65.145 33.701-100.298 58.969-132.352 24.225-31.022 50.552-72.378 1.057-114.774l.001-.001Zm361.191-138.554c0-4.133-1.05-8.273-1.05-12.406-1.05-8.273-2.1-17.577-4.2-25.85-1.05-4.133-2.11-8.273-3.16-13.444-2.11-8.273-4.21-16.546-6.32-24.818-1.05-4.133-2.11-7.241-3.16-11.374-3.16-11.375-7.37-21.718-12.63-33.092-2.11-4.133-4.21-9.304-6.32-13.444l-9.48-18.608c-3.15-5.172-6.31-10.343-9.47-16.546-3.16-5.172-5.27-9.304-8.43-14.476-4.21-6.203-7.37-11.374-11.58-16.545-2.11-3.102-4.21-6.203-6.318-9.305-16.851-21.717-34.751-41.356-54.761-59.972-1.05-1.031-2.108-2.07-4.209-3.101-7.375-6.203-14.742-12.406-22.117-18.609l-1.073-1.031C880.531 137.154 843.678 116.474 803.66 102c-11.584 18.608-24.218 42.396-37.909 50.668-20.01 11.374-18.951 57.902 20.009 53.77 0 0-11.583 11.374 0 53.77 11.584 42.396 31.594 50.668 89.513 26.882 25.275-10.343 44.228-5.172 41.069 19.648-6.317 53.77-47.385 50.668-15.793 136.491 18.951 51.701 66.344 72.379 83.187 112.705 9.476 21.717 46.334 42.396 77.924 56.872 3.16-10.343 6.32-21.718 8.43-33.092 1.05-4.133 2.11-8.273 2.11-12.406 1.05-8.273 3.16-16.545 4.21-25.85 0-4.133 1.05-8.273 1.05-12.406 1.05-12.405 2.1-24.818 2.1-37.224 1.06-12.42 0-24.825-1.05-37.231v-.004ZM918.45 590.045c-16.851 10.343-15.793 32.053-2.109 44.459 13.692 12.406 42.119 27.92 50.545 0 8.425-27.913-31.586-54.802-48.436-44.459Z"
      fill="#B5E6FF" />
  </g>
  <g id="apps">
    <path id="app-circle"
      d="M668 643c111.562 0 202-90.438 202-202s-90.438-202-202-202-202 90.438-202 202 90.438 202 202 202Z"
      fill="#4EC3FF"
      fill-opacity=".64" />
    <path id="right-ellipse"
      d="M682.068 347.587c1.31-.039 2.626-.064 3.948-.077l.005.5c1.32-.014 2.64-.014 3.96 0l.005-.5c1.322.013 2.638.038 3.948.077l-.015.499c1.322.039 2.637.091 3.946.155l.024-.499c1.324.065 2.641.143 3.951.233l-.035.499c1.318.091 2.628.195 3.93.312l.045-.498c1.317.118 2.627.249 3.929.393l-.055.497c1.316.145 2.624.304 3.922.475l.065-.496c1.316.173 2.621.36 3.917.559l-.076.494c1.307.201 2.603.414 3.889.641l.087-.493c1.304.23 2.597.473 3.879.728l-.098.49c1.3.26 2.589.532 3.865.817l.109-.488c1.297.29 2.581.593 3.852.909l-.12.485c1.285.32 2.556.652 3.813.998l.133-.482c1.28.352 2.546.717 3.796 1.096l-.145.478c1.267.383 2.517.78 3.751 1.19l.158-.475c1.252.415 2.498.848 3.738 1.299l-.171.47c1.248.453 2.478.92 3.688 1.4l.184-.465c1.239.492 2.457.997 3.655 1.516l-.198.459c1.204.521 2.401 1.063 3.588 1.624l.214-.452c1.192.563 2.374 1.147 3.546 1.751l-.23.445c1.18.609 2.335 1.232 3.463 1.87l.246-.436a97.705 97.705 0 0 1 3.403 2.013l-.263.425c1.129.7 2.229 1.415 3.297 2.143l.281-.413a83.507 83.507 0 0 1 3.213 2.305l-.301.399a74.522 74.522 0 0 1 3.072 2.448l.322-.382a67.5 67.5 0 0 1 2.951 2.632l-.343.363c.949.898 1.87 1.826 2.759 2.784l.367-.34c.91.981 1.772 1.978 2.582 2.99l-.39.312a49.157 49.157 0 0 1 2.321 3.144l.414-.281a44.405 44.405 0 0 1 2.071 3.373l-.438.242c.63 1.14 1.204 2.31 1.718 3.507l.46-.197c.52 1.211.974 2.449 1.36 3.709l-.478.146c.381 1.248.689 2.509.921 3.782l.492-.09c.237 1.295.396 2.603.476 3.922l-.499.03c.078 1.298.078 2.6 0 3.898l.499.03a32.954 32.954 0 0 1-.476 3.922l-.492-.09a33.668 33.668 0 0 1-.921 3.782l.478.146a36.487 36.487 0 0 1-1.36 3.709l-.46-.197a39.49 39.49 0 0 1-1.718 3.507l.438.242a44.603 44.603 0 0 1-2.071 3.373l-.414-.281a49.44 49.44 0 0 1-2.321 3.144l.39.312a55.149 55.149 0 0 1-2.582 2.99l-.367-.34a60.363 60.363 0 0 1-2.759 2.784l.343.363a68.157 68.157 0 0 1-2.951 2.632l-.322-.382a75.376 75.376 0 0 1-3.072 2.448l.301.399a84.608 84.608 0 0 1-3.213 2.305l-.282-.413a91.518 91.518 0 0 1-3.296 2.143l.263.425a99.307 99.307 0 0 1-3.403 2.013l-.246-.436a104.866 104.866 0 0 1-3.463 1.87l.23.445a114.293 114.293 0 0 1-3.546 1.751l-.214-.452a120.383 120.383 0 0 1-3.588 1.624l.198.459a133.83 133.83 0 0 1-3.655 1.516l-.184-.465c-1.21.48-2.44.947-3.688 1.4l.171.47c-1.24.451-2.486.884-3.738 1.299l-.158-.475c-1.234.41-2.484.807-3.751 1.19l.145.478c-1.25.379-2.516.744-3.796 1.096l-.133-.482a161.75 161.75 0 0 1-3.813.998l.12.485c-1.271.316-2.555.619-3.852.909l-.109-.488c-1.286.287-2.574.559-3.865.817l.098.49c-1.282.255-2.575.498-3.879.728l-.087-.493c-1.286.227-2.582.44-3.889.641l.076.494c-1.296.199-2.601.386-3.917.559l-.065-.496c-1.298.171-2.606.33-3.922.475l.055.497c-1.302.144-2.612.275-3.929.393l-.045-.498c-1.309.118-2.619.222-3.93.312l.035.499c-1.31.09-2.627.168-3.951.233l-.024-.499c-1.309.064-2.624.116-3.946.155l.015.499c-1.31.039-2.626.064-3.948.077l-.005-.5c-1.32.014-2.64.014-3.96 0l-.005.5a207.946 207.946 0 0 1-3.948-.077l.015-.499a207.771 207.771 0 0 1-3.946-.155l-.024.499a208.248 208.248 0 0 1-3.951-.233l.035-.499c-1.312-.09-2.622-.194-3.93-.312l-.045.498a184.567 184.567 0 0 1-3.929-.393l.055-.497a191.524 191.524 0 0 1-3.922-.475l-.065.496c-1.316-.173-2.621-.36-3.917-.559l.076-.494a175.98 175.98 0 0 1-3.889-.641l-.087.493c-1.304-.23-2.597-.473-3.879-.728l.098-.49c-1.292-.258-2.58-.53-3.865-.817l-.109.488c-1.297-.29-2.581-.593-3.852-.909l.12-.485c-1.275-.317-2.547-.65-3.813-.998l-.133.482c-1.27-.349-2.536-.714-3.796-1.096l.145-.478c-1.267-.383-2.517-.78-3.751-1.19l-.158.475a137.578 137.578 0 0 1-3.738-1.299l.171-.47a134.3 134.3 0 0 1-3.688-1.4l-.184.465a130.734 130.734 0 0 1-3.655-1.516l.198-.459a117.883 117.883 0 0 1-3.588-1.624l-.214.452a114.293 114.293 0 0 1-3.546-1.751l.23-.445a103.025 103.025 0 0 1-3.463-1.87l-.246.436a97.705 97.705 0 0 1-3.403-2.013l.263-.425a89.362 89.362 0 0 1-3.297-2.143l-.281.413a82.735 82.735 0 0 1-3.213-2.305l.301-.399a74.522 74.522 0 0 1-3.072-2.448l-.322.382a66.356 66.356 0 0 1-2.951-2.632l.343-.363a59.888 59.888 0 0 1-2.76-2.784l-.366.34a53.969 53.969 0 0 1-2.582-2.99l.39-.312a48.406 48.406 0 0 1-2.321-3.144l-.414.281a43.771 43.771 0 0 1-2.071-3.373l.438-.242a39.085 39.085 0 0 1-1.718-3.507l-.46.197a36.014 36.014 0 0 1-1.36-3.709l.478-.146a33.452 33.452 0 0 1-.921-3.782l-.492.09a32.521 32.521 0 0 1-.476-3.922l.499-.03a32.085 32.085 0 0 1 0-3.898l-.499-.03c.08-1.319.239-2.627.476-3.922l.492.09c.232-1.273.54-2.534.921-3.782l-.478-.146c.382-1.25.836-2.487 1.36-3.709l.46.197a38.953 38.953 0 0 1 1.718-3.507l-.438-.242a43.58 43.58 0 0 1 2.071-3.373l.414.281a48.134 48.134 0 0 1 2.321-3.144l-.39-.312a53.969 53.969 0 0 1 2.582-2.99l.367.34a59.378 59.378 0 0 1 2.759-2.784l-.343-.363a65.732 65.732 0 0 1 2.951-2.632l.322.382a73.688 73.688 0 0 1 3.072-2.448l-.301-.399a81.682 81.682 0 0 1 3.213-2.305l.281.413a88.082 88.082 0 0 1 3.297-2.143l-.263-.425a97.705 97.705 0 0 1 3.403-2.013l.246.436a101.248 101.248 0 0 1 3.463-1.87l-.23-.445a112.09 112.09 0 0 1 3.546-1.751l.214.452a115.485 115.485 0 0 1 3.588-1.624l-.198-.459c1.21-.524 2.429-1.029 3.655-1.516l.184.465c1.21-.48 2.44-.947 3.688-1.4l-.171-.47c1.239-.451 2.485-.884 3.738-1.299l.158.475c1.234-.41 2.484-.807 3.751-1.19l-.145-.478c1.26-.382 2.526-.747 3.796-1.096l.133.482c1.266-.348 2.538-.681 3.813-.998l-.12-.485c1.271-.316 2.555-.619 3.852-.909l.109.488c1.285-.287 2.573-.559 3.865-.817l-.098-.49c1.282-.255 2.575-.498 3.879-.728l.087.493c1.286-.227 2.582-.44 3.889-.641l-.076-.494c1.296-.199 2.601-.386 3.917-.559l.065.496c1.298-.171 2.606-.33 3.922-.475l-.055-.497c1.302-.144 2.612-.275 3.929-.393l.045.498c1.308-.118 2.618-.222 3.93-.312l-.035-.499c1.31-.09 2.627-.168 3.951-.233l.024.499c1.309-.064 2.624-.116 3.946-.155l-.015-.499Z"
      stroke="#000"
      stroke-dasharray="4 4" />
    <path id="left-ellipse"
      d="M636.913 398.567c.039 1.31.064 2.626.077 3.948l-.5.005c.014 1.32.014 2.64 0 3.96l.5.005a207.946 207.946 0 0 1-.077 3.948l-.499-.015a207.771 207.771 0 0 1-.155 3.946l.499.024a208.248 208.248 0 0 1-.233 3.951l-.499-.035a198.678 198.678 0 0 1-.312 3.93l.498.045a198.601 198.601 0 0 1-.393 3.929l-.497-.055a191.524 191.524 0 0 1-.475 3.922l.496.065c-.173 1.316-.36 2.621-.559 3.917l-.494-.076c-.2 1.299-.413 2.595-.641 3.889l.493.087c-.23 1.304-.473 2.597-.728 3.879l-.49-.098c-.258 1.291-.531 2.58-.817 3.865l.488.109c-.29 1.297-.593 2.581-.909 3.852l-.485-.12a161.75 161.75 0 0 1-.998 3.813l.482.133c-.349 1.27-.714 2.536-1.096 3.796l-.478-.145c-.383 1.267-.78 2.517-1.19 3.751l.475.158a144.786 144.786 0 0 1-1.299 3.738l-.47-.171a138.94 138.94 0 0 1-1.4 3.688l.465.184a129.492 129.492 0 0 1-1.516 3.655l-.459-.198a120.383 120.383 0 0 1-1.624 3.588l.452.214a118.97 118.97 0 0 1-1.751 3.546l-.445-.23a103.025 103.025 0 0 1-1.87 3.463l.436.246a101.968 101.968 0 0 1-2.013 3.403l-.425-.263a91.557 91.557 0 0 1-2.143 3.297l.413.281a82.735 82.735 0 0 1-2.305 3.213l-.399-.301a75.376 75.376 0 0 1-2.448 3.072l.382.322a66.356 66.356 0 0 1-2.632 2.951l-.363-.343c-.898.95-1.826 1.87-2.784 2.759l.34.367a54.337 54.337 0 0 1-2.99 2.582l-.312-.39a49.44 49.44 0 0 1-3.144 2.321l.281.414a44.603 44.603 0 0 1-3.373 2.071l-.242-.438a39.085 39.085 0 0 1-3.507 1.718l.197.46c-1.211.52-2.449.974-3.709 1.36l-.146-.478c-1.242.38-2.505.688-3.782.921l.09.492a32.954 32.954 0 0 1-3.922.476l-.03-.499c-1.298.078-2.6.078-3.898 0l-.03.499a32.904 32.904 0 0 1-3.922-.476l.09-.492a33.348 33.348 0 0 1-3.782-.921l-.146.478a36.487 36.487 0 0 1-3.709-1.36l.197-.46a38.953 38.953 0 0 1-3.507-1.718l-.242.438a44.405 44.405 0 0 1-3.373-2.071l.281-.414a48.134 48.134 0 0 1-3.144-2.321l-.312.39a53.969 53.969 0 0 1-2.99-2.582l.34-.367a59.378 59.378 0 0 1-2.784-2.759l-.363.343a65.12 65.12 0 0 1-2.632-2.951l.382-.322a74.522 74.522 0 0 1-2.448-3.072l-.399.301a81.682 81.682 0 0 1-2.305-3.213l.413-.282a90.176 90.176 0 0 1-2.143-3.296l-.425.263a97.705 97.705 0 0 1-2.013-3.403l.436-.246a101.248 101.248 0 0 1-1.87-3.463l-.445.23a114.293 114.293 0 0 1-1.751-3.546l.452-.214a115.485 115.485 0 0 1-1.624-3.588l-.459.198c-.524-1.21-1.03-2.429-1.516-3.655l.465-.184c-.48-1.21-.947-2.44-1.4-3.688l-.47.171c-.451-1.24-.884-2.486-1.299-3.738l.475-.158c-.41-1.234-.807-2.484-1.19-3.751l-.478.145c-.382-1.26-.747-2.526-1.096-3.796l.482-.133a161.75 161.75 0 0 1-.998-3.813l-.485.12c-.318-1.28-.621-2.564-.909-3.852l.488-.109a175.663 175.663 0 0 1-.817-3.865l-.49.098c-.257-1.29-.5-2.583-.728-3.879l.493-.087c-.227-1.286-.44-2.582-.641-3.889l-.494.076a177.41 177.41 0 0 1-.559-3.917l.496-.065c-.171-1.298-.33-2.606-.475-3.922l-.497.055a184.567 184.567 0 0 1-.393-3.929l.498-.045a184.568 184.568 0 0 1-.312-3.93l-.499.035a192.89 192.89 0 0 1-.233-3.951l.499-.024c-.065-1.315-.116-2.63-.155-3.946l-.499.015c-.039-1.31-.064-2.626-.077-3.948l.5-.005c-.014-1.32-.014-2.64 0-3.96l-.5-.005c.013-1.322.038-2.638.077-3.948l.499.015c.039-1.322.091-2.637.155-3.946l-.499-.024c.065-1.324.143-2.641.233-3.951l.499.035c.091-1.318.195-2.628.312-3.93l-.498-.045c.118-1.317.249-2.627.393-3.929l.497.055c.145-1.316.304-2.624.475-3.922l-.496-.065c.173-1.316.36-2.621.559-3.917l.494.076c.201-1.307.414-2.603.641-3.889l-.493-.087c.23-1.304.473-2.597.728-3.879l.49.098c.26-1.3.532-2.589.817-3.865l-.488-.109c.29-1.297.593-2.581.909-3.852l.485.12c.32-1.285.652-2.556.998-3.813l-.482-.133c.352-1.28.717-2.546 1.096-3.796l.478.145c.383-1.267.78-2.517 1.19-3.751l-.475-.158c.415-1.252.848-2.498 1.299-3.738l.47.171c.453-1.248.92-2.478 1.4-3.688l-.465-.184c.492-1.239.997-2.457 1.516-3.655l.459.198a115.485 115.485 0 0 1 1.624-3.588l-.452-.214a114.293 114.293 0 0 1 1.751-3.546l.445.23c.609-1.18 1.232-2.335 1.87-3.463l-.436-.246a97.705 97.705 0 0 1 2.013-3.403l.425.263a90.214 90.214 0 0 1 2.143-3.297l-.413-.281a81.682 81.682 0 0 1 2.305-3.213l.399.301a74.522 74.522 0 0 1 2.448-3.072l-.382-.322a65.732 65.732 0 0 1 2.632-2.951l.363.343c.898-.95 1.826-1.87 2.784-2.76l-.34-.366a53.969 53.969 0 0 1 2.99-2.582l.312.39a48.134 48.134 0 0 1 3.144-2.321l-.281-.414a44.405 44.405 0 0 1 3.373-2.071l.242.438a38.953 38.953 0 0 1 3.507-1.718l-.197-.46a36.487 36.487 0 0 1 3.709-1.36l.146.478a33.615 33.615 0 0 1 3.782-.921l-.09-.492a32.904 32.904 0 0 1 3.922-.476l.03.499c1.298-.078 2.6-.078 3.898 0l.03-.499c1.319.08 2.627.239 3.922.476l-.09.492c1.273.232 2.534.54 3.782.921l.146-.478c1.25.382 2.487.836 3.709 1.36l-.197.46a39.085 39.085 0 0 1 3.507 1.718l.242-.438c1.154.64 2.28 1.331 3.373 2.071l-.281.414a49.44 49.44 0 0 1 3.144 2.321l.312-.39a54.337 54.337 0 0 1 2.99 2.582l-.34.367a59.866 59.866 0 0 1 2.784 2.759l.363-.343c.893.942 1.77 1.926 2.632 2.951l-.382.322c.83.986 1.646 2.011 2.448 3.072l.399-.301a83.507 83.507 0 0 1 2.305 3.213l-.413.281a92.452 92.452 0 0 1 2.143 3.297l.425-.263a101.968 101.968 0 0 1 2.013 3.403l-.436.246a103.025 103.025 0 0 1 1.87 3.463l.445-.23a118.97 118.97 0 0 1 1.751 3.546l-.452.214a120.383 120.383 0 0 1 1.624 3.588l.459-.198a130.734 130.734 0 0 1 1.516 3.655l-.465.184c.48 1.21.947 2.44 1.4 3.688l.47-.171c.45 1.24.884 2.486 1.299 3.738l-.475.158c.41 1.234.807 2.484 1.19 3.751l.478-.145c.379 1.25.744 2.516 1.096 3.796l-.482.133c.346 1.257.678 2.528.998 3.813l.485-.12c.316 1.271.619 2.555.909 3.852l-.488.109c.286 1.285.559 2.574.817 3.865l.49-.098c.255 1.282.498 2.575.728 3.879l-.493.087c.227 1.286.44 2.582.641 3.889l.494-.076c.199 1.296.386 2.601.559 3.917l-.496.065c.171 1.298.33 2.606.475 3.922l.497-.055c.144 1.302.275 2.612.393 3.929l-.498.045c.117 1.302.221 2.612.312 3.93l.499-.035c.09 1.31.168 2.627.233 3.951l-.499.024c.064 1.309.116 2.624.155 3.946l.499-.015Z"
      stroke="#000"
      stroke-dasharray="4 4" />
    <g id="inner-app">
      <path id="Vector_3"
        d="M576.778 343c1.915 0 3.752.761 5.107 2.115a7.226 7.226 0 0 1 2.115 5.107v25.556a7.226 7.226 0 0 1-2.115 5.107 7.226 7.226 0 0 1-5.107 2.115h-25.556a7.226 7.226 0 0 1-5.107-2.115 7.226 7.226 0 0 1-2.115-5.107v-25.556c0-1.915.761-3.752 2.115-5.107a7.226 7.226 0 0 1 5.107-2.115h25.556Zm0 3.333h-25.556a3.893 3.893 0 0 0-3.889 3.889v25.556a3.892 3.892 0 0 0 3.889 3.889h25.556a3.893 3.893 0 0 0 3.889-3.889v-25.556a3.893 3.893 0 0 0-3.889-3.889Zm-18.625 23.898-1.133 1.938a1.667 1.667 0 0 1-2.978-1.478l.1-.202.149-.258h3.862Zm8.72-11.622 3.82 6.622h3.867c.403 0 .793.147 1.097.412.303.266.5.633.554 1.033l.016.222a1.672 1.672 0 0 1-1.44 1.653l-.227.016h-1.944l1.115 1.933a1.66 1.66 0 0 1-.065 1.786 1.671 1.671 0 0 1-1.644.701 1.663 1.663 0 0 1-1.053-.634l-.125-.189-5.906-10.24 1.933-3.315h.002Zm-.066-6.496a1.67 1.67 0 0 1 .7 2.078l-.103.202-6.333 10.838h3.849l1.922 3.333h-13.393a1.658 1.658 0 0 1-1.488-.955 1.67 1.67 0 0 1 1.261-2.36l.227-.016h3.764l4.845-8.297-1.471-2.549a1.666 1.666 0 0 1-.191-1.154c.077-.396.295-.75.613-.997l.189-.127a1.663 1.663 0 0 1 2.151.422l.124.189.518.902.536-.911a1.676 1.676 0 0 1 1.016-.771 1.677 1.677 0 0 1 1.264.173Z"
        fill="#0073FB" />
      <path id="Vector_4"
        d="m614.993 403.445.711-1.226a1.6 1.6 0 0 1 1.59-.788c.208.027.409.096.59.201a1.6 1.6 0 0 1 .586 2.18l-6.836 11.837h4.945c1.601 0 2.5 1.882 1.805 3.187h-14.493a1.576 1.576 0 0 1-1.128-.465 1.588 1.588 0 0 1-.466-1.128c0-.883.712-1.594 1.594-1.594h4.063l5.202-9.017-1.625-2.82a1.595 1.595 0 0 1 1.799-2.292c.401.099.748.35.968.699l.695 1.226Zm-6.149 17.031-1.532 2.656a1.6 1.6 0 0 1-1.59.789 1.604 1.604 0 0 1-1.376-1.792c.027-.208.095-.408.2-.59l1.142-1.969c1.281-.399 2.328-.094 3.156.906Zm13.195-4.82h4.149c.882 0 1.593.712 1.593 1.594 0 .882-.711 1.594-1.593 1.594h-2.305l1.555 2.695a1.61 1.61 0 0 1-.16 1.726 1.606 1.606 0 0 1-1.639.567c-.401-.1-.748-.35-.968-.7-2.617-4.538-4.586-7.937-5.89-10.202-1.336-2.305-.382-4.618.563-5.399 1.046 1.798 2.609 4.508 4.695 8.125ZM615 394.625c-10.704 0-19.375 8.672-19.375 19.375 0 10.702 8.672 19.375 19.375 19.375 10.704 0 19.375-8.673 19.375-19.375 0-10.703-8.673-19.375-19.375-19.375ZM631.875 414c0 9.274-7.507 16.875-16.875 16.875-9.274 0-16.875-7.507-16.875-16.875 0-9.274 7.507-16.875 16.875-16.875 9.274 0 16.875 7.507 16.875 16.875Z"
        fill="#000" />
      <path id="Vector_5"
        d="M585.001 495.667c-9.205 0-16.667-7.462-16.667-16.667 0-9.205 7.462-16.667 16.667-16.667 9.205 0 16.666 7.462 16.666 16.667-.01 9.2-7.466 16.657-16.666 16.667Zm-7.122-12.022a2.743 2.743 0 0 0-.638.077l-.25.068-.99 1.695a1.37 1.37 0 0 0 1.408 2.043c.344-.056.654-.24.867-.516l.103-.155 1.317-2.285a2.312 2.312 0 0 0-.809-.677 2.314 2.314 0 0 0-1.025-.25h.017Zm9.14-10.212a3.238 3.238 0 0 0-.978 1.834 3.998 3.998 0 0 0 .5 2.815l5.066 8.776c.177.296.458.515.788.615a1.367 1.367 0 0 0 1.664-1.818l-.082-.167-1.333-2.318h1.983a1.377 1.377 0 0 0 1.217-.796 1.376 1.376 0 0 0-.18-1.444 1.37 1.37 0 0 0-.87-.492l-.167-.01h-3.566l-3.657-6.333-.382-.667-.003.005Zm-11.585 6.984a1.36 1.36 0 0 0-1.358 1.368c0 .69.513 1.273 1.198 1.362l.167.008h12.466a1.931 1.931 0 0 0-.028-1.778 1.726 1.726 0 0 0-1.322-.952l-.201-.01h-4.252l5.88-10.182a1.377 1.377 0 0 0-.333-1.76 1.362 1.362 0 0 0-.586-.27 1.369 1.369 0 0 0-1.356.505l-.103.154-.605 1.056-.599-1.056a1.379 1.379 0 0 0-1.786-.537 1.372 1.372 0 0 0-.667 1.742l.082.166 1.383 2.434-4.475 7.75h-3.505Z"
        fill="#FDCA17" />
      <path id="Vector_6"
        d="m695.993 416.445.711-1.226a1.6 1.6 0 0 1 1.59-.788c.208.027.409.096.59.201a1.6 1.6 0 0 1 .586 2.18l-6.836 11.837h4.945c1.601 0 2.5 1.882 1.805 3.187h-14.493a1.576 1.576 0 0 1-1.128-.465 1.588 1.588 0 0 1-.466-1.128c0-.883.712-1.594 1.594-1.594h4.063l5.202-9.017-1.625-2.82a1.595 1.595 0 0 1 1.799-2.292c.401.099.748.35.968.699l.695 1.226Zm-6.149 17.031-1.532 2.656a1.6 1.6 0 0 1-1.59.789 1.604 1.604 0 0 1-1.376-1.792c.027-.208.095-.408.2-.59l1.142-1.969c1.281-.399 2.328-.094 3.156.906Zm13.195-4.82h4.149c.882 0 1.593.712 1.593 1.594 0 .882-.711 1.594-1.593 1.594h-2.305l1.555 2.695a1.61 1.61 0 0 1-.16 1.726 1.606 1.606 0 0 1-1.639.567c-.401-.1-.748-.35-.968-.7-2.617-4.538-4.586-7.937-5.89-10.202-1.336-2.305-.382-4.618.563-5.399 1.046 1.798 2.609 4.508 4.695 8.125ZM696 407.625c-10.704 0-19.375 8.672-19.375 19.375 0 10.702 8.672 19.375 19.375 19.375 10.704 0 19.375-8.673 19.375-19.375 0-10.703-8.673-19.375-19.375-19.375ZM712.875 427c0 9.274-7.507 16.875-16.875 16.875-9.274 0-16.875-7.507-16.875-16.875 0-9.274 7.507-16.875 16.875-16.875 9.274 0 16.875 7.507 16.875 16.875Z"
        fill="#FFC700" />
      <path id="Vector_7"
        d="m740.993 374.445.711-1.226a1.6 1.6 0 0 1 1.59-.788c.208.027.409.096.59.201a1.6 1.6 0 0 1 .586 2.18l-6.836 11.837h4.945c1.601 0 2.5 1.882 1.805 3.187h-14.493a1.576 1.576 0 0 1-1.128-.465 1.588 1.588 0 0 1-.466-1.128c0-.883.712-1.594 1.594-1.594h4.063l5.202-9.017-1.625-2.82a1.595 1.595 0 0 1 1.799-2.292c.401.099.748.35.968.699l.695 1.226Zm-6.149 17.031-1.532 2.656a1.6 1.6 0 0 1-1.59.789 1.604 1.604 0 0 1-1.376-1.792c.027-.208.095-.408.2-.59l1.142-1.969c1.281-.399 2.328-.094 3.156.906Zm13.195-4.82h4.149c.882 0 1.593.712 1.593 1.594 0 .882-.711 1.594-1.593 1.594h-2.305l1.555 2.695a1.61 1.61 0 0 1-.16 1.726 1.606 1.606 0 0 1-1.639.567c-.401-.1-.748-.35-.968-.7-2.617-4.538-4.586-7.937-5.89-10.202-1.336-2.305-.382-4.618.563-5.399 1.046 1.798 2.609 4.508 4.695 8.125ZM741 365.625c-10.704 0-19.375 8.672-19.375 19.375 0 10.702 8.672 19.375 19.375 19.375 10.704 0 19.375-8.673 19.375-19.375 0-10.703-8.673-19.375-19.375-19.375ZM757.875 385c0 9.274-7.507 16.875-16.875 16.875-9.274 0-16.875-7.507-16.875-16.875 0-9.274 7.507-16.875 16.875-16.875 9.274 0 16.875 7.507 16.875 16.875Z"
        fill="#000" />
    </g>
    <g id="outer-app">
      <path id="Vector_8"
        d="m705.993 521.445.711-1.226a1.592 1.592 0 0 1 2.247-.547 1.603 1.603 0 0 1 .719 1.551 1.62 1.62 0 0 1-.2.589l-6.836 11.837h4.945c1.601 0 2.5 1.882 1.805 3.187h-14.493a1.576 1.576 0 0 1-1.128-.465 1.588 1.588 0 0 1-.466-1.128c0-.883.712-1.594 1.594-1.594h4.063l5.202-9.017-1.625-2.82a1.595 1.595 0 0 1 1.799-2.292c.401.099.748.35.968.699l.695 1.226Zm-6.149 17.031-1.532 2.656a1.59 1.59 0 0 1-1.59.791 1.595 1.595 0 0 1-1.334-1.173 1.596 1.596 0 0 1 .158-1.211l1.142-1.969c1.281-.399 2.328-.094 3.156.906Zm13.195-4.82h4.149c.882 0 1.593.712 1.593 1.594 0 .882-.711 1.594-1.593 1.594h-2.305l1.555 2.695a1.612 1.612 0 0 1-.16 1.726 1.606 1.606 0 0 1-1.639.567c-.401-.1-.748-.35-.968-.7-2.617-4.538-4.586-7.937-5.89-10.202-1.336-2.305-.382-4.618.563-5.399 1.046 1.798 2.609 4.508 4.695 8.125ZM706 512.625c-10.704 0-19.375 8.672-19.375 19.375 0 10.702 8.672 19.375 19.375 19.375 10.704 0 19.375-8.673 19.375-19.375 0-10.703-8.673-19.375-19.375-19.375ZM722.875 532c0 9.274-7.507 16.875-16.875 16.875-9.274 0-16.875-7.507-16.875-16.875 0-9.274 7.507-16.875 16.875-16.875 9.274 0 16.875 7.507 16.875 16.875Z"
        fill="#0073FB" />
      <path id="Vector_9"
        d="M852.75 405.5h-27.5c-2.07 0-3.75 1.68-3.75 3.75v27.5c0 2.07 1.68 3.75 3.75 3.75h27.5c2.07 0 3.75-1.68 3.75-3.75v-27.5c0-2.07-1.68-3.75-3.75-3.75Zm-21.328 27.539a1.551 1.551 0 0 1-1.556.766 1.564 1.564 0 0 1-1.146-2.329l1.117-1.93c1.258-.382 2.289-.086 3.094.89l-1.509 2.603Zm10.852-4.21h-14.212c-.86 0-1.562-.704-1.562-1.563s.704-1.562 1.562-1.562h3.985l5.109-8.844-1.601-2.765a1.565 1.565 0 0 1 1.147-2.328 1.573 1.573 0 0 1 1.555.765l.695 1.203.695-1.203a1.562 1.562 0 1 1 2.703 1.563l-6.702 11.61h4.851c1.577 0 2.461 1.851 1.773 3.125l.002-.001Zm7.664 0h-2.267l1.532 2.648c.43.75.171 1.704-.571 2.133-.75.43-1.703.171-2.132-.57-2.57-4.445-4.493-7.789-5.781-10.008-1.305-2.266-.375-4.531.555-5.296 1.024 1.774 2.555 4.43 4.601 7.969h4.063a1.566 1.566 0 0 1 1.531 1.867 1.564 1.564 0 0 1-1.531 1.258v-.001Z"
        fill="#fff" />
      <path id="Vector_10"
        d="M747.778 282c1.915 0 3.752.761 5.107 2.115a7.226 7.226 0 0 1 2.115 5.107v25.556a7.226 7.226 0 0 1-2.115 5.107 7.226 7.226 0 0 1-5.107 2.115h-25.556a7.226 7.226 0 0 1-5.107-2.115 7.226 7.226 0 0 1-2.115-5.107v-25.556c0-1.915.761-3.752 2.115-5.107a7.226 7.226 0 0 1 5.107-2.115h25.556Zm0 3.333h-25.556a3.893 3.893 0 0 0-3.889 3.889v25.556a3.892 3.892 0 0 0 3.889 3.889h25.556a3.893 3.893 0 0 0 3.889-3.889v-25.556a3.893 3.893 0 0 0-3.889-3.889Zm-18.625 23.898-1.133 1.938a1.667 1.667 0 0 1-2.978-1.478l.1-.202.149-.258h3.862Zm8.72-11.622 3.82 6.622h3.867c.403 0 .793.147 1.097.412.303.266.5.633.554 1.033l.016.222a1.672 1.672 0 0 1-1.44 1.653l-.227.016h-1.944l1.115 1.933a1.66 1.66 0 0 1-.065 1.786 1.671 1.671 0 0 1-1.644.701 1.663 1.663 0 0 1-1.053-.634l-.125-.189-5.906-10.24 1.933-3.315h.002Zm-.066-6.496a1.67 1.67 0 0 1 .7 2.078l-.103.202-6.333 10.838h3.849l1.922 3.333h-13.393a1.658 1.658 0 0 1-1.488-.955 1.67 1.67 0 0 1 1.261-2.36l.227-.016h3.764l4.845-8.297-1.471-2.549a1.666 1.666 0 0 1-.191-1.154c.077-.396.295-.75.613-.997l.189-.127a1.663 1.663 0 0 1 2.151.422l.124.189.518.902.536-.911a1.676 1.676 0 0 1 1.016-.771 1.677 1.677 0 0 1 1.264.173Z"
        fill="#FFC700" />
      <path id="Vector_11"
        d="M808.778 515c1.915 0 3.752.761 5.107 2.115a7.226 7.226 0 0 1 2.115 5.107v25.556a7.226 7.226 0 0 1-2.115 5.107 7.226 7.226 0 0 1-5.107 2.115h-25.556a7.226 7.226 0 0 1-5.107-2.115 7.226 7.226 0 0 1-2.115-5.107v-25.556c0-1.915.761-3.752 2.115-5.107a7.226 7.226 0 0 1 5.107-2.115h25.556Zm0 3.333h-25.556a3.893 3.893 0 0 0-3.889 3.889v25.556a3.892 3.892 0 0 0 3.889 3.889h25.556a3.893 3.893 0 0 0 3.889-3.889v-25.556a3.893 3.893 0 0 0-3.889-3.889Zm-18.625 23.898-1.133 1.938a1.667 1.667 0 0 1-2.978-1.478l.1-.202.149-.258h3.862Zm8.72-11.622 3.82 6.622h3.867c.403 0 .793.147 1.097.412.303.266.5.633.554 1.033l.016.222a1.672 1.672 0 0 1-1.44 1.653l-.227.016h-1.944l1.115 1.933a1.661 1.661 0 0 1-.065 1.786 1.671 1.671 0 0 1-1.644.701 1.663 1.663 0 0 1-1.053-.634l-.125-.189-5.906-10.24 1.933-3.315h.002Zm-.066-6.496a1.672 1.672 0 0 1 .7 2.078l-.103.202-6.333 10.838h3.849l1.922 3.333h-13.393a1.658 1.658 0 0 1-1.488-.955 1.67 1.67 0 0 1 1.261-2.36l.227-.016h3.764l4.845-8.297-1.471-2.549a1.666 1.666 0 0 1-.191-1.154c.077-.396.295-.75.613-.997l.189-.127a1.663 1.663 0 0 1 2.151.422l.124.189.518.902.536-.911a1.676 1.676 0 0 1 1.016-.771 1.677 1.677 0 0 1 1.264.173Z"
        fill="#fff" />
    </g>
  </g>
  <g id="regions">
    <g id="Frame 17">
      <g id="Frame 14">
        <g id="entypo:location">
          <path id="Vector_11_2"
            d="M846.241 252.722 844.6 247.8h-1.8l1 4.8h-17.599l.999-4.8h-1.8l-1.641 4.922c-.417 1.253.321 2.278 1.641 2.278h19.2c1.32 0 2.058-1.025 1.641-2.278ZM841 237a6 6 0 0 0-12 0c0 5.73 6 12 6 12s6-6.27 6-12Zm-9.24.072a3.24 3.24 0 1 1 6.477-.162 3.24 3.24 0 0 1-6.477.162Z"
            fill="#8804F0" />
        </g><text id="ASIA-SOUTH"
          fill="#000"
          xml:space="preserve"
          style="white-space:pre"
          font-family="Arial"
          font-size="24"
          font-weight="500"
          letter-spacing="0em">
          <tspan x="852.016"
            y="253.203">ASIA-SOUTH</tspan>
        </text>
      </g>
      <g id="Frame 13">
        <g id="Frame 12">
          <path id="Vector_12"
            d="M990 273H822c-5.523 0-10 4.477-10 10v52c0 5.523 4.477 10 10 10h168c5.523 0 10-4.477 10-10v-52c0-5.523-4.477-10-10-10Z"
            fill="#1055B1" /><text id="Global Catalog Appliance"
            fill="#fff"
            xml:space="preserve"
            style="white-space:pre"
            font-family="Arial"
            font-size="24"
            letter-spacing="0em">
            <tspan x="826.602"
              y="304.203">Global Catalog </tspan>
            <tspan x="852.055"
              y="332.203">Appliance</tspan>
          </text>
        </g>
        <g id="clarity:storage-solid">
          <path id="Vector_12_2"
            d="M905.85 388.467c13.467 0 24.433-2.9 25.15-6.567v-9.583c-.717 3.666-11.667 6.566-25.15 6.566a65.644 65.644 0 0 1-19.433-2.55V373a65.66 65.66 0 0 0 19.433 2.517c13.483.033 24.35-2.867 25.15-6.5-.333-5.684-15.8-7.217-25-7.217s-25 1.55-25 7.383v37.634c0 5.816 15.717 7.383 25 7.383s25-1.55 25-7.383v-8.667c-.717 3.65-11.667 6.517-25.15 6.517a65.672 65.672 0 0 1-19.433-2.467v-3.333a65.672 65.672 0 0 0 19.433 2.466c13.483 0 24.433-2.866 25.15-6.516v-9.584c-.717 3.667-11.667 6.567-25.15 6.567a65.628 65.628 0 0 1-19.433-2.517v-3.333a65.66 65.66 0 0 0 19.433 2.517Z"
            fill="#1055B1" />
        </g>
      </g>
    </g>
    <g id="Frame 18">
      <g id="Frame 14_2">
        <g id="entypo:location_2">
          <path id="Vector_13"
            d="M582.741 679.722 581.1 674.8h-1.8l1 4.8h-17.599l.999-4.8h-1.8l-1.641 4.922c-.417 1.253.321 2.278 1.641 2.278h19.2c1.32 0 2.058-1.025 1.641-2.278ZM577.5 664a6 6 0 0 0-12 0c0 5.73 6 12 6 12s6-6.27 6-12Zm-9.24.072a3.24 3.24 0 1 1 6.477-.162 3.24 3.24 0 0 1-6.477.162Z"
            fill="#8804F0" />
        </g><text id="US-WEST"
          fill="#000"
          xml:space="preserve"
          style="white-space:pre"
          font-family="Arial"
          font-size="24"
          font-weight="500"
          letter-spacing="0em">
          <tspan x="593.371"
            y="680.203">US-WEST</tspan>
        </text>
      </g>
      <g id="Frame 13_2">
        <g id="Frame 12_2">
          <path id="Vector_14"
            d="M715 700H547c-5.523 0-10 4.477-10 10v52c0 5.523 4.477 10 10 10h168c5.523 0 10-4.477 10-10v-52c0-5.523-4.477-10-10-10Z"
            fill="#1055B1" /><text id="Global Catalog Appliance_2"
            fill="#fff"
            xml:space="preserve"
            style="white-space:pre"
            font-family="Arial"
            font-size="24"
            letter-spacing="0em">
            <tspan x="551.602"
              y="731.203">Global Catalog </tspan>
            <tspan x="577.055"
              y="759.203">Appliance</tspan>
          </text>
        </g>
        <g id="clarity:storage-solid_2">
          <path id="Vector_14_2"
            d="M630.85 815.467c13.467 0 24.433-2.9 25.15-6.567v-9.583c-.717 3.666-11.667 6.566-25.15 6.566a65.644 65.644 0 0 1-19.433-2.55V800a65.66 65.66 0 0 0 19.433 2.517c13.483.033 24.35-2.867 25.15-6.5-.333-5.684-15.8-7.217-25-7.217s-25 1.55-25 7.383v37.634c0 5.816 15.717 7.383 25 7.383s25-1.55 25-7.383v-8.667c-.717 3.65-11.667 6.517-25.15 6.517a65.672 65.672 0 0 1-19.433-2.467v-3.333a65.672 65.672 0 0 0 19.433 2.466c13.483 0 24.433-2.866 25.15-6.516v-9.584c-.717 3.667-11.667 6.567-25.15 6.567a65.628 65.628 0 0 1-19.433-2.517v-3.333a65.66 65.66 0 0 0 19.433 2.517Z"
            fill="#1055B1" />
        </g>
      </g>
    </g>
    <g id="Frame 19">
      <g id="Frame 14_3">
        <g id="entypo:location_3">
          <path id="Vector_15"
            d="M330.241 297.722 328.6 292.8h-1.8l1 4.8h-17.599l.999-4.8h-1.8l-1.641 4.922c-.417 1.253.321 2.278 1.641 2.278h19.2c1.32 0 2.058-1.025 1.641-2.278ZM325 282a6 6 0 0 0-12 0c0 5.73 6 12 6 12s6-6.27 6-12Zm-9.24.072a3.24 3.24 0 1 1 6.477-.162 3.24 3.24 0 0 1-6.477.162Z"
            fill="#8804F0" />
        </g><text id="EU-CENTRAL"
          fill="#000"
          xml:space="preserve"
          style="white-space:pre"
          font-family="Arial"
          font-size="24"
          font-weight="500"
          letter-spacing="0em">
          <tspan x="337.008"
            y="296.203">EU-CENTRAL</tspan>
        </text>
      </g>
      <g id="Frame 13_3">
        <g id="Frame 12_3">
          <path id="Vector_16"
            d="M475 318H307c-5.523 0-10 4.477-10 10v52c0 5.523 4.477 10 10 10h168c5.523 0 10-4.477 10-10v-52c0-5.523-4.477-10-10-10Z"
            fill="#1055B1" /><text id="Global Catalog Appliance_3"
            fill="#fff"
            xml:space="preserve"
            style="white-space:pre"
            font-family="Arial"
            font-size="24"
            letter-spacing="0em">
            <tspan x="311.602"
              y="349.203">Global Catalog </tspan>
            <tspan x="337.055"
              y="377.203">Appliance</tspan>
          </text>
        </g>
        <g id="clarity:storage-solid_3">
          <path id="Vector_16_2"
            d="M390.85 433.467c13.467 0 24.433-2.9 25.15-6.567v-9.583c-.717 3.666-11.667 6.566-25.15 6.566a65.644 65.644 0 0 1-19.433-2.55V418a65.66 65.66 0 0 0 19.433 2.517c13.483.033 24.35-2.867 25.15-6.5-.333-5.684-15.8-7.217-25-7.217s-25 1.55-25 7.383v37.634c0 5.816 15.717 7.383 25 7.383s25-1.55 25-7.383v-8.667c-.717 3.65-11.667 6.517-25.15 6.517a65.672 65.672 0 0 1-19.433-2.467v-3.333a65.672 65.672 0 0 0 19.433 2.466c13.483 0 24.433-2.866 25.15-6.516v-9.584c-.717 3.667-11.667 6.567-25.15 6.567a65.628 65.628 0 0 1-19.433-2.517v-3.333a65.66 65.66 0 0 0 19.433 2.517Z"
            fill="#1055B1" />
        </g>
      </g>
    </g>
  </g>
  <g id="clouds">
    <g id="Tanzu">
      <g id="Group">
        <path id="Vector_17"
          d="M88.86 300.94 69.84 324.8l-1.56-3.26 17.08-21.4 3.5.8Zm-57.14 20.6-17.08-21.4-3.52.8 19.04 23.86 1.56-3.26Z"
          fill="#65A11B" />
        <path id="Vector_18"
          d="m10 295.98 6.8-29.76 2.82 2.24-6.1 26.7-3.52.82Zm80 0-6.8-29.76-2.82 2.24 6.1 26.7 3.52.82Z"
          fill="#1D428A" />
        <path id="Vector_19"
          d="M63.7 323.74H36.3L34.74 327h30.52l-1.56-3.26Zm13.5-59.24-24.66-11.88V249l27.5 13.24-2.84 2.26ZM47.46 249l-27.5 13.24 2.84 2.26 24.66-11.88V249Z"
          fill="#00A1B3" />
        <path id="Vector_20"
          d="M63.56 317.54H36.44l-16.9-21.2 6.04-26.44L50 258.16l24.42 11.76 6.04 26.44-16.9 21.18Zm-25.58-3.2H62l14.98-18.78-5.34-23.42L50 261.7l-21.64 10.44L23 295.56l14.98 18.78Z"
          fill="#0091DA" />
      </g>
    </g>
    <g id="Cloud Providers / light">
      <path id="Vector_21"
        d="M1224 551.102a39.855 39.855 0 0 1-18.14-4.355 40.03 40.03 0 0 1-14.19-12.125c-.12-.17-.21-.363-.26-.567a1.46 1.46 0 0 1-.02-.624c.03-.209.1-.409.21-.589.11-.18.26-.335.43-.456.17-.124.36-.213.57-.262.2-.05.41-.058.62-.025.2.033.4.106.58.215.18.11.34.254.46.424a37.05 37.05 0 0 0 12.8 11.03 36.766 36.766 0 0 0 33.87 0 37.034 37.034 0 0 0 12.8-11.024 1.598 1.598 0 0 1 2.22-.324c.34.246.57.615.64 1.027.07.413-.03.838-.27 1.181a39.931 39.931 0 0 1-32.32 16.474Zm-35.11-22.902c-.31 0-.62-.09-.88-.259-.26-.17-.46-.411-.59-.693a40.11 40.11 0 0 1-3.39-18.365 40.221 40.221 0 0 1 5.3-17.908 40.044 40.044 0 0 1 12.83-13.572 40.073 40.073 0 0 1 17.58-6.293c.42-.041.84.085 1.16.352.33.266.54.651.58 1.071.05.42-.07.84-.34 1.17-.26.329-.65.541-1.06.589a37.02 37.02 0 0 0-16.17 5.812 37.146 37.146 0 0 0-11.79 12.488 37.047 37.047 0 0 0-4.87 16.469 36.866 36.866 0 0 0 3.1 16.893c.08.192.13.399.13.609.01.21-.03.419-.1.616-.08.196-.19.375-.34.527-.15.156-.33.281-.52.366-.2.085-.42.128-.63.128Zm70.23 0c-.27.003-.53-.062-.76-.19-.24-.125-.44-.31-.58-.537a1.53 1.53 0 0 1-.26-.744c-.02-.265.03-.53.13-.775a36.76 36.76 0 0 0 3.12-16.898c-.3-5.8-1.97-11.447-4.87-16.479a36.962 36.962 0 0 0-11.8-12.489 36.897 36.897 0 0 0-16.17-5.796 1.627 1.627 0 0 1-1.09-.582 1.666 1.666 0 0 1-.29-.555c-.06-.202-.08-.414-.06-.624.03-.21.09-.414.19-.599s.24-.349.4-.481c.17-.132.36-.23.56-.289.2-.058.42-.076.63-.052a40.183 40.183 0 0 1 17.56 6.312c5.28 3.451 9.67 8.1 12.81 13.568a40.03 40.03 0 0 1 5.3 17.896 40.07 40.07 0 0 1-3.36 18.358c-.12.284-.33.526-.59.696-.26.17-.56.26-.87.26Z"
        fill="#00A1B3" />
      <path id="Vector_22"
        d="m1250.38 519.558.03-.078a27.943 27.943 0 0 0 1.25-11.627c-.4-3.92-1.63-7.712-3.59-11.126a28.077 28.077 0 0 0-18.52-13.431 5.582 5.582 0 0 0-1.26-2.451 5.496 5.496 0 0 0-2.28-1.546 5.56 5.56 0 0 0-7.27 3.867l-.08.014c-3.95.74-7.69 2.321-10.98 4.637a28.22 28.22 0 0 0-8.06 8.784 28.127 28.127 0 0 0-3.67 11.339c-.39 4 .07 8.038 1.38 11.84a5.538 5.538 0 0 0-1.94 3.312 5.599 5.599 0 0 0 .67 3.778 5.593 5.593 0 0 0 2.96 2.442c1.25.436 2.61.415 3.84-.06a27.867 27.867 0 0 0 9.5 6.996 27.909 27.909 0 0 0 11.53 2.458 27.98 27.98 0 0 0 11.53-2.517 28.05 28.05 0 0 0 9.46-7.045c1.25.557 2.67.629 3.98.202a5.631 5.631 0 0 0 3.09-2.514c.68-1.191.9-2.594.61-3.937a5.528 5.528 0 0 0-2.18-3.337Zm-26.25-37.39c.35 0 .69.077 1.01.226a2.388 2.388 0 0 1 1.28 1.561 2.4 2.4 0 0 1-.62 2.243c-.33.33-.75.555-1.21.645-.46.091-.93.044-1.37-.135-.43-.178-.8-.481-1.05-.869a2.324 2.324 0 0 1-.4-1.195c-.02-.427.07-.853.28-1.23.2-.377.5-.692.86-.912.37-.22.79-.335 1.22-.334Zm-23.26 44.256c-.47.003-.93-.134-1.31-.394-.39-.26-.69-.63-.87-1.063-.18-.43-.23-.905-.14-1.363.09-.458.32-.879.65-1.209a2.356 2.356 0 0 1 2.57-.511c.43.179.8.481 1.06.869s.4.844.4 1.311c-.01.624-.26 1.22-.7 1.663-.44.442-1.04.692-1.66.697Zm40.7-2.36c0 1.063.3 2.105.88 3a24.904 24.904 0 0 1-8.33 6.202 24.886 24.886 0 0 1-10.15 2.239 24.783 24.783 0 0 1-18.57-8.219c.62-.871.98-1.904 1.02-2.972a5.526 5.526 0 0 0-.75-3.05 5.613 5.613 0 0 0-2.28-2.16 5.595 5.595 0 0 0-3.1-.57 25.038 25.038 0 0 1-1.14-10.348 24.83 24.83 0 0 1 10.2-17.62 24.794 24.794 0 0 1 9.54-4.166 5.497 5.497 0 0 0 2.01 2.656c.69.493 1.49.821 2.32.96a5.558 5.558 0 0 0 4.69-1.409 5.536 5.536 0 0 0 1.41-2.081c3.37.766 6.54 2.227 9.31 4.291a24.828 24.828 0 0 1 6.78 7.692 24.798 24.798 0 0 1 1.96 19.969l-.01.036h-.23a5.55 5.55 0 0 0-3.92 1.626 5.472 5.472 0 0 0-1.21 1.798 5.542 5.542 0 0 0-.43 2.126Zm5.56 2.36a2.355 2.355 0 0 1-1.66-4.029c.33-.33.75-.555 1.2-.646.46-.092.94-.046 1.37.133a2.346 2.346 0 0 1 1.45 2.182 2.357 2.357 0 0 1-.69 1.669c-.22.22-.48.394-.77.511-.28.119-.59.18-.9.18Zm-14.55-24.8a10.995 10.995 0 0 0-15.6-5.969c-1.68.909-3.09 2.24-4.1 3.86a10.925 10.925 0 0 0-1.65 5.381 8.254 8.254 0 0 0-4.12 3.724 8.248 8.248 0 0 0 2.03 10.26 8.232 8.232 0 0 0 5.23 1.874h17.93a9.585 9.585 0 0 0 9.52-9.425 9.588 9.588 0 0 0-2.64-6.737 9.582 9.582 0 0 0-6.6-2.968Zm-.28 15.93h-17.93a5.068 5.068 0 0 1-3.35-1.278 5.093 5.093 0 0 1-1.65-3.18 5.048 5.048 0 0 1 .88-3.475 5.056 5.056 0 0 1 2.97-2.011l1.33-.31-.1-1.364c-.02-.222-.03-.4-.03-.576a7.796 7.796 0 0 1 6.93-7.791 7.812 7.812 0 0 1 5.41 1.401 7.854 7.854 0 0 1 3.08 4.656l.31 1.4 1.43-.16a6.35 6.35 0 0 1 3.75.732 6.322 6.322 0 0 1 2.66 2.749c.38.775.61 1.62.66 2.484.05.865-.08 1.73-.38 2.543-.3.814-.76 1.558-1.35 2.187a6.183 6.183 0 0 1-2.11 1.475c-.79.343-1.65.521-2.51.522v-.004Z"
        fill="#0091DA" />
    </g>
    <g id="Cloud Providers / light_2">
      <path id="Vector_23"
        d="M1155 852.102a39.855 39.855 0 0 1-18.14-4.355 40.03 40.03 0 0 1-14.19-12.125c-.12-.17-.21-.363-.26-.567a1.46 1.46 0 0 1-.02-.624c.03-.209.1-.409.21-.589.11-.18.26-.335.43-.456.17-.124.36-.213.57-.262.2-.05.41-.058.62-.025.2.033.4.106.58.215.18.11.34.254.46.424a37.05 37.05 0 0 0 12.8 11.03 36.766 36.766 0 0 0 33.87 0 37.034 37.034 0 0 0 12.8-11.024 1.598 1.598 0 0 1 2.22-.324c.34.246.57.615.64 1.027.07.413-.03.838-.27 1.181a39.931 39.931 0 0 1-32.32 16.474Zm-35.11-22.902c-.31 0-.62-.09-.88-.259-.26-.17-.46-.411-.59-.693a40.11 40.11 0 0 1-3.39-18.365 40.221 40.221 0 0 1 5.3-17.908 40.044 40.044 0 0 1 12.83-13.572 40.073 40.073 0 0 1 17.58-6.293c.42-.041.84.085 1.16.352.33.266.54.651.58 1.071.05.42-.07.84-.34 1.17-.26.329-.65.541-1.06.589a37.02 37.02 0 0 0-16.17 5.812 37.146 37.146 0 0 0-11.79 12.488 37.047 37.047 0 0 0-4.87 16.469 36.866 36.866 0 0 0 3.1 16.893c.08.192.13.399.13.609.01.21-.03.419-.1.616-.08.196-.19.375-.34.527-.15.156-.33.281-.52.366-.2.085-.42.128-.63.128Zm70.23 0c-.27.003-.53-.062-.76-.19-.24-.125-.44-.31-.58-.537a1.53 1.53 0 0 1-.26-.744c-.02-.265.03-.53.13-.775a36.76 36.76 0 0 0 3.12-16.898c-.3-5.8-1.97-11.447-4.87-16.479a36.962 36.962 0 0 0-11.8-12.489 36.897 36.897 0 0 0-16.17-5.796 1.627 1.627 0 0 1-1.09-.582 1.666 1.666 0 0 1-.29-.555c-.06-.202-.08-.414-.06-.624.03-.21.09-.414.19-.599s.24-.349.4-.481c.17-.132.36-.23.56-.289.2-.058.42-.076.63-.052a40.183 40.183 0 0 1 17.56 6.312c5.28 3.451 9.67 8.1 12.81 13.568a40.03 40.03 0 0 1 5.3 17.896 40.07 40.07 0 0 1-3.36 18.358c-.12.284-.33.526-.59.696-.26.17-.56.26-.87.26Z"
        fill="#00A1B3" />
      <path id="Vector_24"
        d="m1181.38 820.558.03-.078a27.943 27.943 0 0 0 1.25-11.627c-.4-3.92-1.63-7.712-3.59-11.126a28.077 28.077 0 0 0-18.52-13.431 5.582 5.582 0 0 0-1.26-2.451 5.496 5.496 0 0 0-2.28-1.546 5.56 5.56 0 0 0-7.27 3.867l-.08.014c-3.95.74-7.69 2.321-10.98 4.637a28.22 28.22 0 0 0-8.06 8.784 28.127 28.127 0 0 0-3.67 11.339c-.39 4 .07 8.038 1.38 11.84a5.538 5.538 0 0 0-1.94 3.312 5.599 5.599 0 0 0 .67 3.778 5.593 5.593 0 0 0 2.96 2.442c1.25.436 2.61.415 3.84-.06a27.867 27.867 0 0 0 9.5 6.996 27.909 27.909 0 0 0 11.53 2.458 27.98 27.98 0 0 0 11.53-2.517 28.05 28.05 0 0 0 9.46-7.045c1.25.557 2.67.629 3.98.202a5.631 5.631 0 0 0 3.09-2.514c.68-1.191.9-2.594.61-3.937a5.528 5.528 0 0 0-2.18-3.337Zm-26.25-37.39c.35 0 .69.077 1.01.226a2.388 2.388 0 0 1 1.28 1.561 2.4 2.4 0 0 1-.62 2.243c-.33.33-.75.555-1.21.645-.46.091-.93.044-1.37-.135-.43-.178-.8-.481-1.05-.869a2.324 2.324 0 0 1-.4-1.195c-.02-.428.07-.854.28-1.23.2-.377.5-.692.86-.912.37-.22.79-.335 1.22-.334Zm-23.26 44.256c-.47.003-.93-.134-1.31-.394-.39-.26-.69-.63-.87-1.063-.18-.43-.23-.905-.14-1.363.09-.458.32-.879.65-1.209a2.356 2.356 0 0 1 2.57-.511c.43.179.8.481 1.06.869s.4.844.4 1.311c-.01.624-.26 1.22-.7 1.663-.44.442-1.04.692-1.66.697Zm40.7-2.36c0 1.063.3 2.105.88 3a24.904 24.904 0 0 1-8.33 6.202 24.886 24.886 0 0 1-10.15 2.239 24.783 24.783 0 0 1-18.57-8.219c.62-.871.98-1.904 1.02-2.972a5.526 5.526 0 0 0-.75-3.05 5.613 5.613 0 0 0-2.28-2.16 5.595 5.595 0 0 0-3.1-.57 25.038 25.038 0 0 1-1.14-10.348 24.83 24.83 0 0 1 10.2-17.62 24.794 24.794 0 0 1 9.54-4.166c.38 1.072 1.08 2 2.01 2.656.69.493 1.49.821 2.32.96a5.558 5.558 0 0 0 4.69-1.409 5.536 5.536 0 0 0 1.41-2.081c3.37.766 6.54 2.227 9.31 4.291a24.828 24.828 0 0 1 6.78 7.692 24.798 24.798 0 0 1 1.96 19.969l-.01.036h-.23a5.55 5.55 0 0 0-3.92 1.626 5.472 5.472 0 0 0-1.21 1.798 5.542 5.542 0 0 0-.43 2.126Zm5.56 2.36a2.355 2.355 0 0 1-1.66-4.029c.33-.33.75-.555 1.2-.646.46-.092.94-.046 1.37.133a2.346 2.346 0 0 1 1.45 2.182 2.357 2.357 0 0 1-.69 1.669c-.22.22-.48.394-.77.511-.28.119-.59.18-.9.18Zm-14.55-24.8a10.987 10.987 0 0 0-10.13-7.297 11.002 11.002 0 0 0-9.57 5.188 10.925 10.925 0 0 0-1.65 5.381 8.254 8.254 0 0 0-4.12 3.724 8.248 8.248 0 0 0 2.03 10.26 8.232 8.232 0 0 0 5.23 1.874h17.93a9.585 9.585 0 0 0 9.52-9.425 9.588 9.588 0 0 0-2.64-6.737 9.582 9.582 0 0 0-6.6-2.968Zm-.28 15.93h-17.93a5.068 5.068 0 0 1-3.35-1.278 5.093 5.093 0 0 1-1.65-3.18 5.048 5.048 0 0 1 .88-3.475 5.056 5.056 0 0 1 2.97-2.011l1.33-.31-.1-1.364c-.02-.222-.03-.4-.03-.576a7.796 7.796 0 0 1 6.93-7.791 7.812 7.812 0 0 1 5.41 1.401 7.854 7.854 0 0 1 3.08 4.656l.31 1.4 1.43-.16a6.35 6.35 0 0 1 3.75.732 6.322 6.322 0 0 1 2.66 2.749c.38.775.61 1.62.66 2.484.05.865-.08 1.73-.38 2.543-.3.814-.76 1.558-1.35 2.187a6.183 6.183 0 0 1-2.11 1.475c-.79.343-1.65.521-2.51.522v-.004Z"
        fill="#0091DA" />
    </g>
    <g id="Cloud Providers / light_3">
      <path id="Vector_25"
        d="M119.998 844.102a39.916 39.916 0 0 1-32.326-16.48 1.604 1.604 0 0 1 .92-2.499 1.595 1.595 0 0 1 1.668.615 37.157 37.157 0 0 0 12.8 11.03 36.77 36.77 0 0 0 33.872 0 37.14 37.14 0 0 0 12.8-11.024 1.596 1.596 0 0 1 1.669-.613 1.595 1.595 0 0 1 1.179 1.93 1.587 1.587 0 0 1-.262.567 39.904 39.904 0 0 1-32.32 16.474ZM84.884 821.2a1.602 1.602 0 0 1-1.464-.952 40.12 40.12 0 0 1 32.316-56.138 1.601 1.601 0 0 1 .338 3.182 36.966 36.966 0 0 0-29.728 51.662 1.597 1.597 0 0 1-1.462 2.246Zm70.23 0a1.597 1.597 0 0 1-1.462-2.246 36.908 36.908 0 0 0-1.749-33.377 36.91 36.91 0 0 0-27.977-18.285 1.61 1.61 0 0 1-1.377-1.137 1.597 1.597 0 0 1 .941-1.94c.246-.098.511-.134.774-.105a40.155 40.155 0 0 1 30.379 19.88 40.163 40.163 0 0 1 1.935 36.254 1.604 1.604 0 0 1-1.464.956Z"
        fill="#00A1B3" />
      <path id="Vector_26"
        d="m146.384 812.558.026-.078a28.028 28.028 0 0 0-10.17-31.443 28.015 28.015 0 0 0-10.69-4.741 5.565 5.565 0 0 0-3.537-3.999 5.56 5.56 0 0 0-7.275 3.869l-.076.014a27.986 27.986 0 0 0-19.037 13.421 28 28 0 0 0-2.297 23.179 5.556 5.556 0 0 0 5.532 9.472 27.971 27.971 0 0 0 21.032 9.455 27.961 27.961 0 0 0 20.984-9.563 5.558 5.558 0 0 0 5.508-9.586Zm-26.256-37.39a2.357 2.357 0 0 1 2.135 3.368 2.36 2.36 0 1 1-2.135-3.368Zm-23.262 44.256a2.355 2.355 0 0 1-2.18-1.457 2.359 2.359 0 0 1 1.718-3.22 2.353 2.353 0 0 1 1.365.137 2.357 2.357 0 0 1 1.356 2.865 2.364 2.364 0 0 1-2.26 1.675Zm40.706-2.36a5.52 5.52 0 0 0 .876 3 24.77 24.77 0 0 1-28.643 6.323 24.772 24.772 0 0 1-8.405-6.101 5.585 5.585 0 0 0 .867-4.552 5.563 5.563 0 0 0-5.973-4.2 24.802 24.802 0 0 1 18.598-32.134 5.564 5.564 0 0 0 8.356 2.732 5.56 5.56 0 0 0 2.07-2.606 24.815 24.815 0 0 1 19.182 21.761 24.797 24.797 0 0 1-1.128 10.191l-.012.036h-.226a5.566 5.566 0 0 0-5.562 5.55Zm5.562 2.36a2.372 2.372 0 0 1-1.823-.864 2.37 2.37 0 0 1-.492-1.956 2.36 2.36 0 0 1 4.675.46 2.37 2.37 0 0 1-2.36 2.36Zm-14.55-24.8a11 11 0 0 0-8.251-7.092 10.996 10.996 0 0 0-13.099 10.364 8.227 8.227 0 0 0-5.014 6.399 8.226 8.226 0 0 0 2.923 7.585 8.24 8.24 0 0 0 5.229 1.874h17.926a9.57 9.57 0 0 0 9.518-9.425 9.569 9.569 0 0 0-9.232-9.705Zm-.286 15.93h-17.926a5.046 5.046 0 0 1-4.813-3.563 5.036 5.036 0 0 1 1.803-5.515 5.045 5.045 0 0 1 1.854-.866l1.33-.31-.098-1.364a7.79 7.79 0 0 1 .382-3.098 7.801 7.801 0 0 1 5.125-4.983 7.797 7.797 0 0 1 7.881 2.046 7.812 7.812 0 0 1 2.002 3.725l.316 1.4 1.424-.16a6.377 6.377 0 0 1 3.751.733 6.366 6.366 0 0 1 .871 10.613 6.37 6.37 0 0 1-3.902 1.346v-.004Z"
        fill="#0091DA" />
    </g>
    <g id="vSphere">
      <path id="Vector_27"
        d="M1227.38 178h-21.57l-3.2 3.2h24.77c2.76.003 5.41 1.1 7.37 3.051a10.43 10.43 0 0 1 3.05 7.365v52.768c0 2.763-1.1 5.412-3.05 7.365a10.466 10.466 0 0 1-7.37 3.051h-20.91l-3.2 3.2h24.11a13.65 13.65 0 0 0 9.63-3.989 13.632 13.632 0 0 0 3.99-9.627v-52.768c0-3.611-1.44-7.073-3.99-9.627a13.65 13.65 0 0 0-9.63-3.989Z"
        fill="#65A11B" />
      <path id="Vector_28"
        d="M1199.39 254.8h-24.77c-2.76-.003-5.41-1.1-7.37-3.051a10.43 10.43 0 0 1-3.05-7.365v-52.768c0-2.763 1.1-5.412 3.05-7.365a10.466 10.466 0 0 1 7.37-3.051h20.91l3.2-3.2h-24.11c-3.61.004-7.07 1.44-9.63 3.992a13.625 13.625 0 0 0-3.99 9.624v52.768c0 3.61 1.44 7.071 3.99 9.624a13.678 13.678 0 0 0 9.63 3.992h21.57l3.2-3.2Z"
        fill="#00A1B3" />
      <path id="Vector_29"
        d="M1225.15 248.529h-34.64a6.23 6.23 0 0 1-2.4-.479 6.203 6.203 0 0 1-2.04-1.365 6.24 6.24 0 0 1-1.85-4.444v-35.506c0-1.668.67-3.266 1.85-4.445a6.203 6.203 0 0 1 2.04-1.365 6.249 6.249 0 0 1 2.4-.479h34.64c1.67.002 3.27.665 4.45 1.844a6.231 6.231 0 0 1 1.36 2.039c.32.763.48 1.58.48 2.406v35.505c0 .825-.16 1.643-.48 2.406a6.231 6.231 0 0 1-1.36 2.039 6.297 6.297 0 0 1-4.45 1.844Zm-34.64-44.883c-.82.001-1.6.327-2.18.906-.29.286-.52.626-.67 1.001-.16.374-.24.776-.24 1.182v35.505c0 .819.33 1.604.91 2.183.58.578 1.36.904 2.18.905h34.64a3.105 3.105 0 0 0 2.19-.906c.57-.579.9-1.363.9-2.182v-35.505c0-.819-.33-1.604-.91-2.183a3.18 3.18 0 0 0-1-.671 3.049 3.049 0 0 0-1.18-.235h-34.64Zm-9.39 28.602h-4.46a3.08 3.08 0 0 1-3.09-3.088v-35.506c0-.819.33-1.604.9-2.183a3.108 3.108 0 0 1 2.19-.905h34.64c.82.001 1.6.326 2.18.905.58.579.91 1.364.91 2.183v3.611h3.2v-3.611c0-1.667-.67-3.265-1.85-4.444a6.286 6.286 0 0 0-4.44-1.844h-34.64a6.306 6.306 0 0 0-4.45 1.844 6.231 6.231 0 0 0-1.36 2.039c-.32.762-.48 1.58-.48 2.405v35.506c0 1.667.66 3.265 1.84 4.444a6.297 6.297 0 0 0 4.45 1.844h4.46v-3.2Z"
        fill="#0091DA" />
    </g>
    <g id="VMC on AWS">
      <path id="Vector_30"
        d="M35.157 442.149 17.682 452.24v20.177l17.475 10.091 17.468-10.091V452.24l-17.468-10.091Zm0 3.669 12.477 7.215-12.477 6.987-12.587-6.958 12.587-7.244Zm-14.283 9.938 12.595 6.965v15.141l-12.595-7.266v-14.84Zm28.558 14.796-12.763 7.34v-15.009l12.763-7.171v14.84Z"
        fill="#EDB200" />
      <path id="Vector_31"
        d="M60.301 472.284a1.606 1.606 0 0 1-1.555-1.333 1.601 1.601 0 0 1 1.027-1.771 24.607 24.607 0 0 0 16.396-23.141 24.339 24.339 0 0 0-4.403-14.048 24.607 24.607 0 0 0-11.362-8.874 1.603 1.603 0 0 1-.883-2.052 1.602 1.602 0 0 1 2.028-.935 27.844 27.844 0 0 1 12.8 10.026 27.507 27.507 0 0 1 5.013 15.883 27.802 27.802 0 0 1-18.525 26.15 1.51 1.51 0 0 1-.536.095Z"
        fill="#0091DA" />
      <path id="Vector_32"
        d="M2.4 430.398h-.293a1.604 1.604 0 0 1-1.277-1.864c3.095-16.666 19.115-27.668 35.781-24.573a30.692 30.692 0 0 1 18.766 11.516 1.598 1.598 0 0 1-.79 2.686 1.587 1.587 0 0 1-1.295-.272 1.598 1.598 0 0 1-.448-.506c-9.239-12.055-26.5-14.337-38.556-5.098a27.505 27.505 0 0 0-10.31 16.805 1.602 1.602 0 0 1-1.578 1.306Z"
        fill="#00A1B3" />
      <path id="Vector_33"
        d="M51.376 428.351h-.61c-3.291-10.905-14.8-17.074-25.704-13.782A20.627 20.627 0 0 0 10.4 434.222v.213c-7.864 2.597-12.133 11.077-9.536 18.94a14.996 14.996 0 0 0 10.784 9.889v-3.31c-6.228-1.924-9.716-8.533-7.791-14.76a11.798 11.798 0 0 1 8.525-7.992l1.328-.308-.103-1.365c0-.492-.051-.896-.051-1.285.024-9.609 7.822-17.387 17.431-17.387a17.24 17.24 0 0 1 10.943 3.861 17.442 17.442 0 0 1 6.04 9.666l.316 1.394 1.424-.154c.553-.058 1.11-.082 1.666-.073 7.998-.025 14.501 6.437 14.526 14.435a14.48 14.48 0 0 1-6.996 12.442l-.19.11v3.596c.405-.181.802-.379 1.189-.594l.66-.382c8.355-5.056 11.028-15.927 5.973-24.28a17.674 17.674 0 0 0-15.162-8.527Z"
        fill="#1D428A" />
    </g>
    <g id="VMC on AWS_2">
      <path id="Vector_34"
        d="m1238.16 367.149-17.48 10.091v20.177l17.48 10.091 17.46-10.091V377.24l-17.46-10.091Zm0 3.669 12.47 7.215-12.47 6.987-12.59-6.958 12.59-7.244Zm-14.29 9.938 12.6 6.965v15.141l-12.6-7.266v-14.84Zm28.56 14.796-12.76 7.34v-15.009l12.76-7.171v14.84Z"
        fill="#EDB200" />
      <path id="Vector_35"
        d="M1263.3 397.284c-.32-.003-.62-.1-.88-.279a1.615 1.615 0 0 1-.7-1.336c0-.668.42-1.262 1.05-1.489a24.616 24.616 0 0 0 11.87-8.97 24.566 24.566 0 0 0 4.53-14.171 24.338 24.338 0 0 0-4.4-14.048 24.642 24.642 0 0 0-11.37-8.874c-.39-.164-.7-.475-.86-.865-.17-.391-.17-.83-.01-1.223.16-.38.46-.685.83-.853.38-.167.8-.184 1.19-.046a27.805 27.805 0 0 1 12.8 10.026 27.526 27.526 0 0 1 5.01 15.883 27.84 27.84 0 0 1-5.11 16.013c-3.32 4.681-8 8.223-13.41 10.137-.17.064-.36.096-.54.095Z"
        fill="#0091DA" />
      <path id="Vector_36"
        d="M1205.4 355.398h-.29a1.59 1.59 0 0 1-.58-.232 1.67 1.67 0 0 1-.44-.435c-.24-.35-.34-.78-.26-1.197 3.09-16.666 19.12-27.668 35.78-24.573a30.692 30.692 0 0 1 18.77 11.516c.3.303.46.71.46 1.134 0 .316-.1.624-.27.886-.18.262-.43.466-.72.586a1.6 1.6 0 0 1-1.74-.352c-.1-.103-.19-.219-.27-.346-9.23-12.055-26.5-14.337-38.55-5.098a27.461 27.461 0 0 0-10.31 16.805c-.07.368-.26.701-.55.94-.29.239-.66.368-1.03.366Z"
        fill="#00A1B3" />
      <path id="Vector_37"
        d="M1254.38 353.351h-.61c-3.3-10.905-14.8-17.074-25.71-13.782a20.675 20.675 0 0 0-10.57 7.412 20.693 20.693 0 0 0-4.09 12.241v.213c-7.86 2.597-12.13 11.077-9.54 18.94a15.056 15.056 0 0 0 4.11 6.349 15.05 15.05 0 0 0 6.68 3.54v-3.31c-6.23-1.924-9.72-8.533-7.79-14.76a11.783 11.783 0 0 1 8.52-7.992l1.33-.308-.1-1.365c0-.492-.05-.896-.05-1.285.02-9.609 7.82-17.387 17.43-17.387a17.248 17.248 0 0 1 10.94 3.861 17.403 17.403 0 0 1 6.04 9.666l.32 1.394 1.42-.154c.55-.058 1.11-.082 1.67-.073 7.99-.025 14.5 6.437 14.52 14.435.01 2.501-.63 4.962-1.86 7.142a14.423 14.423 0 0 1-5.13 5.3l-.19.11v3.596c.4-.181.8-.379 1.18-.594l.67-.382c8.35-5.056 11.02-15.927 5.97-24.28a17.66 17.66 0 0 0-6.46-6.257 17.635 17.635 0 0 0-8.7-2.27Z"
        fill="#1D428A" />
    </g>
  </g>
  <g id="cloud-lines"
    stroke="#1268DC"
    stroke-width="4">
    <path id="Line 15"
      d="m136.41 762.786 223-292" />
    <path id="Line 20"
      d="m945.98 393.279 233-138" />
    <path id="Line 21"
      d="m963.682 406.119 220.998 80" />
    <path id="Line 23"
      d="m962.795 393.011 231.995-24" />
    <path id="Line 17"
      d="m89.81 310.171 259.999 115" />
    <path id="Line 18"
      d="M80 445h281" />
    <path id="Line 22"
      d="m668.002 820 446.998.414" />
    <path id="Line 25"
      d="M160 820h436" />
  </g>
  <g id="sync-lines"
    fill="#4EC3FF">
    <path id="Vector_38"
      d="M824.515 193.75c2.61.9 5.456-.487 6.355-3.098l14.658-42.546a5 5 0 1 0-9.455-3.257l-13.029 37.818-37.818-13.029a5 5 0 0 0-3.257 9.455l42.546 14.657ZM617.93 81.638l.818 4.932-.818-4.932Zm-163.294 152.58a4.998 4.998 0 0 0 6.894 1.569l38.085-23.97a5 5 0 1 0-5.326-8.463l-33.853 21.306-21.307-33.853a5 5 0 0 0-8.463 5.326l23.97 38.085Zm9.107-1.554a188.528 188.528 0 0 1 2.315-9.125l-9.629-2.699a199.358 199.358 0 0 0-2.437 9.606l9.751 2.218Zm8.282-26.973a191.341 191.341 0 0 1 7.698-17.177l-8.914-4.533a201.528 201.528 0 0 0-8.1 18.075l9.316 3.635Zm17.043-33.517a192.384 192.384 0 0 1 10.9-15.348l-7.859-6.183a202.248 202.248 0 0 0-11.468 16.146l8.427 5.385Zm23.25-29.554A191.302 191.302 0 0 1 526 129.695l-6.5-7.599a201.486 201.486 0 0 0-14.398 13.601l7.216 6.923Zm28.57-24.438a189.684 189.684 0 0 1 15.953-9.984l-4.878-8.73a199.983 199.983 0 0 0-16.794 10.51l5.719 8.204Zm32.813-18.334a189.854 189.854 0 0 1 17.61-6.64l-3.061-9.52a200.021 200.021 0 0 0-18.537 6.99l3.988 9.17Zm35.79-11.511c3.054-.66 6.14-1.25 9.257-1.767l-1.636-9.865a204.092 204.092 0 0 0-9.734 1.857l2.113 9.775Zm9.257-1.767c3.376-.56 6.747-1.028 10.108-1.405l-1.115-9.938c-3.536.397-7.08.89-10.629 1.478l1.636 9.865Zm30.454-2.6c6.852-.037 13.645.296 20.355.984l1.019-9.948a199.762 199.762 0 0 0-21.428-1.036l.054 10Zm40.482 4.147a189.883 189.883 0 0 1 19.676 5.306l3.118-9.502a199.885 199.885 0 0 0-20.713-5.586l-2.081 9.782Zm38.674 12.686a191.773 191.773 0 0 1 18.105 9.361l5.059-8.626a201.621 201.621 0 0 0-19.051-9.85l-4.113 9.115Zm35.118 20.59a192.396 192.396 0 0 1 15.727 12.968l6.762-7.366a202.133 202.133 0 0 0-16.545-13.644l-5.944 8.042Zm29.988 27.531a190.816 190.816 0 0 1 12.63 15.998l8.169-5.768a200.614 200.614 0 0 0-13.292-16.837l-7.507 6.607Zm23.472 33.249a189.566 189.566 0 0 1 4.713 9.041l8.989-4.382a199.343 199.343 0 0 0-4.962-9.518l-8.74 4.859Z" />
    <path id="Vector_39"
      d="M325.366 422.215a5 5 0 0 0-5.328-4.649l-44.896 3.058a5 5 0 0 0 .679 9.977l39.908-2.718 2.718 39.907a5 5 0 0 0 9.977-.679l-3.058-44.896Zm-22.865 233.931 4.225-2.674-4.225 2.674Zm204.106 91.03a5 5 0 0 0-1.239-6.962l-36.902-25.752a5 5 0 1 0-5.723 8.2l32.802 22.891-22.891 32.803a5 5 0 0 0 8.201 5.722l25.752-36.902Zm-4.976-7.784c-3.096.551-6.2 1.024-9.307 1.419l1.262 9.92a199.73 199.73 0 0 0 9.797-1.494l-1.752-9.845Zm-28.07 2.869a191.34 191.34 0 0 1-18.819-.405l-.706 9.975c6.577.466 13.186.609 19.803.426l-.278-9.996Zm-37.508-2.654a192.014 192.014 0 0 1-18.38-4.067l-2.636 9.646a201.773 201.773 0 0 0 19.336 4.279l1.68-9.858Zm-36.273-9.913a191.132 191.132 0 0 1-17.23-7.573l-4.47 8.946a201.395 201.395 0 0 0 18.132 7.968l3.568-9.341Zm-33.63-16.805a189.627 189.627 0 0 1-15.406-10.809l-6.143 7.891a199.76 199.76 0 0 0 16.218 11.378l5.331-8.46Zm-29.66-23.09a190.093 190.093 0 0 1-12.97-13.637l-7.578 6.524a199.76 199.76 0 0 0 13.653 14.356l6.895-7.243Zm-24.534-28.487a195.163 195.163 0 0 1-5.23-7.84l-8.45 5.347a202.425 202.425 0 0 0 5.499 8.243l8.181-5.75Zm-5.23-7.84a193.429 193.429 0 0 1-5.228-8.764l-8.72 4.895a202.676 202.676 0 0 0 5.498 9.216l8.45-5.347Zm-14.249-27.04a189.896 189.896 0 0 1-7.016-19.133l-9.56 2.933a199.652 199.652 0 0 0 7.386 20.142l9.19-3.942Zm-11.936-38.904a189.985 189.985 0 0 1-2.771-20.19l-9.966.827a199.924 199.924 0 0 0 2.917 21.253l9.82-1.89Zm-3.367-40.562c.165-6.806.692-13.59 1.576-20.321l-9.915-1.302a201.626 201.626 0 0 0-1.658 21.382l9.997.241Zm5.298-40.363a192.057 192.057 0 0 1 5.824-19.534l-9.418-3.362a202.112 202.112 0 0 0-6.127 20.551l9.721 2.345Zm13.688-38.339a190.707 190.707 0 0 1 9.82-17.86l-8.492-5.281a200.675 200.675 0 0 0-10.336 18.797l9.008 4.344Zm21.491-34.562a190.156 190.156 0 0 1 6.494-7.861l-7.535-6.574a199.651 199.651 0 0 0-6.837 8.275l7.878 6.16Z" />
    <path id="Vector_40"
      d="M773.034 762.364a5 5 0 0 0-1.062 6.991l26.681 36.237a5 5 0 0 0 8.053-5.929l-23.717-32.211 32.211-23.717a5 5 0 1 0-5.929-8.052l-36.237 26.681ZM982.672 656.08l-4.524-2.13 4.524 2.13Zm-32.765-221.075a5 5 0 0 0-5.209 4.782l-1.916 44.959a5 5 0 1 0 9.991.426l1.703-39.964 39.964 1.704a5 5 0 1 0 .426-9.991l-44.959-1.916ZM775.248 771.334c3.548.538 7.1.98 10.651 1.325l.968-9.953a189.561 189.561 0 0 1-10.118-1.259l-1.501 9.887Zm32.079 2.252a200.537 200.537 0 0 0 21.407-1.37l-1.171-9.931a190.566 190.566 0 0 1-20.34 1.302l.104 9.999Zm42.542-5.011a202.024 202.024 0 0 0 20.628-5.862l-3.241-9.461a191.9 191.9 0 0 1-19.607 5.573l2.22 9.75Zm40.519-13.877a201.503 201.503 0 0 0 18.929-10.079l-5.163-8.564a191.445 191.445 0 0 1-17.99 9.579l4.224 9.064Zm36.681-22.117a199.597 199.597 0 0 0 16.365-13.869l-6.865-7.271a189.842 189.842 0 0 1-15.547 13.176l6.047 7.964Zm31.146-29.412a199.727 199.727 0 0 0 13.028-17.044l-8.259-5.638a190.19 190.19 0 0 1-12.376 16.191l7.607 6.491Zm24.157-35.374a204.778 204.778 0 0 0 4.824-9.586l-9.048-4.259a194.46 194.46 0 0 1-4.587 9.116l8.811 4.729Zm4.823-9.586a203.796 203.796 0 0 0 4.003-9.064l-9.244-3.816a194.022 194.022 0 0 1-3.806 8.621l9.047 4.259Zm10.654-27.717a198.26 198.26 0 0 0 4.781-19.226l-9.81-1.93a190.1 190.1 0 0 1-4.544 18.264l9.573 2.892Zm7.631-38.827c.63-6.607.93-13.212.9-19.792l-10.001.044a189.86 189.86 0 0 1-.849 18.801l9.95.947Zm-.17-39.572a200.855 200.855 0 0 0-3.01-19.576l-9.795 2.004a191.015 191.015 0 0 1 2.86 18.603l9.945-1.031Zm-7.924-38.761a202.228 202.228 0 0 0-6.77-18.612l-9.219 3.875a191.91 191.91 0 0 1 6.435 17.691l9.554-2.954Zm-15.329-36.472a201.525 201.525 0 0 0-10.272-16.936l-8.285 5.6a191.621 191.621 0 0 1 9.762 16.095l8.795-4.759Zm-22.16-32.778a200.614 200.614 0 0 0-6.52-7.464l-7.366 6.764a190.243 190.243 0 0 1 6.194 7.09l7.692-6.39Z" />
  </g>
  <defs>
    <radialGradient id="paint0_radial_264_25"
      cx="0"
      cy="0"
      r="1"
      gradientUnits="userSpaceOnUse"
      gradientTransform="matrix(0 472 -472 0 663 472)">
      <stop stop-color="#1055B1" />
      <stop offset="1"
        stop-color="#1C91CE" />
    </radialGradient>
  </defs>
</svg>
