<svg xmlns="http://www.w3.org/2000/svg"
  height="2055.55"
  width="1440"
  viewBox="0 0 2055.55 1440"
  preserveAspectRatio="xMinYMin slice">
  <g fill="none"
    fill-rule="evenodd">
    <g transform="translate(0 -4)">
      <rect fill="#FAFAFA"
        y="4" />
      <path fill="#007CBB"
        opacity=".4"
        style="mix-blend-mode:multiply"
        d="M1108.43 1443.63h.65L443.44 777.74z" />
      <path fill="#93D8CA"
        opacity=".6"
        style="mix-blend-mode:overlay"
        d="m.79 334.92 442.65 442.82L.79 334.49z" />
      <path fill="#A0DEEA"
        d="M.79 211.88V329.6l58.83-58.83z" />
      <path fill="#96C7DF"
        d="M160.65 169.74.79 9.73v202.15l89.48 89.58-30.65-30.69z" />
      <path fill="#CDE3EE"
        d="M503.77 1443.63h193.7l106.27-106.27-96.81-96.93zM158.33 691.15.79 848.72v578.71L447.52 980.7z" />
      <path fill="#CEDDE0"
        d="M257.71 591.75.79 334.49v198.93l157.54 157.73z" />
      <path fill="#A9C9D5"
        d="M.79 533.42v315.3l157.54-157.57z" />
      <path fill="#AFD4E7"
        d="M806.46 1140.89 546.94 881.28l-99.42 99.42 259.41 259.73z" />
      <path fill="#8FC4DF"
        d="M447.52 980.7.79 1427.43v16.2h502.98l203.16-203.2z" />
      <path fill="#70C0DC"
        d="m608.23 819.99-61.29 61.29 259.52 259.61 61.18-61.19z" />
      <path fill="#96C7DF"
        d="M420.05 429.39 319.01 530.45l289.22 289.54L709.3 718.91z" />
      <path fill="#69AFD4"
        d="M709.3 718.91 608.23 819.99l259.41 259.71 101.1-101.1z" />
      <path fill="#8EB5BC"
        d="M619.59 229.82 393.42 3.12h-66.15L160.65 169.74l259.4 259.65zM319.01 530.45 90.27 301.46z" />
      <path fill="#7CB0C7"
        d="M160.65 169.74 59.62 270.77l30.65 30.69 228.74 228.99 101.04-101.06z" />
      <path fill="#84C4D2"
        d="M59.62 270.77.79 329.6v4.89l256.92 257.26 61.3-61.3z" />
      <path fill="#7CB0C7"
        d="M537.55 3.12H393.42l226.17 226.7 72.15-72.16z" />
      <path fill="#87D1DB"
        d="M846.25 3.12h-308.7l154.19 154.54z" />
      <path fill="#CDE3EE"
        d="m909.87 1443.63-59.68-59.76-59.76 59.76z" />
      <path fill="#A0DEEA"
        d="m319.01 530.45-61.3 61.3 185.73 185.99 103.5 103.54 61.29-61.29 259.41 259.71zM867.64 1079.7l-61.18 61.19 96.85 96.89 61.15-61.15z" />
      <path fill="#96C7DF"
        d="m1065.57 1075.52-96.83-96.92-101.1 101.1 96.82 96.93zM964.46 1176.63l-96.82-96.93 96.82 96.93zM1010.92 1223.13l220.24 220.5-220.24-220.5zM1240.08 707.22l-72.18 72.18 96.78 97 72.19-72.18-96.79-97.01zM980.83 447.39 691.74 157.66l-72.15 72.16 289.07 289.74 72.17-72.17z" />
      <path fill="#AFD4E7"
        d="M709.3 718.91 968.74 978.6l199.17-199.2-259.25-259.85z" />
      <path fill="#69AFD4"
        d="m980.83 447.39-72.17 72.16 259.25 259.85 72.17-72.19z" />
      <path fill="#A0DEEA"
        d="M1034.59 3.12H846.25L691.74 157.66l289.09 289.73 248.92-248.92zM1240.08 707.21l96.79 97.01 249.14-249.14-96.87-96.96z" />
      <path fill="#70C0DC"
        d="M1229.75 198.47 980.83 447.39l259.25 259.82 249.06-249.09z" />
      <path fill="#B7CED2"
        d="m1292.22 1302.38 141.1 141.25h397.29l-339.43-340.21z" />
      <path fill="#A0DEEA"
        d="m1010.92 1223.13-61.14 61.14 159.3 159.36h41.9l40.11-40.12z" />
      <path fill="#75B8C5"
        d="M1150.98 1443.63h80.18l-40.07-40.12z" />
      <path fill="#96C7DF"
        d="m1292.22 1302.38-180.19-180.36-101.11 101.11 180.17 180.38z" />
      <path fill="#6EA4BC"
        d="m1191.09 1403.51 40.07 40.12h202.16l-141.1-141.25z" />
      <path fill="#007CBB"
        opacity=".4"
        style="mix-blend-mode:multiply"
        d="m1383.3 850.75-72.18 72.19 180.06 180.48 72.19-72.19z" />
      <path fill="#B7CED2"
        d="m1491.18 1103.42 339.43 340.21h144.25l-411.49-412.4z" />
      <path fill="#6EA4BC"
        d="m1491.18 1103.42 339.43 340.21h144.25l-411.49-412.4z" />
      <path fill="#A0DEEA"
        d="m1812.65 781.95-180.19-180.36-249.16 249.16 180.07 180.48z" />
      <path fill="#B7CED2"
        d="m1563.37 1031.23 411.49 412.4h79.59v-419.64l-241.8-242.04z" />
      <path fill="#78CAD4"
        d="m1563.37 1031.23 411.49 412.4h79.59v-419.64l-241.8-242.04z" />
      <path fill="#91C5E0"
        d="m803.74 1337.36 46.45 46.51 99.59-99.6-46.47-46.49zM1065.57 1075.52l46.46 46.5 199.09-199.08-46.43-46.54z" />
      <path fill="#77B8D9"
        d="M697.47 1443.63h92.96l59.76-59.76-46.45-46.51z" />
      <path fill="#A0DEEA"
        d="m964.46 1176.63-61.15 61.15 46.47 46.49 61.14-61.14z" />
      <path fill="#5DB5D6"
        d="m964.46 1176.63-61.15 61.15 46.47 46.49 61.14-61.14z" />
      <path fill="#96C7DF"
        d="m964.439 1176.552 101.162-101.056 46.454 46.502-101.162 101.057z" />
      <path fill="#57A8D0"
        d="m964.439 1176.552 101.162-101.056 46.454 46.502-101.162 101.057z" />
      <path fill="#96C7DF"
        d="m1010.92 1223.13-46.46-46.5z" />
      <path fill="#000"
        opacity=".42"
        d="m1010.92 1223.13-46.46-46.5z" />
      <path fill="#007CBB"
        opacity=".4"
        style="mix-blend-mode:multiply"
        d="m1336.87 804.22-72.18 72.18 46.43 46.54 72.18-72.19z" />
      <path fill="#57A8D0"
        d="m1336.87 804.22-72.18 72.18 46.43 46.54 72.18-72.19z" />
      <path fill="#93D8CA"
        opacity=".6"
        style="mix-blend-mode:overlay"
        d="m1336.87 804.22 46.43 46.53 249.16-249.16-46.45-46.51z" />
      <path fill="#5DB5D6"
        d="m1336.87 804.22 46.43 46.53 249.16-249.16-46.45-46.51z" />
      <path fill="#AFD3E6"
        d="M2056 .12h-410.51l3 3h295.58l-147.85 147.87 96.9 96.98 161.33-161.33v92.96l-114.87 114.87L2056 411z" />
      <path fill="#7AB9D9"
        d="m1648.49 3.12 147.73 147.87L1944.07 3.12z" />
      <path fill="#66AED4"
        d="m2054.45 86.64-161.33 161.33 46.46 46.5 114.87-114.87z" />
      <path fill="#B7CED2"
        d="m1884.82 709.78 169.63 169.79V540.15z" />
      <path fill="#AFD4E7"
        d="m1489.14 458.12-118.01-118.13zM1796.22 150.99 1648.49 3.12H1425.1l-123.19 123.19 259.39 259.64z" />
      <path fill="#91C5E0"
        d="m1658.194 482.958 235.066-234.82 46.454 46.502-235.066 234.82zM1586.01 555.08l46.45 46.51-46.45-46.51z" />
      <path fill="#B3EAEE"
        d="m1489.166 458.242 72.168-72.167 96.923 96.923-72.167 72.167zM1632.483 601.646l72.205-72.13 180.183 180.372-72.205 72.13zM1301.91 126.31 1178.84 3.12h-144.25l195.16 195.35z" />
      <path fill="#83C0C8"
        d="m1812.65 781.95 241.8 242.04V879.57l-169.63-169.79z" />
      <path fill="#7DC6DC"
        d="m1229.68 198.53 72.16-72.161 259.515 259.515-72.16 72.16z" />
      <path fill="#68B8D5"
        d="m1585.991 555.094 72.168-72.167 46.478 46.478-72.168 72.167z" />
    </g>
    <path d="M.95-.88v840"
      stroke="#000"
      opacity=".15" />
  </g>
</svg>
