<svg id="Layer_13" data-name="Layer 13" xmlns="http://www.w3.org/2000/svg" xmlns:xlink="http://www.w3.org/1999/xlink" width="550" height="400" viewBox="0 0 550 400"><defs><linearGradient id="linear-gradient" x1="286.94" y1="227.92" x2="286.94" y2="517.45" gradientTransform="translate(0 -166)" gradientUnits="userSpaceOnUse"><stop offset="0.13" stop-color="#81c6ed" stop-opacity="0"/><stop offset="0.19" stop-color="#81c6ed" stop-opacity="0.1"/><stop offset="0.32" stop-color="#81c6ed" stop-opacity="0.27"/><stop offset="0.43" stop-color="#81c6ed" stop-opacity="0.4"/><stop offset="0.53" stop-color="#81c6ed" stop-opacity="0.47"/><stop offset="0.6" stop-color="#81c6ed" stop-opacity="0.5"/><stop offset="0.65" stop-color="#81c6ed" stop-opacity="0.47"/><stop offset="0.73" stop-color="#81c6ed" stop-opacity="0.4"/><stop offset="0.82" stop-color="#81c6ed" stop-opacity="0.27"/><stop offset="0.91" stop-color="#81c6ed" stop-opacity="0.1"/><stop offset="0.96" stop-color="#81c6ed" stop-opacity="0"/></linearGradient><linearGradient id="linear-gradient-2" x1="361.42" y1="287.27" x2="361.42" y2="464.34" gradientTransform="translate(0 -166)" gradientUnits="userSpaceOnUse"><stop offset="0.12" stop-color="#81c6ed" stop-opacity="0"/><stop offset="0.23" stop-color="#81c6ed" stop-opacity="0.1"/><stop offset="0.47" stop-color="#81c6ed" stop-opacity="0.27"/><stop offset="0.68" stop-color="#81c6ed" stop-opacity="0.4"/><stop offset="0.87" stop-color="#81c6ed" stop-opacity="0.47"/><stop offset="1" stop-color="#81c6ed" stop-opacity="0.5"/></linearGradient><radialGradient id="radial-gradient" cx="302.27" cy="96.07" r="131.11" gradientTransform="matrix(1, 0, 0, -1, 0, 402)" gradientUnits="userSpaceOnUse"><stop offset="0.34" stop-color="#fff"/><stop offset="0.4" stop-color="#fff" stop-opacity="0.98"/><stop offset="0.49" stop-color="#fff" stop-opacity="0.9"/><stop offset="0.58" stop-color="#fff" stop-opacity="0.79"/><stop offset="0.69" stop-color="#fff" stop-opacity="0.63"/><stop offset="0.8" stop-color="#fff" stop-opacity="0.42"/><stop offset="0.96" stop-color="#fff" stop-opacity="0"/></radialGradient><linearGradient id="linear-gradient-3" x1="3320.27" y1="172.19" x2="3257.56" y2="208.4" gradientTransform="matrix(-0.99, 0.12, 0.12, 0.99, 3470.01, -478.45)" gradientUnits="userSpaceOnUse"><stop offset="0.05" stop-color="#cee6f7"/><stop offset="0.17" stop-color="#c7e3f6"/><stop offset="0.34" stop-color="#b5dcf4"/><stop offset="0.54" stop-color="#97cff0"/><stop offset="0.66" stop-color="#81c6ed"/></linearGradient><linearGradient id="linear-gradient-4" x1="247.75" y1="280.07" x2="210.1" y2="334.9" gradientTransform="matrix(1, 0, 0, -1, 0, 402)" gradientUnits="userSpaceOnUse"><stop offset="0.23" stop-color="#26d1bb"/><stop offset="0.84" stop-color="#08968b"/><stop offset="1" stop-color="#08968b"/></linearGradient><linearGradient id="linear-gradient-5" x1="376.03" y1="-89.86" x2="288.83" y2="-91.18" gradientTransform="translate(-4314.65 -367.26) rotate(6.91)" gradientUnits="userSpaceOnUse"><stop offset="0.28" stop-color="#22b9a5"/><stop offset="0.84" stop-color="#02958a"/></linearGradient><linearGradient id="linear-gradient-6" x1="268.35" y1="103.72" x2="260.28" y2="186.29" gradientTransform="matrix(1, 0, 0, -1, 0, 402)" gradientUnits="userSpaceOnUse"><stop offset="0" stop-color="#22b9a5"/><stop offset="0.59" stop-color="#22b9a5"/><stop offset="0.63" stop-color="#17aa9a"/><stop offset="0.69" stop-color="#0e9f91"/><stop offset="0.77" stop-color="#09988c"/><stop offset="1" stop-color="#08968b"/></linearGradient><linearGradient id="linear-gradient-7" x1="-1220.62" y1="464.04" x2="-1228.92" y2="382.87" gradientTransform="matrix(-1, 0, 0, 1, -1020.54, -166)" xlink:href="#linear-gradient-6"/><linearGradient id="linear-gradient-8" x1="4607.88" y1="-65.49" x2="4607.88" y2="45.33" gradientTransform="translate(-4314.65 -367.26) rotate(6.91)" gradientUnits="userSpaceOnUse"><stop offset="0.48" stop-color="#cee6f7"/><stop offset="0.58" stop-color="#c7e3f6"/><stop offset="0.72" stop-color="#b5dcf4"/><stop offset="0.89" stop-color="#97cff0"/><stop offset="1" stop-color="#81c6ed"/></linearGradient><linearGradient id="linear-gradient-9" x1="4229.69" y1="-41.1" x2="4174.74" y2="-41.1" gradientTransform="matrix(0.97, 0.24, -0.24, 0.97, -3881.53, -787.15)" gradientUnits="userSpaceOnUse"><stop offset="0" stop-color="#4896d1"/><stop offset="1" stop-color="#81c6ed"/></linearGradient><linearGradient id="linear-gradient-10" x1="254.5" y1="95.2" x2="299" y2="95.2" gradientTransform="matrix(1, 0, 0, -1, 0, 402)" gradientUnits="userSpaceOnUse"><stop offset="0.42" stop-color="#3673ac"/><stop offset="1" stop-color="#4896d1"/></linearGradient><linearGradient id="linear-gradient-11" x1="177.7" y1="95.2" x2="216" y2="95.2" xlink:href="#linear-gradient-10"/><linearGradient id="linear-gradient-12" x1="4582.5" y1="-24.19" x2="4614.69" y2="-56.38" gradientTransform="translate(-4314.65 -367.26) rotate(6.91)" gradientUnits="userSpaceOnUse"><stop offset="0" stop-color="#cee6f7"/><stop offset="1" stop-color="#81c6ed"/></linearGradient><linearGradient id="linear-gradient-13" x1="151.37" y1="243" x2="202.37" y2="243" gradientTransform="matrix(1, 0, 0, -1, 0, 402)" gradientUnits="userSpaceOnUse"><stop offset="0.23" stop-color="#26d1bb"/><stop offset="1" stop-color="#08968b"/></linearGradient><linearGradient id="linear-gradient-14" x1="146.07" y1="296.77" x2="158.62" y2="259.12" xlink:href="#linear-gradient-10"/><linearGradient id="linear-gradient-15" x1="154.27" y1="285.63" x2="247.08" y2="285.63" gradientTransform="translate(126.02 -166)" gradientUnits="userSpaceOnUse"><stop offset="0" stop-color="#f89997"/><stop offset="1" stop-color="#e62700"/></linearGradient><linearGradient id="linear-gradient-16" x1="310.48" y1="218.01" x2="337.5" y2="218.01" xlink:href="#linear-gradient-10"/></defs><polygon points="524.5 61.92 234.97 351.45 49.38 351.45 338.13 62.7 524.5 61.92" fill="url(#linear-gradient)"/><polygon points="527.02 121.27 350.24 298.34 195.82 298.34 372.09 121.79 527.02 121.27" fill="url(#linear-gradient-2)"/><path d="M436.75,352.45a141.11,141.11,0,1,0-269,0Z" fill="url(#radial-gradient)"/><circle cx="202.38" cy="102.16" r="10.27" fill="#4896d1"/><line x1="199.68" y1="99.17" x2="199.15" y2="57.61" fill="none" stroke="#4896d1" stroke-miterlimit="10" stroke-width="2"/><circle cx="199.14" cy="56.11" r="4.04" fill="#4896d1"/><path d="M261.77,137.27,260.71,93.5a28.65,28.65,0,0,0-28.79-27.1h0a28.65,28.65,0,0,0-28.27,25.21l-1.24,47.72Z" fill="url(#linear-gradient-3)"/><circle cx="231.09" cy="97.67" r="16.26" fill="url(#linear-gradient-4)"/><ellipse cx="226.42" cy="98.42" rx="3.09" ry="3.12" transform="translate(-5.78 14.53) rotate(-3.63)" fill="#fffcc0"/><ellipse cx="236.62" cy="97.91" rx="3.09" ry="3.12" transform="translate(-5.72 15.18) rotate(-3.63)" fill="#fffcc0"/><path d="M315.21,188.5c-25.09-.57-39.25-12.36-46.72-22.15a56.74,56.74,0,0,1-10.24-21.53l10.8-2.1c.27,1.38,7.23,33.9,46.4,34.78Z" fill="url(#linear-gradient-5)"/><path d="M271.83,310.58,261,308.92c8.05-52.53-7.43-76.14-7.59-76.38l9-6.26C263.15,227.36,280.62,253.22,271.83,310.58Z" fill="url(#linear-gradient-6)"/><path d="M193.16,302c-2.85-59.36,13.63-76.24,15.51-78l7.44,8.11.08-.08c-.15.14-14.64,15.25-12.05,69.42Z" fill="url(#linear-gradient-7)"/><path d="M266.06,131.2l-56.31-2.58-2.26,107,66.51-2.1a13.7,13.7,0,0,0,13.22-14.15V219l-3.66-64.25Z" fill-rule="evenodd" fill="url(#linear-gradient-8)"/><path d="M192.39,129.64l17.36-1,15.12,23.79,1.67,62.91a19.69,19.69,0,0,1-19,20.31h0a21.41,21.41,0,0,1-22-20.75v-.81l.33-42.68C186.31,143.79,192.39,129.64,192.39,129.64Z" fill-rule="evenodd" fill="url(#linear-gradient-9)"/><rect x="185.47" y="208.21" width="100.59" height="2" transform="translate(-0.51 0.58) rotate(-0.14)" fill="#4896d1"/><path d="M240.11,165.87l.49,24.92a4.11,4.11,0,0,0,4.06,4l24.58.26a4.09,4.09,0,0,0,4.15-4v-.19l-.77-24.59a4.12,4.12,0,0,0-4-4l-24.31-.6a4.1,4.1,0,0,0-4.2,4h0Z" fill="#81c6ed"/><path d="M272.14,298a17.66,17.66,0,0,0-17.64,17.6H299S291.06,298,272.14,298Z" fill-rule="evenodd" fill="url(#linear-gradient-10)"/><path d="M198.38,298A17.65,17.65,0,0,1,216,315.6H177.7S179.46,298,198.38,298Z" fill-rule="evenodd" fill="url(#linear-gradient-11)"/><rect x="254.28" y="314.1" width="44.97" height="3" fill="#95cae5"/><rect x="177.49" y="314.1" width="38.86" height="3" fill="#95cae5"/><polygon points="224.87 152.41 283.54 154.72 266.06 131.2 209.75 128.62 224.87 152.41" fill-rule="evenodd" fill="url(#linear-gradient-12)"/><path d="M265.6,167.3a2,2,0,0,0,1.82,2,1.79,1.79,0,0,0,1.77-1.81h0v-.05a2,2,0,0,0-1.77-2,1.78,1.78,0,0,0-1.82,1.74h0Z" fill="#cee6f7"/><path d="M259.92,167.09a2.06,2.06,0,0,0,1.94,2.06,1.86,1.86,0,0,0,1.89-1.83h0v-.09a2.07,2.07,0,0,0-1.9-2.07,1.86,1.86,0,0,0-1.93,1.79h0Z" fill="#cee6f7"/><path d="M253.84,166.86a2.17,2.17,0,0,0,2.09,2.13,1.94,1.94,0,0,0,2-1.88h0V167a2.17,2.17,0,0,0-2-2.14,2,2,0,0,0-2.09,1.91h0Z" fill="#cee6f7"/><path d="M176.36,179c-13.48,0-24.56-28.37-24.66-28.67a5.49,5.49,0,0,1,10-4.56,5.29,5.29,0,0,1,.31.87c2.86,7.94,10.8,20.41,14.28,21.38,5.53-1,12.4-15.18,15.26-25.13a5.5,5.5,0,0,1,10.58,3c-1.48,5.15-9.62,31-24.54,33A9.88,9.88,0,0,1,176.36,179Z" fill="url(#linear-gradient-13)"/><path d="M168.28,124.21a3.56,3.56,0,0,0-3.35,3.6v9.65a.74.74,0,0,1-.74.74h0a.74.74,0,0,1-.74-.74h0V124.17a11.84,11.84,0,0,0-11.84-11.84h0a11.84,11.84,0,0,0-11.83,11.84V139a16,16,0,0,0,16,16h0a16,16,0,0,0,16-16V127.66a3.44,3.44,0,0,0-3.43-3.45h-.07Z" fill="url(#linear-gradient-14)"/><rect x="318.75" y="160.5" width="10.18" height="103.22" fill="#798893"/><rect x="325.39" y="160.5" width="1.93" height="103.22" fill="#919fa8"/><ellipse cx="323.85" cy="115.44" rx="49.25" ry="48.8" fill="#f9a0a0"/><path d="M373.1,115.44A48.62,48.62,0,0,0,351.38,75l-71.09,63.25a49.29,49.29,0,0,0,43.56,26C351.05,164.24,373.1,142.39,373.1,115.44Z" opacity="0.51" fill="url(#linear-gradient-15)" style="isolation:isolate"/><rect x="288.78" y="108.75" width="70.13" height="13.29" fill="#fff"/><circle cx="323.99" cy="183.99" r="13.51" fill="url(#linear-gradient-16)"/></svg>