<svg xmlns="http://www.w3.org/2000/svg" width="330.94" height="106.13" viewBox="0 0 330.94 106.13"><title>no services</title><g id="bf1ac18b-5b40-4e46-a996-cbb201d2bab9" data-name="Layer 2"><path d="M163.05,102.86H96.38a1,1,0,0,1,0-2h66.67a1,1,0,0,1,0,2Z" fill="#b9c8d1"/><path d="M141.93,94.6H4.13a1,1,0,1,1,0-2h137.8a1,1,0,0,1,0,2Z" fill="#b9c8d1"/><path d="M236.37,42.52a14,14,0,0,1-3.19.77,14.19,14.19,0,0,1-15.77-12.41,14,14,0,0,1,.37-5.27" fill="none" stroke="#2cb1e5" stroke-linecap="round" stroke-miterlimit="10" stroke-width="2"/><path d="M211.9,23.36l-6.44,1.54a25.9,25.9,0,0,0-.32,5.52l6.34,2.29a19.93,19.93,0,0,0,1.34,4.51l-4,5.43a25.9,25.9,0,0,0,3.28,4.41l6.33-2.32a20.63,20.63,0,0,0,4,2.63l.41,6.75a25.77,25.77,0,0,0,5.32,1.26" fill="none" stroke="#2cb1e5" stroke-linecap="round" stroke-miterlimit="10" stroke-width="2"/><path d="M307,86.44H277.76a1,1,0,0,1,0-2H307a1,1,0,0,1,0,2Z" fill="#b9c8d1"/><path d="M251.78,27.89l5.62-3.71a25.74,25.74,0,0,0-1.6-5.27l-6.76,0a20.79,20.79,0,0,0-2.82-3.75l1.92-6.46a27.41,27.41,0,0,0-4.64-3l-5.18,4.37A19.93,19.93,0,0,0,233.82,9l-2.69-6.2a25.56,25.56,0,0,0-2.75.18c-.94.12-1.86.28-2.77.48l-1.15,6.67a19.79,19.79,0,0,0-4.11,2.07l-6.06-3a26.54,26.54,0,0,0-3.8,4.06l3.39,5.83c-.22.38-.43.78-.62,1.18A43.24,43.24,0,0,1,219,22.5a14.17,14.17,0,1,1,20.22,18.57,46.17,46.17,0,0,1,4.7,11.41c.63-.34,1.24-.69,1.83-1.07l-1.19-6.65a19.94,19.94,0,0,0,3.29-3.52l6.7.77a25.74,25.74,0,0,0,2.15-5l-5.19-4.33A19.84,19.84,0,0,0,251.78,27.89Z" fill="#2cb1e5"/><path d="M278.76,86.44H120.36v-1a31.89,31.89,0,0,1,31.86-31.86h5.22a43.58,43.58,0,0,1,85.45,4.67,28.24,28.24,0,0,1,35.87,27.19Zm-156.39-2H276.74a26.22,26.22,0,0,0-34.39-23.93l-1.18.38L241,59.67a41.57,41.57,0,0,0-81.83-4.86l-.18.77h-6.81A29.9,29.9,0,0,0,122.37,84.44Z" fill="#b9c8d1"/><path d="M163.06,63.49h-6a30.88,30.88,0,0,0-29.55,22H277.76a27.27,27.27,0,0,0-1.28-8.28,27.27,27.27,0,0,0-29.62-8.7,42.62,42.62,0,0,0-2.18-9.61c-.9.2-1.78.43-2.64.71a42.63,42.63,0,0,0-2.74-11.08,42.57,42.57,0,0,0-76.24,15Z" fill="#b9c8d1" opacity="0.4"/><path d="M149,49.78a30.86,30.86,0,0,0-55.74,16.9c-.39,0-.79,0-1.18,0A27,27,0,0,0,65.11,93.6s0,0,0,0h2v0a25,25,0,0,1,25-24.94c.69,0,1.39,0,2.07.08l1.08.09V67.75A28.86,28.86,0,0,1,147.37,51,1,1,0,1,0,149,49.78Z" fill="#b9c8d1"/></g></svg>