<svg width="340" height="331" viewBox="0 0 340 331" fill="none" xmlns="http://www.w3.org/2000/svg">
<path d="M215.846 74.4408H124.231C122.143 74.4433 120.141 75.2716 118.665 76.7439C117.189 78.2163 116.358 80.2125 116.356 82.2947V285.369L115.306 285.688L92.8313 292.553C91.7661 292.877 90.6157 292.766 89.6324 292.245C88.6491 291.723 87.9134 290.834 87.5868 289.772L20.7349 71.9852C20.4096 70.9228 20.5204 69.7752 21.0432 68.7943C21.5659 67.8135 22.4577 67.0798 23.5226 66.7545L58.156 56.178L158.56 25.527L193.193 14.9505C193.72 14.7887 194.274 14.7322 194.823 14.7841C195.372 14.8361 195.905 14.9955 196.392 15.2532C196.879 15.511 197.311 15.862 197.662 16.2863C198.013 16.7105 198.276 17.1996 198.438 17.7255L215.526 73.3936L215.846 74.4408Z" fill="#F2F2F2"/>
<path d="M235.837 73.3931L215.242 6.30024C214.899 5.18235 214.339 4.14275 213.593 3.24085C212.848 2.33896 211.931 1.59244 210.896 1.04396C209.861 0.495476 208.728 0.155773 207.561 0.0442747C206.394 -0.0672232 205.217 0.0516687 204.096 0.394144L155.404 15.2589L55.0058 45.9151L6.31335 60.785C4.05136 61.4778 2.15736 63.0373 1.04708 65.1213C-0.0631879 67.2054 -0.299025 69.6436 0.391349 71.9009L70.7815 301.197C71.3424 303.019 72.474 304.614 74.0103 305.747C75.5467 306.881 77.4068 307.494 79.3179 307.496C80.2025 307.496 81.082 307.364 81.927 307.103L115.306 296.914L116.356 296.589V295.495L115.306 295.814L81.6173 306.103C79.6207 306.71 77.4642 306.502 75.6208 305.526C73.7774 304.549 72.3977 302.883 71.7843 300.893L1.39954 71.592C1.09562 70.606 0.989693 69.5699 1.08783 68.5431C1.18596 67.5162 1.48621 66.5188 1.97142 65.6078C2.45662 64.6969 3.11724 63.8903 3.91543 63.2344C4.71361 62.5784 5.6337 62.0859 6.62299 61.7851L55.3155 46.9151L155.714 16.2642L204.406 1.39421C205.157 1.16582 205.937 1.04937 206.721 1.04864C208.405 1.05241 210.043 1.59378 211.396 2.59345C212.749 3.59313 213.745 4.99857 214.239 6.60393L234.74 73.3931L235.066 74.4403H236.158L235.837 73.3931Z" fill="#3F3D56"/>
<path d="M64.4059 66.9257C63.394 66.925 62.409 66.6009 61.5954 66.0009C60.7818 65.401 60.1823 64.5568 59.885 63.5922L53.123 41.5638C52.9413 40.9721 52.8782 40.3505 52.9374 39.7344C52.9967 39.1184 53.177 38.52 53.4681 37.9735C53.7592 37.427 54.1554 36.943 54.634 36.5493C55.1127 36.1555 55.6645 35.8596 56.2578 35.6785L148.623 7.47598C149.822 7.11131 151.116 7.23569 152.222 7.82179C153.329 8.4079 154.157 9.40785 154.525 10.6022L161.287 32.6308C161.652 33.8258 161.527 35.1166 160.94 36.22C160.352 37.3234 159.349 38.1492 158.152 38.5163L65.7862 66.7189C65.339 66.8558 64.8737 66.9255 64.4059 66.9257V66.9257Z" fill="#6C63FF"/>
<path d="M99.828 23.5378C105.627 23.5378 110.328 18.8494 110.328 13.066C110.328 7.28259 105.627 2.59421 99.828 2.59421C94.0291 2.59421 89.3282 7.28259 89.3282 13.066C89.3282 18.8494 94.0291 23.5378 99.828 23.5378Z" fill="#6C63FF"/>
<path d="M99.8279 19.6971C103.5 19.6971 106.477 16.7282 106.477 13.066C106.477 9.40377 103.5 6.43494 99.8279 6.43494C96.1559 6.43494 93.1792 9.40377 93.1792 13.066C93.1792 16.7282 96.1559 19.6971 99.8279 19.6971Z" fill="white"/>
<path d="M316.376 304.821H138.931C137.747 304.819 136.613 304.35 135.777 303.515C134.94 302.681 134.47 301.55 134.468 300.37V88.3159C134.469 87.136 134.94 86.0048 135.777 85.1704C136.613 84.3361 137.747 83.8668 138.931 83.8654H316.376C317.559 83.8668 318.693 84.3361 319.53 85.1705C320.366 86.0048 320.837 87.136 320.838 88.3159V300.37C320.837 301.55 320.366 302.681 319.53 303.515C318.693 304.35 317.559 304.819 316.376 304.821V304.821Z" fill="#E6E6E6"/>
<path d="M234.74 73.3936H124.231C121.865 73.397 119.597 74.3358 117.924 76.0044C116.251 77.6729 115.309 79.935 115.306 82.2947V295.815L116.356 295.495V82.2947C116.358 80.2125 117.189 78.2163 118.665 76.744C120.141 75.2716 122.143 74.4434 124.231 74.4408H235.066L234.74 73.3936ZM331.075 73.3936H124.231C121.865 73.397 119.597 74.3358 117.924 76.0044C116.251 77.6729 115.309 79.935 115.306 82.2947V322.099C115.309 324.459 116.251 326.721 117.924 328.389C119.597 330.058 121.865 330.997 124.231 331H331.075C333.441 330.997 335.709 330.058 337.382 328.389C339.055 326.721 339.997 324.459 340 322.099V82.2947C339.997 79.935 339.055 77.6729 337.382 76.0044C335.709 74.3358 333.441 73.397 331.075 73.3936V73.3936ZM338.95 322.099C338.947 324.181 338.117 326.177 336.641 327.65C335.164 329.122 333.163 329.95 331.075 329.953H124.231C122.143 329.95 120.141 329.122 118.665 327.65C117.189 326.177 116.358 324.181 116.356 322.099V82.2947C116.358 80.2125 117.189 78.2163 118.665 76.744C120.141 75.2716 122.143 74.4434 124.231 74.4408H331.075C333.163 74.4434 335.164 75.2716 336.641 76.744C338.117 78.2163 338.947 80.2125 338.95 82.2947V322.099Z" fill="#3F3D56"/>
<path d="M275.952 96.4316H179.354C178.102 96.4302 176.901 95.9333 176.015 95.0498C175.129 94.1664 174.631 92.9686 174.63 91.7193V68.6813C174.631 67.432 175.129 66.2342 176.015 65.3508C176.901 64.4673 178.102 63.9704 179.354 63.969H275.952C277.205 63.9704 278.405 64.4673 279.291 65.3508C280.177 66.2342 280.675 67.432 280.677 68.6813V91.7193C280.675 92.9686 280.177 94.1664 279.291 95.0498C278.405 95.9333 277.205 96.4302 275.952 96.4316V96.4316Z" fill="#6C63FF"/>
<path d="M227.653 65.5398C233.452 65.5398 238.153 60.8514 238.153 55.068C238.153 49.2846 233.452 44.5962 227.653 44.5962C221.854 44.5962 217.153 49.2846 217.153 55.068C217.153 60.8514 221.854 65.5398 227.653 65.5398Z" fill="#6C63FF"/>
<path d="M227.653 61.4463C231.185 61.4463 234.048 58.5906 234.048 55.068C234.048 51.5453 231.185 48.6897 227.653 48.6897C224.121 48.6897 221.258 51.5453 221.258 55.068C221.258 58.5906 224.121 61.4463 227.653 61.4463Z" fill="white"/>
</svg>
