<svg xmlns="http://www.w3.org/2000/svg" xmlns:xlink="http://www.w3.org/1999/xlink" width="327.26" height="295.57" viewBox="0 0 327.26 295.57"><defs><linearGradient id="f1c19c55-ee1c-4dcb-9712-4b20d3d2c84b" x1="59.42" y1="263.87" x2="320.85" y2="263.87" gradientUnits="userSpaceOnUse"><stop offset="0.13" stop-color="#81c6ed" stop-opacity="0"/><stop offset="0.19" stop-color="#81c6ed" stop-opacity="0.1"/><stop offset="0.32" stop-color="#81c6ed" stop-opacity="0.27"/><stop offset="0.43" stop-color="#81c6ed" stop-opacity="0.4"/><stop offset="0.53" stop-color="#81c6ed" stop-opacity="0.47"/><stop offset="0.6" stop-color="#81c6ed" stop-opacity="0.5"/></linearGradient><linearGradient id="aada2c82-7a17-4807-8ca3-3933b43471f6" x1="13013.93" y1="203.75" x2="13013.93" y2="116.8" gradientTransform="matrix(-1, 0.01, 0.01, 1, 13232.09, -75.29)" gradientUnits="userSpaceOnUse"><stop offset="0" stop-color="#22b9a5"/><stop offset="0.28" stop-color="#22b9a5"/><stop offset="0.84" stop-color="#08968b"/><stop offset="1" stop-color="#08968b"/></linearGradient><linearGradient id="e1bdba23-71e8-48eb-9ffb-8572d65c430e" x1="195.53" y1="261.83" x2="240.03" y2="261.83" gradientUnits="userSpaceOnUse"><stop offset="0.71" stop-color="#3673ac"/><stop offset="1" stop-color="#4896d1"/></linearGradient><linearGradient id="fc21dceb-6158-4c66-8d32-276715d563c7" x1="12898.81" y1="-2608.74" x2="12830.87" y2="-2547.16" gradientTransform="matrix(-0.92, 0.39, 0.39, 0.92, 13035.63, -2611.68)" gradientUnits="userSpaceOnUse"><stop offset="0.13" stop-color="#cee6f7"/><stop offset="0.24" stop-color="#c7e3f6"/><stop offset="0.38" stop-color="#b5dcf4"/><stop offset="0.55" stop-color="#97cff0"/><stop offset="0.66" stop-color="#81c6ed"/></linearGradient><linearGradient id="b1975404-88b0-4230-92f4-39811dabb3a4" x1="12868.65" y1="-2598.41" x2="12923.26" y2="-2598.41" gradientTransform="matrix(-0.92, 0.39, 0.39, 0.92, 13035.63, -2611.68)" xlink:href="#aada2c82-7a17-4807-8ca3-3933b43471f6"/><linearGradient id="b4b7fac6-d065-4f43-b04d-70e66b2b2291" x1="116.16" y1="140.55" x2="168.66" y2="140.55" gradientUnits="userSpaceOnUse"><stop offset="0.28" stop-color="#22b9a5"/><stop offset="0.84" stop-color="#02958a"/></linearGradient><linearGradient id="a3eef79a-f9cb-4b32-9421-d2e63904ab10" x1="13063.16" y1="360.64" x2="13063.16" y2="269.87" gradientTransform="matrix(-1, 0.01, 0.01, 0.93, 13230.69, -206.62)" xlink:href="#aada2c82-7a17-4807-8ca3-3933b43471f6"/><linearGradient id="b13778f4-e138-4d75-b4df-194549cb35b0" x1="12820.81" y1="-2421.35" x2="12820.81" y2="-2310.52" gradientTransform="matrix(-0.93, 0.37, 0.37, 0.93, 12984.54, -2348.09)" gradientUnits="userSpaceOnUse"><stop offset="0.48" stop-color="#cee6f7"/><stop offset="0.58" stop-color="#c7e3f6"/><stop offset="0.72" stop-color="#b5dcf4"/><stop offset="0.89" stop-color="#97cff0"/><stop offset="1" stop-color="#81c6ed"/></linearGradient><linearGradient id="e7ffd4e0-c2d6-47b5-bf50-7d81530118b2" x1="12387.79" y1="-2815.71" x2="12332.85" y2="-2815.71" gradientTransform="matrix(-0.88, 0.47, 0.47, 0.88, 12443.89, -3247.68)" gradientUnits="userSpaceOnUse"><stop offset="0" stop-color="#4896d1"/><stop offset="1" stop-color="#81c6ed"/></linearGradient><linearGradient id="e81a3ce1-dbe4-420d-aebe-a4ad18e87098" x1="134.17" y1="261.83" x2="178.67" y2="261.83" xlink:href="#e1bdba23-71e8-48eb-9ffb-8572d65c430e"/><linearGradient id="f4ed8485-adc2-4455-96ff-dd0ab66754db" x1="12795.74" y1="-2389.38" x2="12848.2" y2="-2441.84" gradientTransform="matrix(-0.93, 0.37, 0.37, 0.93, 12984.54, -2348.09)" gradientUnits="userSpaceOnUse"><stop offset="0" stop-color="#eaf7ff"/><stop offset="0.32" stop-color="#cfe6f7"/><stop offset="0.33" stop-color="#cee6f7"/><stop offset="0.74" stop-color="#9bd1f0"/></linearGradient><linearGradient id="b41d0c40-4442-464c-bd5a-80130c0d76a5" x1="152.39" y1="123.66" x2="209.36" y2="106.98" gradientUnits="userSpaceOnUse"><stop offset="0" stop-color="#fff"/><stop offset="1" stop-color="#fff" stop-opacity="0"/></linearGradient><linearGradient id="e42fbf45-9e4e-41eb-ae52-7a5ff0902f9b" x1="12165.47" y1="-3440.43" x2="12190.99" y2="-3440.43" gradientTransform="matrix(-0.78, 0.62, 0.62, 0.78, 11941.2, -4720.55)" xlink:href="#b4b7fac6-d065-4f43-b04d-70e66b2b2291"/><linearGradient id="e4c11743-82a6-4f43-b464-1b6a4864e093" x1="243.96" y1="142.65" x2="270.99" y2="142.65" gradientTransform="translate(10.87 11.44) rotate(2.43)" xlink:href="#e1bdba23-71e8-48eb-9ffb-8572d65c430e"/><linearGradient id="b537f742-4987-4912-b725-449f1367bd60" x1="76.18" y1="137.93" x2="108.23" y2="137.93" gradientTransform="translate(124.54 -24.8) rotate(45)" xlink:href="#e7ffd4e0-c2d6-47b5-bf50-7d81530118b2"/><linearGradient id="eaa3b2d3-17ed-47dd-a376-133d5339173c" x1="55.43" y1="95.31" x2="34.3" y2="79.46" gradientTransform="matrix(1, 0, 0, 1, 0, 0)" xlink:href="#e7ffd4e0-c2d6-47b5-bf50-7d81530118b2"/><linearGradient id="f6e55b9f-a473-408c-a984-c7a74e462fb2" x1="23.54" y1="86.97" x2="78.63" y2="119.3" gradientUnits="userSpaceOnUse"><stop offset="0" stop-color="#81c6ed" stop-opacity="0.5"/><stop offset="0.13" stop-color="#81c6ed" stop-opacity="0.47"/><stop offset="0.32" stop-color="#81c6ed" stop-opacity="0.4"/><stop offset="0.53" stop-color="#81c6ed" stop-opacity="0.27"/><stop offset="0.77" stop-color="#81c6ed" stop-opacity="0.1"/><stop offset="0.88" stop-color="#81c6ed" stop-opacity="0"/></linearGradient><linearGradient id="b4cf2dc3-e0a8-4d24-99ed-9cd3dc737343" x1="6.41" y1="97.99" x2="79.49" y2="97.99" gradientTransform="matrix(1, 0, 0, 1, 0, 0)" xlink:href="#e7ffd4e0-c2d6-47b5-bf50-7d81530118b2"/><clipPath id="e54affc5-6149-4062-9ce0-236742302a42"><path d="M161.25,26.79a78.78,78.78,0,0,1,20,3,83.09,83.09,0,0,1,18,8s2.48-10.42-3-18-15-9-24-5C166.57,17.31,161.25,26.79,161.25,26.79Z" fill="none"/></clipPath><linearGradient id="a0d2ec23-1141-4525-a416-9320458ef24f" x1="13.01" y1="101.12" x2="67.02" y2="101.12" gradientTransform="matrix(1, 0, 0, 1, 0, 0)" xlink:href="#e7ffd4e0-c2d6-47b5-bf50-7d81530118b2"/></defs><title>404-robot-detective</title><g id="a38442d5-7409-4c5f-9530-84be1fb4b037" data-name="source objects"><ellipse cx="190.14" cy="263.87" rx="130.72" ry="25.91" fill="url(#f1c19c55-ee1c-4dcb-9712-4b20d3d2c84b)"/><path d="M223.16,267.07c-.43-.86-10.63-21.27-13.73-39.88-3.59-21.55,4.88-45.95,5.24-47l10.38,3.65c-.08.23-7.89,22.81-4.77,41.52,2.83,17,12.61,36.55,12.71,36.75Z" fill="url(#aada2c82-7a17-4807-8ca3-3933b43471f6)"/><path d="M222.2,252.86A17.65,17.65,0,0,1,240,270.32l-44.5.47S203.28,253.06,222.2,252.86Z" fill-rule="evenodd" fill="url(#e1bdba23-71e8-48eb-9ffb-8572d65c430e)"/><rect x="149.94" y="17.89" width="2" height="41.57" transform="translate(-4.74 45.19) rotate(-16.77)" fill="#4896d1"/><circle cx="144.51" cy="17.34" r="4.04" fill="#4896d1"/><path d="M218,89,204.9,47.21a28.65,28.65,0,0,0-35.16-18.09h0a28.66,28.66,0,0,0-20.2,32.05l12,46.2Z" fill="url(#fc21dceb-6158-4c66-8d32-276715d563c7)"/><circle cx="167.57" cy="63.53" r="15.14" fill="url(#b1975404-88b0-4230-92f4-39811dabb3a4)"/><path d="M133.7,164.2l-1.22,0L121,163.7a5,5,0,1,1,.41-10l11.52.47a19.7,19.7,0,0,0,19.51-13.6l6.5-20.21a5,5,0,1,1,9.52,3.06l-6.5,20.21A29.74,29.74,0,0,1,133.7,164.2Z" fill="url(#b4b7fac6-d065-4f43-b04d-70e66b2b2291)"/><path d="M161.71,266.33c-.32-.94-8-23.22-7.25-39.28,1.1-24.13,25.95-44.07,27-44.91l6.58,8.29c-.23.18-22.13,17.81-23,37.1-.63,14,6.61,35.13,6.68,35.34Z" fill="url(#a3eef79a-f9cb-4b32-9421-d2e63904ab10)"/><path d="M156.57,99.35l53.89-16.54,28.87,103.07-64.91,14.53A13.69,13.69,0,0,1,158,189.62l-12.47-63.13Z" fill-rule="evenodd" fill="url(#b13778f4-e138-4d75-b4df-194549cb35b0)"/><path d="M227.52,79.48l-17.06,3.33-8.71,26.82L215.81,171a19.68,19.68,0,0,0,23.52,14.92h0a21.41,21.41,0,0,0,16-26.38l-11-41.25C236.94,91.66,227.52,79.48,227.52,79.48Z" fill-rule="evenodd" fill="url(#e7ffd4e0-c2d6-47b5-bf50-7d81530118b2)"/><line x1="156.62" y1="179.77" x2="254.1" y2="154.93" fill="none" stroke="#4896d1" stroke-miterlimit="10" stroke-width="2"/><path d="M191.64,127l5.73,24.25a4.11,4.11,0,0,1-2.93,4.91l-23.77,6.4a4.1,4.1,0,0,1-5.07-3.06l-5.38-24a4.11,4.11,0,0,1,2.89-4.85L186.53,124A4.1,4.1,0,0,1,191.64,127Z" fill="#81c6ed"/><path d="M160.84,252.86a17.65,17.65,0,0,1,17.83,17.46l-44.5.47S141.92,253.06,160.84,252.86Z" fill-rule="evenodd" fill="url(#e81a3ce1-dbe4-420d-aebe-a4ad18e87098)"/><polygon points="201.75 109.63 145.51 126.49 156.57 99.35 210.46 82.81 201.75 109.63" fill-rule="evenodd" fill="url(#f4ed8485-adc2-4455-96ff-dd0ab66754db)"/><polygon points="201.75 109.63 145.51 126.49 145.95 125.33 202.15 108.27 201.75 109.63" fill-rule="evenodd" fill="url(#b41d0c40-4442-464c-bd5a-80130c0d76a5)"/><path d="M265.9,161.92a6.62,6.62,0,0,1-.77,0,5.51,5.51,0,0,1-5-5.93c1.08-13.2-1.7-23.78-8.25-31.45-10-11.68-25.39-13-25.55-13a5.5,5.5,0,1,1,.83-11c.82.06,20.16,1.68,33.08,16.8,8.53,10,12.18,23.27,10.85,39.49A5.5,5.5,0,0,1,265.9,161.92Z" fill="url(#e42fbf45-9e4e-41eb-ae52-7a5ff0902f9b)"/><circle cx="262.07" cy="164.86" r="13.51" fill="url(#e4c11743-82a6-4f43-b464-1b6a4864e093)"/><path d="M126.5,147.5l3,9.61a13.41,13.41,0,0,1-8,16.47l-.91.34a13.39,13.39,0,0,1-17.39-8.67h0S120.58,156.46,126.5,147.5Z" fill="#4896d1"/><rect x="88.16" y="119.31" width="8.08" height="37.25" transform="translate(-70.53 105.6) rotate(-45)" fill="url(#b537f742-4987-4912-b725-449f1367bd60)"/><path d="M65.68,75.26c-18.16-18.16-40-25.8-48.74-17.1h0L10.13,65l3.16,3.16C13.21,78.77,20.84,93.82,34,107s28.18,20.77,38.82,20.69L76,130.81,82.78,124h0C91.48,115.22,83.83,93.42,65.68,75.26Z" fill="url(#eaa3b2d3-17ed-47dd-a376-133d5339173c)"/><ellipse cx="43.56" cy="97.95" rx="20.37" ry="40.17" transform="translate(-56.5 59.49) rotate(-45)" fill="#fff"/><rect x="94.47" y="142.3" width="12.45" height="8.24" transform="translate(-74.04 114.09) rotate(-45)" fill="#475b6b"/><rect x="87.95" y="140.14" width="17.94" height="5.01" rx="2.51" transform="translate(-72.48 110.31) rotate(-45)" fill="#475b6b"/><rect x="108.41" y="140.56" width="17.94" height="45.09" rx="2.84" transform="translate(-80.95 130.77) rotate(-45)" fill="#475b6b"/><path d="M107.16,148.24l19.2-.77L129,157l-18.42-3.43a4.3,4.3,0,0,1-3.38-5.3Z" fill="#4896d1"/><path d="M32.51,67.9v48.58C47.31,129.35,64,134,71.27,126.71c8-8,1.68-27.12-14-42.8C49.27,75.91,40.37,70.37,32.51,67.9Z" fill="url(#f6e55b9f-a473-408c-a984-c7a74e462fb2)"/><path d="M10,65.07C1.28,73.82,8.92,95.65,27.1,113.83s40,25.83,48.77,17.07S77,100.32,58.8,82.14,18.79,56.32,10,65.07ZM70,125c-7.19,7.19-25.11.92-40-14s-21.19-32.84-14-40S41,70.06,56,85,77.15,117.82,70,125Z" fill="url(#b4cf2dc3-e0a8-4d24-99ed-9cd3dc737343)"/><path d="M169.81,22.71l-10.42,5.23c-6.49,3.25-8.82,7.63-5.17,9.73s11.93,1.16,18.42-2.1l12.61-6.32Z" fill="#bc6626"/><path d="M178.66,149.61a1.5,1.5,0,0,1-1.78-1.15l-.35-1.59a4.89,4.89,0,0,1,2-5,3.87,3.87,0,0,0,1.43-4.41,3.87,3.87,0,0,0-7.44,2.06,1.5,1.5,0,1,1-2.93.63,6.86,6.86,0,1,1,10.66,4.17,1.89,1.89,0,0,0-.79,2l.34,1.59A1.49,1.49,0,0,1,178.66,149.61Z" fill="#cee6f7"/><circle cx="179.7" cy="153.83" r="2.33" fill="#cee6f7"/><path d="M161.25,26.79a78.78,78.78,0,0,1,20,3,83.09,83.09,0,0,1,18,8s2.48-10.42-3-18-15-9-24-5C166.57,17.31,161.25,26.79,161.25,26.79Z" fill="#f8c22c"/><g clip-path="url(#e54affc5-6149-4062-9ce0-236742302a42)"><rect x="146.32" y="22.03" width="34.11" height="1" transform="translate(105.47 176.96) rotate(-77.3)" fill="#f0892e"/><rect x="148.55" y="22.55" width="34.11" height="1" transform="translate(106.69 179.54) rotate(-77.3)" fill="#bc6626"/><rect x="153.32" y="23.03" width="34.11" height="1" transform="translate(109.95 184.57) rotate(-77.3)" fill="#f0892e"/><rect x="155.55" y="23.55" width="34.11" height="1" transform="translate(111.18 187.14) rotate(-77.3)" fill="#bc6626"/><rect x="160.32" y="24.03" width="34.11" height="1" transform="translate(114.44 192.18) rotate(-77.3)" fill="#f0892e"/><rect x="162.55" y="24.55" width="34.11" height="1" transform="translate(115.66 194.75) rotate(-77.3)" fill="#bc6626"/><rect x="167.32" y="25.03" width="34.11" height="1" transform="translate(118.92 199.79) rotate(-77.3)" fill="#f0892e"/><rect x="169.55" y="25.55" width="34.11" height="1" transform="translate(120.15 202.36) rotate(-77.3)" fill="#bc6626"/><rect x="174.32" y="26.03" width="34.11" height="1" transform="translate(123.41 207.39) rotate(-77.3)" fill="#f0892e"/><rect x="176.55" y="26.55" width="34.11" height="1" transform="translate(124.63 209.97) rotate(-77.3)" fill="#bc6626"/><rect x="181.32" y="27.03" width="34.11" height="1" transform="translate(127.89 215) rotate(-77.3)" fill="#f0892e"/><rect x="183.55" y="27.55" width="34.11" height="1" transform="translate(129.12 217.58) rotate(-77.3)" fill="#bc6626"/><rect x="186.01" y="-10.84" width="1" height="47.51" transform="translate(131.76 191.67) rotate(-76.93)" fill="#bc6626"/><rect x="185.59" y="-8.98" width="1" height="47.51" transform="translate(129.62 192.7) rotate(-76.93)" fill="#f0892e"/><rect x="184.01" y="-4.84" width="1" height="47.51" transform="translate(124.37 194.36) rotate(-76.93)" fill="#bc6626"/><rect x="183.59" y="-2.98" width="1" height="47.51" transform="translate(122.23 195.4) rotate(-76.93)" fill="#f0892e"/><rect x="182.01" y="1.16" width="1" height="47.51" transform="translate(116.98 197.06) rotate(-76.93)" fill="#bc6626"/><rect x="181.59" y="3.02" width="1" height="47.51" transform="translate(114.84 198.09) rotate(-76.93)" fill="#f0892e"/><rect x="180.01" y="7.16" width="1" height="47.51" transform="translate(109.58 199.75) rotate(-76.93)" fill="#bc6626"/><rect x="179.59" y="9.02" width="1" height="47.51" transform="translate(107.45 200.79) rotate(-76.93)" fill="#f0892e"/><rect x="178.01" y="13.16" width="1" height="47.51" transform="translate(102.19 202.45) rotate(-76.93)" fill="#bc6626"/><rect x="177.59" y="15.02" width="1" height="47.51" transform="translate(100.05 203.48) rotate(-76.93)" fill="#f0892e"/></g><polygon points="186.04 13.11 179.25 8.79 181.25 5.79 186.25 11.79 195.25 10.79 195.25 13.79 186.04 13.11" fill="#bc6626"/><path d="M14,74.12c-3.57,8.41,2.86,23.88,16,37s28.62,19.58,37,16c-9.92-2.07-22.1-9.16-33-20S16.06,84,14,74.12Z" opacity="0.3" fill="url(#a0d2ec23-1141-4525-a416-9320458ef24f)"/><ellipse cx="157.73" cy="66.36" rx="2.97" ry="3" transform="translate(-8.67 26.43) rotate(-9.32)" fill="#fffcc0"/><ellipse cx="169.16" cy="64.91" rx="3.33" ry="3.5" transform="translate(98.48 231.74) rotate(-88.03)" fill="#fffcc0"/></g></svg>