<svg id="a6a9c78b-3798-4e5f-90ce-b25ec9d8bf76" data-name="09b97304-1e73-4fd6-8f1f-1a730810c417" xmlns="http://www.w3.org/2000/svg" xmlns:xlink="http://www.w3.org/1999/xlink" width="920" height="686" viewBox="0 0 920 686"><defs><linearGradient id="bc81c9c2-6ccd-4e55-80ea-41629237a5a2" x1="574.63" y1="1842.43" x2="574.69" y2="1370.78" gradientTransform="matrix(1, 0, 0, -1, 0, 1963.45)" gradientUnits="userSpaceOnUse"><stop offset="0.02" stop-color="#81c6ed" stop-opacity="0"/><stop offset="0.51" stop-color="#81c6ed" stop-opacity="0.47"/><stop offset="0.57" stop-color="#81c6ed" stop-opacity="0.33"/><stop offset="0.63" stop-color="#81c6ed" stop-opacity="0.21"/><stop offset="0.7" stop-color="#81c6ed" stop-opacity="0.12"/><stop offset="0.77" stop-color="#81c6ed" stop-opacity="0.05"/><stop offset="0.85" stop-color="#81c6ed" stop-opacity="0.01"/><stop offset="0.97" stop-color="#81c6ed" stop-opacity="0"/></linearGradient><linearGradient id="f00e1bed-eefb-46f0-ba73-1ab0b53e3dc2" x1="618.3" y1="1711.75" x2="618.3" y2="1433.35" gradientTransform="matrix(1, 0, 0, -1, 0, 1963.45)" gradientUnits="userSpaceOnUse"><stop offset="0" stop-color="#81c6ed" stop-opacity="0"/><stop offset="0.41" stop-color="#81c6ed" stop-opacity="0.4"/><stop offset="0.52" stop-color="#81c6ed" stop-opacity="0.4"/><stop offset="1" stop-color="#81c6ed" stop-opacity="0"/></linearGradient><linearGradient id="a401f3d2-3256-40eb-ac99-ceb6a54705eb" x1="166.53" y1="1442.15" x2="166.53" y2="1574.25" gradientTransform="translate(568.61 1963.45) rotate(180)" gradientUnits="userSpaceOnUse"><stop offset="0.28" stop-color="#22b9a5"/><stop offset="0.84" stop-color="#02958a"/></linearGradient><linearGradient id="f03f74b5-0bbf-4b28-82d5-56a3a8f88373" x1="404.58" y1="1455.55" x2="404.58" y2="1577.65" gradientTransform="matrix(1, 0, 0, -1, 90.52, 1963.45)" xlink:href="#a401f3d2-3256-40eb-ac99-ceb6a54705eb"/><linearGradient id="a0f24acc-d91d-42c3-8269-0d2a4a5c0efc" x1="-366.18" y1="1745.22" x2="-464.78" y2="1688.29" gradientTransform="translate(258.2 1944.22) rotate(173.09)" gradientUnits="userSpaceOnUse"><stop offset="0.05" stop-color="#cee6f7"/><stop offset="0.17" stop-color="#c7e3f6"/><stop offset="0.34" stop-color="#b5dcf4"/><stop offset="0.54" stop-color="#97cff0"/><stop offset="0.66" stop-color="#81c6ed"/></linearGradient><linearGradient id="af12d508-5c3b-473b-b5d9-009dd5742b18" x1="-294.02" y1="1704.69" x2="-294.02" y2="1660.31" gradientTransform="translate(258.2 1944.22) rotate(173.09)" gradientUnits="userSpaceOnUse"><stop offset="0.28" stop-color="#22b9a5"/><stop offset="0.55" stop-color="#1fb6a3"/><stop offset="0.79" stop-color="#02958a"/></linearGradient><linearGradient id="e1fa4179-c6b7-4919-857c-2cb97c6f583f" x1="-364.6" y1="1689.33" x2="-364.6" y2="1515.07" gradientTransform="translate(258.2 1944.22) rotate(173.09)" gradientUnits="userSpaceOnUse"><stop offset="0.48" stop-color="#cee6f7"/><stop offset="0.58" stop-color="#c7e3f6"/><stop offset="0.72" stop-color="#b5dcf4"/><stop offset="0.89" stop-color="#97cff0"/><stop offset="1" stop-color="#81c6ed"/></linearGradient><linearGradient id="f77428ee-38d5-4179-b178-1f39d023ecc1" x1="-692.8" y1="1232.27" x2="-779.2" y2="1232.27" gradientTransform="matrix(-0.97, 0.24, -0.24, -0.97, 75.36, 1690.82)" gradientUnits="userSpaceOnUse"><stop offset="0" stop-color="#4896d1"/><stop offset="1" stop-color="#81c6ed"/></linearGradient><linearGradient id="ad08b329-e75a-4232-9727-ff40253a3643" x1="-434.98" y1="1737.23" x2="-343.59" y2="1737.23" gradientTransform="translate(258.2 1944.22) rotate(173.09)" xlink:href="#a401f3d2-3256-40eb-ac99-ceb6a54705eb"/><linearGradient id="a9c53553-922e-4ecd-9fd0-16a942166b20" x1="-400.81" y1="1633.02" x2="-350.18" y2="1683.65" gradientTransform="translate(258.2 1944.22) rotate(173.09)" gradientUnits="userSpaceOnUse"><stop offset="0" stop-color="#cee6f7"/><stop offset="1" stop-color="#81c6ed"/></linearGradient><linearGradient id="e95cabc2-a743-410a-9941-bfbdf9c3be2f" x1="-817.09" y1="1238.7" x2="-752.89" y2="1238.7" gradientTransform="matrix(-0.97, 0.24, -0.24, -0.97, 75.36, 1690.82)" xlink:href="#a401f3d2-3256-40eb-ac99-ceb6a54705eb"/></defs><title>Success_01-dark</title><polygon points="912.8 76 457.5 531.2 236.5 531.2 690.5 77.2 912.8 76" opacity="0.5" fill="url(#bc81c9c2-6ccd-4e55-80ea-41629237a5a2)"/><polygon points="855.1 251.7 577.1 530.1 381.5 530.1 658.6 252.5 855.1 251.7" opacity="0.5" fill="url(#f00e1bed-eefb-46f0-ba73-1ab0b53e3dc2)"/><circle cx="408.8" cy="182.3" r="16.1" fill="#4896d1"/><rect x="399.29" y="113.5" width="4.5" height="65.3" transform="translate(-1.76 4.93) rotate(-0.7)" fill="#4896d1"/><circle cx="401.1" cy="111.1" r="6.4" fill="#4896d1"/><path d="M389.9,521.3c-13.7-90,13.6-130.5,14.8-132.1l13.3,9.3-6.6-4.6,6.7,4.6c-.2.4-24.7,37.6-12.1,120.5Z" fill="url(#a401f3d2-3256-40eb-ac99-ceb6a54705eb)"/><path d="M512.5,507.9l-16.2-.8c2.1-44.8-3.2-72.3-8.1-87.4-5.2-16.2-11-22.1-11-22.1l.1.1,10.9-11.9C491.2,388.4,516.9,414.8,512.5,507.9Z" fill="url(#f03f74b5-0bbf-4b28-82d5-56a3a8f88373)"/><path d="M502.2,237.6l-1.6-68.8a45.13,45.13,0,0,0-45.2-42.7h0a45.09,45.09,0,0,0-44.5,39.6l-2,75Z" fill="url(#a0f24acc-d91d-42c3-8269-0d2a4a5c0efc)"/><path d="M364.3,271.5c-23.5,0-52.1-4.9-70.4-25.3l12-10.8c28.4,31.5,93.7,16.1,94.4,16l3.8,15.7A186.28,186.28,0,0,1,364.3,271.5Z" fill="url(#af12d508-5c3b-473b-b5d9-009dd5742b18)"/><path d="M398.4,239.4l88.6-4.1,3.6,168.3L386,400.3a21.48,21.48,0,0,1-20.8-22.2v-.7l5.8-101Z" fill="url(#e1fa4179-c6b7-4919-857c-2cb97c6f583f)"/><path d="M514.3,236.9,487,235.3l-23.8,37.4-2.6,98.9a30.81,30.81,0,0,0,29.9,31.9h.1a33.65,33.65,0,0,0,34.7-32.6v-1.3l-.5-67.1C523.8,259.2,514.3,236.9,514.3,236.9Z" fill="url(#f77428ee-38d5-4179-b178-1f39d023ecc1)"/><line x1="366.1" y1="360.5" x2="525.2" y2="362.2" fill="none" stroke="#4896d1" stroke-miterlimit="10" stroke-width="5.69"/><path d="M439.2,293.9l-.8,39.2a6.42,6.42,0,0,1-6.4,6.3l-38.7.4a6.4,6.4,0,0,1-6.5-6.4v-.3l1.2-38.6a6.39,6.39,0,0,1,6.3-6.2l38.2-1a6.4,6.4,0,0,1,6.6,6.3A.37.37,0,0,1,439.2,293.9Z" fill="#81c6ed"/><circle cx="290.3" cy="242.8" r="18.3" fill="#0065ab"/><circle cx="444.6" cy="176.5" r="25.6" fill="url(#ad08b329-e75a-4232-9727-ff40253a3643)"/><path d="M307.2,213.1l1,31.7a11.8,11.8,0,0,1-11.5,12H294l2.4-35.3a7.78,7.78,0,0,1,6-7.2Z" fill="#0065ab"/><path d="M388.9,501.6a27.7,27.7,0,0,1,27.7,27.7h-70S359.1,501.6,388.9,501.6Z" fill="#0065ab"/><path d="M504.9,501.6a27.7,27.7,0,0,0-27.7,27.7h60.2C537.3,529.3,534.6,501.6,504.9,501.6Z" fill="#0065ab"/><line x1="477.1" y1="529.3" x2="537.3" y2="529.3" fill="none" stroke="#4896d1" stroke-miterlimit="10" stroke-width="5.69"/><line x1="416.6" y1="529.3" x2="346.6" y2="529.3" fill="none" stroke="#4896d1" stroke-miterlimit="10" stroke-width="5.69"/><circle cx="452.5" cy="175.4" r="5.5" fill="#fffcc0"/><circle cx="432.3" cy="175.3" r="5.5" fill="#fffcc0"/><polygon points="463.2 272.7 370.9 276.4 398.4 239.4 487 235.3 463.2 272.7" fill="url(#a9c53553-922e-4ecd-9fd0-16a942166b20)"/><polyline points="429.9 298.5 407.4 327.8 398.4 316.4" fill="none" stroke="#cee6f7" stroke-linecap="round" stroke-linejoin="round" stroke-width="4.25"/><path d="M445.3,212.4l24.6-10.3s4,10.9-4.9,16.1C454.2,224.6,445.3,212.4,445.3,212.4Z" fill="#fff"/><path d="M398.4,239.4l172.5-26A34.22,34.22,0,0,1,601.1,224l10.5,11.3h46.8a34.3,34.3,0,0,1,25.1,11l24.3,26.3L522.4,272c-1.6-15.3-8.2-35.1-8.2-35.1Z" fill="#0065ab"/><path d="M525.3,362a8.05,8.05,0,0,1-4.9-14.5c24.2-18.3,35.5-34.6,32.7-47.2-4.2-18.6-38-29.6-50.6-32.2a8.12,8.12,0,0,1,3.3-15.9,145.47,145.47,0,0,1,27.8,9.3c20.3,9.2,32.1,21.1,35.3,35.2,4.4,19.5-8.6,40.9-38.7,63.7A8.2,8.2,0,0,1,525.3,362Z" fill="url(#e95cabc2-a743-410a-9941-bfbdf9c3be2f)"/><circle cx="525.3" cy="354" r="21.2" fill="#0065ab"/><rect width="920" height="686" fill="none"/></svg>