<?xml version="1.0" encoding="utf-8"?><svg id="Robot_unplugg_animation_dark" image-rendering="auto" baseProfile="basic" version="1.1" preserveAspectRatio="xMidYMid meet" x="0px" y="0px" width="550" height="400" xmlns="http://www.w3.org/2000/svg" viewBox="0 0 550 400" xmlns:xlink="http://www.w3.org/1999/xlink"><defs><linearGradient id="Gradient_1" gradientUnits="userSpaceOnUse" x1="130.05" y1="9.3" x2="-99.45" y2="9.3" spreadMethod="pad"><stop offset="0%" stop-color="#E38D44" stop-opacity="0"/><stop offset="71.372%" stop-color="#E38D44"/></linearGradient><linearGradient id="Gradient_2" gradientUnits="userSpaceOnUse" x1="28.087" y1="51.35" x2="20.612" y2="56.050" spreadMethod="pad"><stop offset="27.843%" stop-color="#58B6A5"/><stop offset="83.529%" stop-color="#41938A"/></linearGradient><linearGradient id="Gradient_3" gradientUnits="userSpaceOnUse" x1="37.912" y1="28.637" x2="6.687" y2="37.562" spreadMethod="pad"><stop offset="27.843%" stop-color="#58B6A5"/><stop offset="83.529%" stop-color="#41938A"/></linearGradient><linearGradient id="Gradient_4" gradientUnits="userSpaceOnUse" x1="7.937" y1="68.012" x2="58.262" y2="15.987" spreadMethod="pad"><stop offset="4.705%" stop-color="#D2E6F5"/><stop offset="16.862%" stop-color="#CCE3F4"/><stop offset="33.725%" stop-color="#BCDBF1"/><stop offset="53.333%" stop-color="#A2CEED"/><stop offset="65.882%" stop-color="#90C5E9"/></linearGradient><linearGradient id="Gradient_5" gradientUnits="userSpaceOnUse" x1="67.137" y1="-4.287" x2="39.162" y2="31.587" spreadMethod="pad"><stop offset="0%" stop-color="#D2E6F5"/><stop offset="100%" stop-color="#90C5E9"/></linearGradient><linearGradient id="Gradient_6" gradientUnits="userSpaceOnUse" x1="65.149" y1="60.125" x2="118.45" y2="46.974" spreadMethod="pad"><stop offset="0%" stop-color="#5B96CC"/><stop offset="100%" stop-color="#90C5E9"/></linearGradient><linearGradient id="Gradient_7" gradientUnits="userSpaceOnUse" x1="58.55" y1="111.087" x2="44.95" y2="1.112" spreadMethod="pad"><stop offset="47.450%" stop-color="#D2E6F5"/><stop offset="58.039%" stop-color="#CCE3F4"/><stop offset="72.549%" stop-color="#BCDBF1"/><stop offset="89.411%" stop-color="#A2CEED"/><stop offset="100%" stop-color="#90C5E9"/></linearGradient><linearGradient id="Gradient_8" gradientUnits="userSpaceOnUse" x1="94.55" y1="173.375" x2="94.55" y2="95.425" spreadMethod="pad"><stop offset="27.843%" stop-color="#58B6A5"/><stop offset="83.529%" stop-color="#41938A"/></linearGradient><linearGradient id="Gradient_9" gradientUnits="userSpaceOnUse" x1="35.15" y1="97.6" x2="35.15" y2="181.9" spreadMethod="pad"><stop offset="27.843%" stop-color="#58B6A5"/><stop offset="83.529%" stop-color="#41938A"/></linearGradient><linearGradient id="Gradient_10" gradientUnits="userSpaceOnUse" x1="42.625" y1="21.737" x2="-6.125" y2="33.762" spreadMethod="pad"><stop offset="27.843%" stop-color="#58B6A5"/><stop offset="83.529%" stop-color="#41938A"/></linearGradient><linearGradient id="Gradient_11" gradientUnits="userSpaceOnUse" x1="37.125" y1="21.737" x2="-11.625" y2="33.762" spreadMethod="pad"><stop offset="27.843%" stop-color="#58B6A5"/><stop offset="83.529%" stop-color="#41938A"/></linearGradient><linearGradient id="Gradient_12" gradientUnits="userSpaceOnUse" x1="59.5" y1="-65.375" x2="59.5" y2="111.675" spreadMethod="pad"><stop offset="11.764%" stop-color="#4777AD" stop-opacity="0"/><stop offset="100%" stop-color="#4777AD" stop-opacity=".498"/></linearGradient><linearGradient id="Gradient_13" gradientUnits="userSpaceOnUse" x1="0" y1="-144.75" x2="0" y2="144.75" spreadMethod="pad"><stop offset="12.549%" stop-color="#4777AD" stop-opacity="0"/><stop offset="59.607%" stop-color="#4777AD" stop-opacity=".498"/><stop offset="96.078%" stop-color="#4777AD" stop-opacity="0"/></linearGradient><linearGradient id="Gradient_14" gradientUnits="userSpaceOnUse" x1="19.200" y1="57.312" x2="11.9" y2="-1.812" spreadMethod="pad"><stop offset="27.843%" stop-color="#58B6A5"/><stop offset="55.294%" stop-color="#56B3A3"/><stop offset="79.607%" stop-color="#41938A"/></linearGradient><linearGradient id="Gradient_15" gradientUnits="userSpaceOnUse" x1="23.950" y1="57.312" x2="16.65" y2="-1.812" spreadMethod="pad"><stop offset="27.843%" stop-color="#58B6A5"/><stop offset="55.294%" stop-color="#56B3A3"/><stop offset="79.607%" stop-color="#41938A"/></linearGradient><linearGradient id="Gradient_16" gradientUnits="userSpaceOnUse" x1="-3" y1="74.55" x2="151.8" y2="74.55" spreadMethod="pad"><stop offset="0%" stop-color="#E38D44" stop-opacity="0"/><stop offset="68.235%" stop-color="#E38D44"/></linearGradient><linearGradient id="Gradient_17" gradientUnits="userSpaceOnUse" x1="-3" y1="74.5" x2="151.8" y2="74.5" spreadMethod="pad"><stop offset="0%" stop-color="#E38D44" stop-opacity="0"/><stop offset="68.235%" stop-color="#E38D44"/></linearGradient></defs><g id="Scene-1" overflow="visible"><g id="Symbol-99" transform="translate(275.2 183.4)"><path fill="url(#Gradient_13)" stroke="none" d="M215.1 -144.75L73.7 -143.95 -215.05 144.75 -74.45 144.75 215.1 -144.75Z"/><path fill="url(#Gradient_12)" stroke="none" d="M210.1 -65.4L85.15 -64.9 -91.1 111.65 33.3 111.65 210.1 -65.4Z"/></g><g id="Symbol-98" transform="translate(213.6 32.3)"><animateTransform attributeName="transform" additive="replace" type="translate" repeatCount="indefinite" dur="9.042s" keyTimes="0;.005;.009;.014;.018;.023;.028;.032;.037;.041;.046;.051;.055;.06;.065;.069;.074;.078;.083;.088;.092;.097;.101;.106;.111;.115;.12;.124;.129;.433;.438;.442;.447;.452;.456;.461;1" values="228.45,80.45;228.501,80.45;228.453,80.498;228.505,80.447;228.505,80.547;228.508,80.546;228.459,80.496;228.46,80.494;228.512,80.444;228.461,80.532;228.462,80.482;228.514,80.431;228.516,80.531;228.517,80.48;228.469,80.53;228.471,80.529;228.522,80.479;228.52,80.514;228.472,80.464;228.524,80.513;228.525,80.513;228.527,80.512;228.528,80.512;228.48,80.46;228.53,80.509;228.479,80.544;230.53,79.494;232.582,78.494;234.635,77.543;234.635,77.543;234.633,77.426;234.632,77.424;234.623,77.373;234.667,77.406;234.635,77.419;234.632,77.439;234.632,77.439"/><animateTransform attributeName="transform" additive="sum" type="rotate" repeatCount="indefinite" dur="9.042s" keyTimes="0;.005;.009;.014;.018;.023;.028;.032;.037;.041;.046;.051;.055;.06;.065;.069;.074;.078;.083;.088;.092;.097;.101;.106;.111;.115;.12;.124;.129;.438;.442;.447;.452;.456;.461;1" values="0,0,0;-.008,0,0;-.015,0,0;-.023,0,0;-.03,0,0;-.038,0,0;-.045,0,0;-.052,0,0;-.06,0,0;-.255,0,0;-.262,0,0;-.27,0,0;-.277,0,0;-.285,0,0;-.295,0,0;-.302,0,0;-.31,0,0;-.505,0,0;-.512,0,0;-.52,0,0;-.527,0,0;-.535,0,0;-.543,0,0;-.55,0,0;-.558,0,0;-.753,0,0;-.76,0,0;-.768,0,0;-.777,0,0;-.777,0,0;-.776,0,0;-6.761,0,0;-12.563,0,0;-5.036,0,0;2.294,0,0;2.294,0,0"/><animateTransform attributeName="transform" additive="sum" type="scale" repeatCount="indefinite" dur="9.042s" keyTimes="0;.442;.447;.456;.461;1" values="1,1;1,1;1,.999;1,.999;1,1;1,1"/><animateTransform attributeName="transform" additive="sum" type="translate" repeatCount="indefinite" dur="9.042s" keyTimes="0;.005;.009;.014;.018;.023;.028;.032;.037;.041;.046;.051;.055;.06;.069;.074;.078;.083;.088;.092;.106;.111;.115;.12;.124;.129;.433;.438;.442;.447;.452;.456;.461;1" values="-14.85,-48.15;-14.95,-48.15;-14.9,-48.25;-14.95,-48.15;-14.9,-48.3;-14.9,-48.2;-14.9,-48.25;-14.9,-48.2;-14.95,-48.2;-14.95,-48.25;-14.95,-48.25;-15,-48.15;-14.95,-48.25;-14.9,-48.25;-14.9,-48.25;-14.95,-48.25;-14.95,-48.2;-14.95,-48.25;-15,-48.2;-14.95,-48.25;-14.95,-48.25;-15,-48.2;-14.95,-48.25;-14.95,-48.2;-14.9,-48.25;-14.9,-48.3;-14.9,-48.3;-16.2,-48.15;-16.25,-48.2;-16.2,-48.05;-16.3,-48.15;-16.25,-48.2;-16.25,-48.15;-16.25,-48.15"/><path fill="#5B96CC" stroke="none" d="M8.45 41Q5.55 44.1 5.65 48.4 5.8 52.65 8.9 55.55 12 58.45 16.25 58.3 20.5 58.2 23.45 55.1 26.35 52 26.2 47.7 26.05 43.45 22.95 40.55 19.85 37.65 15.6 37.8 11.35 37.9 8.45 41Z"/><path id="Layer30_0_1_STROKES" stroke="#5B96CC" stroke-width="4.45" stroke-linejoin="miter" stroke-linecap="butt" stroke-miterlimit="10" fill="none" d="M14.8 46.5L7.85 5.55"/><path fill="#5B96CC" stroke="none" d="M10.6 6.8Q11.75 5.6 11.65 3.95 11.6 2.25 10.4 1.1 9.15 -.05 7.5 0 5.8 .1 4.65 1.3 3.55 2.5 3.6 4.2 3.65 5.85 4.85 7 6.05 8.15 7.75 8.1 9.45 8.05 10.6 6.8Z"/></g><g id="Symbol-97" transform="translate(229.15 40.05)"><animateTransform attributeName="transform" additive="replace" type="translate" repeatCount="indefinite" dur="9.042s" keyTimes="0;.115;.12;.124;.129;1" values="293.6,117.1;293.6,117.1;293.643,117.115;293.6,117.132;293.601,117.125;293.601,117.125"/><animateTransform attributeName="transform" additive="sum" type="rotate" repeatCount="indefinite" dur="9.042s" keyTimes="0;.115;.12;.124;.129;1" values="0,0,0;0,0,0;2.288,0,0;4.766,0,0;7.055,0,0;7.055,0,0"/><animateTransform attributeName="transform" additive="sum" type="scale" repeatCount="indefinite" dur="9.042s" keyTimes="0;.12;.124;1" values="1,1;1,1;1,.999;1,.999"/><animateTransform attributeName="transform" additive="sum" type="translate" repeatCount="indefinite" dur="9.042s" keyTimes="0;.115;.12;.124;.129;1" values="-64.45,-77.05;-64.45,-77.05;-64.55,-77.1;-64.45,-77.15;-64.45,-77.1;-64.45,-77.1"/><path fill="url(#Gradient_4)" stroke="none" d="M56.7 22.75Q54.3 11.55 44.85 5.05 35.35 -1.45 24.05 .4 13.35 2.15 6.5 10.5 -.35 18.85 0 29.7L6.15 77.05 64.45 65.85 56.7 22.75Z"/><path fill="url(#Gradient_3)" stroke="none" d="M6.65 37.6Q8.5 44.05 14.4 47.35 20.3 50.6 26.75 48.75 33.25 46.9 36.5 41.05 39.8 35.15 37.9 28.65 36.05 22.15 30.2 18.9 24.3 15.65 17.8 17.5 11.35 19.35 8.1 25.25 4.8 31.1 6.65 37.6Z"/><path fill="url(#Gradient_2)" stroke="none" d="M21.05 55.35L27.75 55.1Q28.4 55.1 28.8 54.6 29.25 54.15 29.25 53.5 29.2 52.9 28.75 52.45 28.3 52 27.65 52.05L20.95 52.3Q20.3 52.3 19.9 52.8 19.45 53.25 19.5 53.9 19.5 54.55 19.95 54.95 20.4 55.4 21.05 55.35Z"/></g><g id="Symbol-96" transform="translate(244 79.45)"><animateTransform attributeName="transform" additive="replace" type="translate" repeatCount="indefinite" dur="9.042s" keyTimes="0;.115;.12;.124;.129;.207;.212;.217;.221;.226;.23;.327;.332;.336;.341;.346;.35;.355;.59;.594;.599;.604;.608;.613;1" values="251.2,82.55;251.2,82.55;253.55,78.55;255.9,74.55;258.3,70.55;258.3,70.55;258.3,70.589;258.3,70.606;258.3,70.601;258.3,70.624;258.35,70.596;258.35,70.596;258.3,70.55;258.3,70.55;258.3,70.589;258.3,70.558;258.3,70.588;258.35,70.596;258.35,70.596;258.3,70.55;258.3,70.55;258.3,70.589;258.3,70.558;258.35,70.596;258.35,70.596"/><animateTransform attributeName="transform" additive="sum" type="scale" repeatCount="indefinite" dur="9.042s" keyTimes="0;.207;.212;.217;.221;.226;.23;.327;.332;.336;.341;.346;.35;.355;.59;.594;.599;.604;.608;.613;1" values="1,1;1,1;1,.597;1,.194;1,.462;1,.73;1,1;1,1;1,1;1,1;1,.597;1,.194;1,.596;1,1;1,1;1,1;1,1;1,.597;1,.194;1,1;1,1"/><animateTransform attributeName="transform" additive="sum" type="translate" repeatCount="indefinite" dur="9.042s" keyTimes="0;.207;.212;.217;.221;.226;.23;.327;.332;.336;.341;.346;.35;.355;.59;.594;.599;.604;.608;.613;1" values="-7.2,-3.1;-7.2,-3.1;-7.2,-3.25;-7.25,-3.65;-7.2,-3.25;-7.2,-3.25;-7.25,-3.2;-7.25,-3.2;-7.2,-3.1;-7.2,-3.1;-7.2,-3.25;-7.25,-3.4;-7.2,-3.25;-7.25,-3.2;-7.25,-3.2;-7.2,-3.1;-7.2,-3.1;-7.2,-3.25;-7.25,-3.4;-7.25,-3.2;-7.25,-3.2"/><path fill="#F0C34F" stroke="none" d="M5.3 5.35Q6.2 4.4 6.2 3.1 6.2 1.85 5.3 .9 4.4 0 3.1 0 1.85 0 .9 .9 0 1.85 0 3.1 0 4.4 .9 5.35 1.8 6.25 3.1 6.25 4.4 6.25 5.3 5.35Z"/><path fill="#F0C34F" stroke="none" d="M13.5 5.35Q14.4 4.4 14.4 3.1 14.4 1.85 13.5 .9 12.6 0 11.3 0 10.05 0 9.1 .9 8.2 1.85 8.2 3.1 8.2 4.4 9.1 5.35 10 6.25 11.3 6.25 12.6 6.25 13.5 5.35Z"/></g><g display="none"><g id="Symbol-94" transform="translate(183.4 119.75)"><path id="Layer27_0_1_STROKES" stroke="url(#Gradient_15)" stroke-width="11" stroke-linejoin="miter" stroke-linecap="butt" stroke-miterlimit="10" fill="none" d="M46.4 0Q34.05 1.8 22.1 10.15 -1.8 26.95 .15 59.9"/></g><animate attributeName="display" repeatCount="indefinite" dur="9.042s" keyTimes="0;.101;.249;1" values="none;inline;none;none"/></g><g display="none"><g id="Symbol-93" transform="translate(188.15 119.75)"><path id="Layer26_0_1_STROKES" stroke="url(#Gradient_14)" stroke-width="11" stroke-linejoin="miter" stroke-linecap="butt" stroke-miterlimit="10" fill="none" d="M41.65 0Q29.3 1.8 17.35 10.15 -6.55 26.95 2.5 60.5"/></g><animate attributeName="display" repeatCount="indefinite" dur="9.042s" keyTimes="0;.041;.101;.249;1" values="none;inline;none;inline;inline"/></g><g><g id="Symbol-92" transform="translate(183.4 119.75)"><path id="Layer25_0_1_STROKES" stroke="url(#Gradient_15)" stroke-width="11" stroke-linejoin="miter" stroke-linecap="butt" stroke-miterlimit="10" fill="none" d="M46.4 0Q34.05 1.8 22.1 10.15 -1.8 26.95 .15 59.9"/></g><animate attributeName="display" repeatCount="indefinite" dur="9.042s" keyTimes="0;.041;1" values="inline;none;none"/></g><g id="Symbol-91" transform="translate(194.45 105.25)"><path id="Layer50_0_1_STROKES" stroke="url(#Gradient_9)" stroke-width="11" stroke-linejoin="miter" stroke-linecap="butt" stroke-miterlimit="10" fill="none" d="M41.1 100.75L38.55 105.45Q35.65 111.8 33.65 120 27.25 146.2 32.6 181.1"/><path id="Layer51_0_1_STROKES" stroke="url(#Gradient_8)" stroke-width="11" stroke-linejoin="miter" stroke-linecap="butt" stroke-miterlimit="10" fill="none" d="M86.6 99.45L89.15 102.75Q92.15 107.4 94.55 114.35 102.1 136.55 100.35 173.1"/><path fill="url(#Gradient_7)" stroke="none" d="M32.95 2.55L15.45 26.1 11.8 90.35Q11.45 96.15 15.35 100.4 19.25 104.7 25.05 104.9L91.5 107 89.25 0 32.95 2.55Z"/><path fill="url(#Gradient_6)" stroke="none" d="M106.6 1L89.25 0 74.15 23.8 72.45 86.7Q72.2 94.85 77.8 100.8 83.35 106.75 91.5 107 100.6 107.25 107.1 100.9 113.65 94.55 113.55 85.45L113.25 42.75Q112.9 25.5 109.7 11.55L106.6 1Z"/><path id="Layer54_0_1_STROKES" stroke="#5B96CC" stroke-width="5.65" stroke-linejoin="miter" stroke-linecap="butt" stroke-miterlimit="10" fill="none" d="M12.95 80.45L113.55 80.7"/><path fill="#90C5E9" stroke="none" d="M57.7 34.25Q56.45 33 54.7 33.05L30.4 33.65Q28.75 33.7 27.6 34.85 26.45 36 26.4 37.65L25.6 62.2Q25.55 63.95 26.8 65.25 28.05 66.5 29.75 66.45L54.35 66.2Q56 66.15 57.2 65 58.35 63.85 58.4 62.15L58.9 37.25Q58.95 35.5 57.7 34.25Z"/><path fill="#244173" stroke="none" d="M26.85 169.35Q15.05 169.35 6.35 178.15 2 182.55 0 186.95L44.5 186.95Q44.5 179.65 39.35 174.5 34.15 169.35 26.85 169.35Z"/><path fill="#244173" stroke="none" d="M100.65 169.35Q93.35 169.35 88.15 174.5 83 179.65 83 186.95L121.3 186.95Q120.85 182.55 118.05 178.15 112.45 169.35 100.65 169.35Z"/><path id="Layer58_0_1_STROKES" stroke="#5B96CC" stroke-width="5.65" stroke-linejoin="miter" stroke-linecap="butt" stroke-miterlimit="10" fill="none" d="M83 186.9L121.3 186.9"/><path id="Layer59_0_1_STROKES" stroke="#5B96CC" stroke-width="5.65" stroke-linejoin="miter" stroke-linecap="butt" stroke-miterlimit="10" fill="none" d="M44.5 186.9L0 186.9"/><path fill="url(#Gradient_5)" stroke="none" d="M32.95 2.55L15.45 26.1 74.15 23.8 89.25 0 32.95 2.55Z"/></g><g display="none"><g id="Symbol-89" transform="translate(56.15 160.45)"><path id="Layer13_0_1_STROKES" stroke="url(#Gradient_16)" stroke-width="6" stroke-linejoin="miter" stroke-linecap="round" stroke-miterlimit="10" fill="none" d="M0 128.3L65.55 128.3Q76.05 128.3 83.5 120.85 90.95 113.4 90.95 102.9L90.95 46.2Q90.95 35.65 98.4 28.25 105.8 20.8 116.35 20.8L148.8 20.8"/><path fill="#244173" stroke="none" d="M140.8 18.55Q140.15 13 135.7 9.55 131.3 6.15 125.75 6.8 120.2 7.5 116.75 11.9 113.3 16.3 114 21.9 114.7 27.45 119.1 30.9 123.5 34.35 129.05 33.65 134.6 32.95 138.05 28.5 141.5 24.1 140.8 18.55Z"/><path fill="#E38D44" stroke="none" d="M164.1 34.3L164.1 .05 152.65 .05Q145.55 .05 140.55 5.05 135.55 10.05 135.55 17.15 135.55 24.25 140.55 29.3 145.55 34.3 152.65 34.3L164.1 34.3Z"/><path fill="#DF623B" stroke="none" d="M173.65 17.15Q173.65 10.05 170.85 5.05 168.05 .05 164.1 .05 160.15 .05 157.35 5.05 154.55 10.05 154.55 17.15 154.55 24.25 157.35 29.3 160.15 34.3 164.1 34.3 168.05 34.3 170.85 29.3 173.65 24.25 173.65 17.15Z"/><path fill="#E38D44" stroke="none" d="M183.05 11.65Q183.85 10.9 183.85 9.8 183.85 8.7 183.05 7.95 182.3 7.15 181.2 7.15L166.15 7.15Q165.05 7.15 164.3 7.95 163.5 8.7 163.5 9.8 163.5 10.9 164.3 11.65 165.05 12.45 166.15 12.45L181.2 12.45Q182.3 12.45 183.05 11.65Z"/><path fill="#E38D44" stroke="none" d="M183.85 24.4Q183.85 23.3 183.05 22.55 182.3 21.75 181.2 21.75L166.15 21.75Q165.05 21.75 164.3 22.55 163.5 23.3 163.5 24.4 163.5 25.5 164.3 26.25 165.05 27.05 166.15 27.05L181.2 27.05Q182.3 27.05 183.05 26.25 183.85 25.5 183.85 24.4Z"/></g><animate attributeName="display" repeatCount="indefinite" dur="9.042s" keyTimes="0;.101;.249;1" values="none;inline;none;none"/></g><g display="none"><g id="Symbol-88" transform="translate(60.15 160.45)"><path id="Layer7_0_1_STROKES" stroke="url(#Gradient_16)" stroke-width="6" stroke-linejoin="miter" stroke-linecap="round" stroke-miterlimit="10" fill="none" d="M0 128.3L65.55 128.3Q76.05 128.3 83.5 120.85 90.95 113.4 90.95 102.9L90.95 46.2Q90.95 35.65 98.4 28.25 105.8 20.8 116.35 20.8L148.8 20.8"/><path fill="#244173" stroke="none" d="M140.8 18.55Q140.15 13 135.7 9.55 131.3 6.15 125.75 6.8 120.2 7.5 116.75 11.9 113.3 16.3 114 21.9 114.7 27.45 119.1 30.9 123.5 34.35 129.05 33.65 134.6 32.95 138.05 28.5 141.5 24.1 140.8 18.55Z"/><path fill="#E38D44" stroke="none" d="M164.1 34.3L164.1 .05 152.65 .05Q145.55 .05 140.55 5.05 135.55 10.05 135.55 17.15 135.55 24.25 140.55 29.3 145.55 34.3 152.65 34.3L164.1 34.3Z"/><path fill="#DF623B" stroke="none" d="M173.65 17.15Q173.65 10.05 170.85 5.05 168.05 .05 164.1 .05 160.15 .05 157.35 5.05 154.55 10.05 154.55 17.15 154.55 24.25 157.35 29.3 160.15 34.3 164.1 34.3 168.05 34.3 170.85 29.3 173.65 24.25 173.65 17.15Z"/><path fill="#E38D44" stroke="none" d="M183.05 11.65Q183.85 10.9 183.85 9.8 183.85 8.7 183.05 7.95 182.3 7.15 181.2 7.15L166.15 7.15Q165.05 7.15 164.3 7.95 163.5 8.7 163.5 9.8 163.5 10.9 164.3 11.65 165.05 12.45 166.15 12.45L181.2 12.45Q182.3 12.45 183.05 11.65Z"/><path fill="#E38D44" stroke="none" d="M183.85 24.4Q183.85 23.3 183.05 22.55 182.3 21.75 181.2 21.75L166.15 21.75Q165.05 21.75 164.3 22.55 163.5 23.3 163.5 24.4 163.5 25.5 164.3 26.25 165.05 27.05 166.15 27.05L181.2 27.05Q182.3 27.05 183.05 26.25 183.85 25.5 183.85 24.4Z"/></g><animate attributeName="display" repeatCount="indefinite" dur="9.042s" keyTimes="0;.041;.101;.249;1" values="none;inline;none;inline;inline"/></g><g><g id="Symbol-87" transform="translate(55.75 160.45)"><path id="Layer1_0_1_STROKES" stroke="url(#Gradient_17)" stroke-width="6" stroke-linejoin="miter" stroke-linecap="round" stroke-miterlimit="10" fill="none" d="M0 128.25L65.55 128.25Q76.05 128.25 83.5 120.8 90.95 113.35 90.95 102.85L90.95 46.15Q90.95 35.6 98.4 28.2 105.8 20.75 116.35 20.75L148.8 20.75"/><path fill="#244173" stroke="none" d="M140.8 18.55Q140.15 13 135.7 9.55 131.3 6.15 125.75 6.8 120.2 7.5 116.75 11.9 113.3 16.3 114 21.9 114.7 27.45 119.1 30.9 123.5 34.35 129.05 33.65 134.6 32.95 138.05 28.5 141.5 24.1 140.8 18.55Z"/><path fill="#E38D44" stroke="none" d="M164.1 34.3L164.1 .05 152.65 .05Q145.55 .05 140.55 5.05 135.55 10.05 135.55 17.15 135.55 24.25 140.55 29.3 145.55 34.3 152.65 34.3L164.1 34.3Z"/><path fill="#DF623B" stroke="none" d="M173.65 17.15Q173.65 10.05 170.85 5.05 168.05 .05 164.1 .05 160.15 .05 157.35 5.05 154.55 10.05 154.55 17.15 154.55 24.25 157.35 29.3 160.15 34.3 164.1 34.3 168.05 34.3 170.85 29.3 173.65 24.25 173.65 17.15Z"/><path fill="#E38D44" stroke="none" d="M183.05 11.65Q183.85 10.9 183.85 9.8 183.85 8.7 183.05 7.95 182.3 7.15 181.2 7.15L166.15 7.15Q165.05 7.15 164.3 7.95 163.5 8.7 163.5 9.8 163.5 10.9 164.3 11.65 165.05 12.45 166.15 12.45L181.2 12.45Q182.3 12.45 183.05 11.65Z"/><path fill="#E38D44" stroke="none" d="M183.85 24.4Q183.85 23.3 183.05 22.55 182.3 21.75 181.2 21.75L166.15 21.75Q165.05 21.75 164.3 22.55 163.5 23.3 163.5 24.4 163.5 25.5 164.3 26.25 165.05 27.05 166.15 27.05L181.2 27.05Q182.3 27.05 183.05 26.25 183.85 25.5 183.85 24.4Z"/></g><animate attributeName="display" repeatCount="indefinite" dur="9.042s" keyTimes="0;.041;1" values="inline;none;none"/></g><g id="Symbol-86" transform="translate(224.25 140.85)"><g id="Symbol-105"><g display="none" id="Layer47_0_FILL"><path fill="#D2E6F5" stroke="none" d="M3.1 3.8Q3.6 3.25 3.6 2.45 3.6 1.65 3.1 1.05 2.55 .5 1.8 .55 1.05 .6 .55 1.2 0 1.75 0 2.55 0 3.35 .55 3.9 1.05 4.45 1.8 4.4 2.55 4.4 3.1 3.8Z"/><path fill="#D2E6F5" stroke="none" d="M8.7 3.6Q9.3 3 9.3 2.15 9.3 1.35 8.7 .75 8.15 .2 7.35 .25 6.55 .3 6 .9 5.45 1.5 5.45 2.3 5.45 3.1 6 3.7 6.55 4.25 7.35 4.25 8.15 4.2 8.7 3.6Z"/><path fill="#D2E6F5" stroke="none" d="M14.75 3.45Q15.35 2.8 15.35 1.95 15.35 1.1 14.75 .5 14.15 -.1 13.3 -.05 12.45 0 11.85 .6 11.25 1.25 11.25 2.1 11.25 2.95 11.85 3.5 12.45 4.1 13.3 4.05 14.15 4.05 14.75 3.45Z"/><animate attributeName="display" repeatCount="indefinite" dur="3s" keyTimes="0;.486;1" values="none;inline;inline"/></g><g display="none" id="Layer45_0_FILL"><path fill="#D2E6F5" stroke="none" d="M8.65 3.65Q9.25 3.05 9.25 2.2 9.25 1.4 8.65 .8 8.1 .25 7.3 .3 6.5 .35 5.95 .95 5.4 1.55 5.4 2.35 5.4 3.15 5.95 3.75 6.5 4.3 7.3 4.3 8.1 4.25 8.65 3.65Z"/><path fill="#D2E6F5" stroke="none" d="M14.75 3.5Q15.35 2.85 15.35 2 15.35 1.15 14.75 .55 14.15 -.05 13.3 0 12.45 .05 11.85 .65 11.25 1.3 11.25 2.15 11.25 3 11.85 3.55 12.45 4.15 13.3 4.1 14.15 4.1 14.75 3.5Z"/><animate attributeName="display" repeatCount="indefinite" dur="3s" keyTimes="0;.347;.486;1" values="none;inline;none;none"/></g><g display="none" id="Layer43_0_FILL"><path fill="#D2E6F5" stroke="none" d="M3.1 3.8Q3.6 3.25 3.6 2.45 3.6 1.65 3.1 1.05 2.55 .5 1.8 .55 1.05 .6 .55 1.2 0 1.75 0 2.55 0 3.35 .55 3.9 1.05 4.45 1.8 4.4 2.55 4.4 3.1 3.8Z"/><path fill="#D2E6F5" stroke="none" d="M8.65 3.6Q9.25 3 9.25 2.15 9.25 1.35 8.65 .75 8.1 .2 7.3 .25 6.5 .3 5.95 .9 5.4 1.5 5.4 2.3 5.4 3.1 5.95 3.7 6.5 4.25 7.3 4.25 8.1 4.2 8.65 3.6Z"/><animate attributeName="display" repeatCount="indefinite" dur="3s" keyTimes="0;.208;.347;1" values="none;inline;none;none"/></g><g display="none" id="Layer41_0_FILL"><path fill="#D2E6F5" stroke="none" d="M3.1 3.8Q3.6 3.25 3.6 2.45 3.6 1.65 3.1 1.05 2.55 .5 1.8 .55 1.05 .6 .55 1.2 0 1.75 0 2.55 0 3.35 .55 3.9 1.05 4.45 1.8 4.4 2.55 4.4 3.1 3.8Z"/><path fill="#D2E6F5" stroke="none" d="M14.75 3.45Q15.35 2.8 15.35 1.95 15.35 1.1 14.75 .5 14.15 -.1 13.3 -.05 12.45 0 11.85 .6 11.25 1.25 11.25 2.1 11.25 2.95 11.85 3.5 12.45 4.1 13.3 4.05 14.15 4.05 14.75 3.45Z"/><animate attributeName="display" repeatCount="indefinite" dur="3s" keyTimes="0;.097;.208;1" values="none;inline;none;none"/></g><g id="Layer38_0_FILL"><path fill="#D2E6F5" stroke="none" d="M3.1 3.8Q3.6 3.25 3.6 2.45 3.6 1.65 3.1 1.05 2.55 .5 1.8 .55 1.05 .6 .55 1.2 0 1.75 0 2.55 0 3.35 .55 3.9 1.05 4.45 1.8 4.4 2.55 4.4 3.1 3.8Z"/><path fill="#D2E6F5" stroke="none" d="M8.7 3.6Q9.3 3 9.3 2.15 9.3 1.35 8.7 .75 8.15 .2 7.35 .25 6.55 .3 6 .9 5.45 1.5 5.45 2.3 5.45 3.1 6 3.7 6.55 4.25 7.35 4.25 8.15 4.2 8.7 3.6Z"/><path fill="#D2E6F5" stroke="none" d="M14.75 3.45Q15.35 2.8 15.35 1.95 15.35 1.1 14.75 .5 14.15 -.1 13.3 -.05 12.45 0 11.85 .6 11.25 1.25 11.25 2.1 11.25 2.95 11.85 3.5 12.45 4.1 13.3 4.05 14.15 4.05 14.75 3.45Z"/><animate attributeName="display" repeatCount="indefinite" dur="3s" keyTimes="0;.097;1" values="inline;none;none"/></g></g></g><g display="none"><g id="Symbol-84" transform="translate(278.95 120.4)"><path id="Layer36_0_1_STROKES" stroke="url(#Gradient_11)" stroke-width="11" stroke-linejoin="miter" stroke-linecap="round" stroke-miterlimit="10" fill="none" d="M15.65 0L21.45 3.85Q27.65 9 29.75 15.15 36.55 34.95 0 58"/></g><animate attributeName="display" repeatCount="indefinite" dur="9.042s" keyTimes="0;.101;.249;1" values="none;inline;none;none"/></g><g display="none"><g id="Symbol-83" transform="translate(273.45 120.4)"><path id="Layer35_0_1_STROKES" stroke="url(#Gradient_10)" stroke-width="11" stroke-linejoin="miter" stroke-linecap="round" stroke-miterlimit="10" fill="none" d="M21.15 0L26.95 3.85Q33.15 9 35.25 15.15 42.05 34.95 0 57.75"/></g><animate attributeName="display" repeatCount="indefinite" dur="9.042s" keyTimes="0;.041;.101;.249;1" values="none;inline;none;inline;inline"/></g><g><g id="Symbol-82" transform="translate(278.95 120.4)"><path id="Layer34_0_1_STROKES" stroke="url(#Gradient_11)" stroke-width="11" stroke-linejoin="miter" stroke-linecap="round" stroke-miterlimit="10" fill="none" d="M15.65 0L21.45 3.85Q27.65 9 29.75 15.15 36.55 34.95 0 58"/></g><animate attributeName="display" repeatCount="indefinite" dur="9.042s" keyTimes="0;.041;1" values="inline;none;none"/></g><g id="Symbol-81" transform="translate(361.35 223.45)"><animateTransform attributeName="transform" additive="replace" type="translate" repeatCount="indefinite" dur="9.042s" keyTimes="0;.037;.041;.097;.101;.244;.249;1" values="361.35,223.45;361.35,223.45;356.2,223.45;356.2,223.45;360.85,223.45;360.85,223.45;354.75,223.45;354.75,223.45"/><path id="Layer66_0_1_STROKES" stroke="url(#Gradient_1)" stroke-width="6" stroke-linejoin="miter" stroke-linecap="round" stroke-miterlimit="10" fill="none" d="M127.05 63.05L-13.25 63.05Q-23.75 63.05 -31.15 55.6 -38.6 48.2 -38.6 37.65L-38.6 -19.05Q-38.6 -29.55 -46.05 -36.95 -53.5 -44.4 -64 -44.4L-96.5 -44.4"/><path fill="#E38D44" stroke="none" d="M-94 -58Q-99 -63 -106.1 -63L-117.5 -63 -117.5 -28.75 -106.1 -28.75Q-99 -28.75 -94 -33.75 -88.95 -38.8 -88.95 -45.9 -88.95 -53 -94 -58Z"/><path fill="#E38D44" stroke="none" d="M-110.8 -58Q-113.6 -63 -117.55 -63 -121.5 -63 -124.25 -58 -127.05 -53 -127.05 -45.9 -127.05 -38.8 -124.25 -33.75 -121.5 -28.75 -117.55 -28.75 -113.6 -28.75 -110.8 -33.75 -108 -38.75 -108 -45.9 -108 -53 -110.8 -58Z"/><g id="FlashAICB_hand-and-plug_.__3CClip-Group.__3E" transform="translate(-127.8 -64.65)"><g mask="url(#mask_)"><path id="Layer71_0_1_STROKES" stroke="#DF623B" stroke-width="2" stroke-linejoin="miter" stroke-linecap="butt" stroke-miterlimit="10" fill="none" d="M15.35 36.55Q11.4 36.55 8.6 31.35 5.8 26.15 5.8 18.75 5.8 11.4 8.6 6.2 11.4 1 15.35 1"/></g><mask id="mask_"><g><g><g id="Layer70_0_FILL"><path fill="#FFF" stroke="none" d="M0 35.9L19.05 35.9 19.05 1.65 0 1.65 0 35.9Z" fill-opacity="1"/></g></g></g></mask></g><path fill="#244173" stroke="none" d="M-86.75 -57.1Q-92.25 -56.2 -95.55 -51.65 -98.85 -47.15 -97.95 -41.6 -97.1 -36.1 -92.55 -32.8 -88 -29.5 -82.5 -30.4 -76.95 -31.25 -73.65 -35.8 -70.4 -40.3 -71.25 -45.85 -72.15 -51.4 -76.65 -54.7 -81.2 -57.95 -86.75 -57.1Z"/></g></g></svg>