<svg id="Layer_1" data-name="Layer 1" xmlns="http://www.w3.org/2000/svg" xmlns:xlink="http://www.w3.org/1999/xlink" width="563.97" height="290.99" viewBox="0 0 563.97 290.99"><defs><style>.cls-1{fill:url(#linear-gradient);}.cls-2{fill:url(#linear-gradient-2);}.cls-15,.cls-16,.cls-3{fill-rule:evenodd;}.cls-3{fill:url(#linear-gradient-3);}.cls-4{fill:none;stroke:#0091da;}.cls-4,.cls-5{stroke-linecap:round;stroke-linejoin:round;stroke-width:1.62px;}.cls-5{fill:#218fcf;stroke:#218fcf;}.cls-6{fill:#001559;}.cls-7{fill:url(#linear-gradient-4);}.cls-16,.cls-8{fill:#0091da;}.cls-9{fill:url(#linear-gradient-5);}.cls-10{fill:#daa873;}.cls-11{fill:#006fb1;}.cls-12{fill:#00c1d5;}.cls-13{fill:url(#linear-gradient-6);}.cls-14,.cls-15{fill:#fff;}</style><linearGradient id="linear-gradient" x1="351.82" y1="67.75" x2="351.82" y2="283.65" gradientUnits="userSpaceOnUse"><stop offset="0.17" stop-color="#0091da" stop-opacity="0"/><stop offset="0.39" stop-color="#0091da" stop-opacity="0.15"/><stop offset="0.64" stop-color="#0091da" stop-opacity="0.29"/><stop offset="0.85" stop-color="#0091da" stop-opacity="0.37"/><stop offset="1" stop-color="#0091da" stop-opacity="0.4"/></linearGradient><linearGradient id="linear-gradient-2" x1="295.6" y1="14.37" x2="295.6" y2="248.78" gradientUnits="userSpaceOnUse"><stop offset="0" stop-color="#00c1d5" stop-opacity="0"/><stop offset="0.16" stop-color="#00c1d5" stop-opacity="0.22"/><stop offset="0.5" stop-color="#00c1d5" stop-opacity="0.7"/><stop offset="0.59" stop-color="#00c1d5" stop-opacity="0.6"/><stop offset="0.78" stop-color="#00c1d5" stop-opacity="0.34"/><stop offset="1" stop-color="#00c1d5" stop-opacity="0"/></linearGradient><linearGradient id="linear-gradient-3" x1="141.67" y1="44.45" x2="342.03" y2="244.81" gradientUnits="userSpaceOnUse"><stop offset="0" stop-color="#00c1d5"/><stop offset="0.08" stop-color="#45d2e0"/><stop offset="0.16" stop-color="#86e2eb"/><stop offset="0.24" stop-color="#baeef4"/><stop offset="0.31" stop-color="#e0f7fa"/><stop offset="0.36" stop-color="#f7fdfe"/><stop offset="0.39" stop-color="#fff"/></linearGradient><linearGradient id="linear-gradient-4" x1="275.99" y1="96.83" x2="275.99" y2="283.79" gradientUnits="userSpaceOnUse"><stop offset="0" stop-color="#1e4489"/><stop offset="0.14" stop-color="#1f5b9e"/><stop offset="0.39" stop-color="#2081c2"/><stop offset="0.53" stop-color="#218fcf"/></linearGradient><linearGradient id="linear-gradient-5" x1="324.74" y1="192.59" x2="324.74" y2="283.15" gradientUnits="userSpaceOnUse"><stop offset="0" stop-color="#0091da"/><stop offset="0.19" stop-color="#028bd4"/><stop offset="0.46" stop-color="#0979c2"/><stop offset="0.77" stop-color="#135ca5"/><stop offset="1" stop-color="#1d428a"/></linearGradient><linearGradient id="linear-gradient-6" x1="295.63" y1="154.36" x2="329.41" y2="188.14" gradientUnits="userSpaceOnUse"><stop offset="0.28" stop-color="#fff"/><stop offset="1" stop-color="#00c1d5"/></linearGradient></defs><polygon class="cls-1" points="547.05 67.75 331.16 283.65 156.58 283.65 372.19 68.04 547.05 67.75"/><polygon class="cls-2" points="488.48 14.37 254.07 248.78 102.72 248.78 336.79 14.71 488.48 14.37"/><path class="cls-3" d="M404,106.86h0a81.6,81.6,0,0,0-71.76-22.57A98.32,98.32,0,0,0,141.6,87.94H127.71a71.26,71.26,0,0,0-71.27,71.26h371.2A81.13,81.13,0,0,0,404,106.86Z"/><circle class="cls-4" cx="186.59" cy="135.53" r="9.61"/><line class="cls-4" x1="196.2" y1="135.53" x2="278.95" y2="135.53"/><circle class="cls-4" cx="202.91" cy="65.23" r="27.21"/><path class="cls-4" d="M176.07,60.61s11.61,9.71,36.88,9.57"/><path class="cls-4" d="M190.1,56.36s-8.79.45-14,3.31"/><path class="cls-4" d="M217.62,42a27.24,27.24,0,0,1-24.74,38.57h-.68"/><path class="cls-4" d="M220.1,86.74a38.44,38.44,0,0,1-4.73-2.43A36.75,36.75,0,0,1,200.87,38"/><path class="cls-4" d="M198.37,51.27a36.8,36.8,0,0,1,31.17,16.41"/><path class="cls-4" d="M218.36,77.5a50.83,50.83,0,0,1,1.83,8.39"/><circle class="cls-5" cx="217.8" cy="42.47" r="2.04"/><circle class="cls-5" cx="214.12" cy="70.09" r="1.88"/><circle class="cls-5" cx="192.2" cy="80.42" r="2.09"/><circle class="cls-5" cx="197.26" cy="51.3" r="2.01"/><circle class="cls-5" cx="229.92" cy="68.37" r="2.03"/><circle class="cls-5" cx="175.56" cy="60.19" r="2.5"/><circle class="cls-4" cx="190.1" cy="56.36" r="1.62"/><circle class="cls-5" cx="218.36" cy="77.5" r="1.62"/><circle class="cls-5" cx="219.84" cy="86.54" r="2.08"/><path class="cls-4" d="M67.69,52.54h49.94V66.36H67.69Zm0,32.43h49.94V71.15H67.69Zm0,18.6h49.94V89.75H67.69Z"/><line class="cls-4" x1="69.9" y1="66.36" x2="69.9" y2="71.15"/><line class="cls-4" x1="115.41" y1="66.36" x2="115.41" y2="71.15"/><line class="cls-4" x1="69.9" y1="84.97" x2="69.9" y2="89.75"/><line class="cls-4" x1="115.41" y1="84.97" x2="115.41" y2="89.75"/><circle class="cls-4" cx="145.63" cy="92.7" r="11.65"/><circle class="cls-4" cx="84.79" cy="130.01" r="11.65"/><line class="cls-4" x1="42.53" y1="130.15" x2="77.96" y2="130.15"/><line class="cls-4" x1="145.63" y1="34.95" x2="145.63" y2="80.88"/><path class="cls-4" d="M107.33,119.94v20.6a36.22,36.22,0,0,0,25.23,34.51,36.22,36.22,0,0,0,25.23-34.51v-20.6Z"/><line class="cls-4" x1="132.56" y1="175.05" x2="132.56" y2="119.94"/><rect class="cls-6" x="278.95" y="96.83" width="66.1" height="186.96"/><rect class="cls-7" x="272.86" y="96.83" width="6.26" height="186.96"/><circle class="cls-4" cx="84.79" cy="130.15" r="6.68"/><circle class="cls-4" cx="35.85" cy="130.15" r="6.68"/><circle class="cls-4" cx="145.63" cy="27.53" r="7.41"/><circle class="cls-4" cx="84.79" cy="189.45" r="7.41"/><path class="cls-8" d="M296.05,192.59l-5.62,40.1a85.4,85.4,0,0,0-.75,15l1,27a4,4,0,0,1-1.73,3.46l-3.33,2.31a4,4,0,0,0-1.73,3.31h16.53V242l18.94-49.41Z"/><path class="cls-9" d="M325,192.59l.92,43.65a81.61,81.61,0,0,1,7.81,12.06c3,6,11.36,27.51,11.36,27.51l-12.75,7.34h0a3.88,3.88,0,0,1-.26-3.68l1.89-4.16a3.9,3.9,0,0,0-.27-3.7l-18.92-29.43s-10.31-40.3-10.31-49.59Z"/><path class="cls-10" d="M314.19,149.21s-2.47-5.07.4-12.41c3.18-8.11-11.17.5-11.17.5L302.34,148Z"/><path class="cls-10" d="M304.82,142.71h0c-5-.51-8.86-3-8.36-8l.59-5.76a9.14,9.14,0,0,1,10-8.16h0a9.15,9.15,0,0,1,8.16,10l-.59,5.77C314.56,137.16,309.82,143.21,304.82,142.71Z"/><path class="cls-11" d="M297.94,125.8c-1.28-1.73-.19-3.7,1.85-4.41,2.36-.81,5.06-2.07,8.31-1.74a9.12,9.12,0,0,1,8.3,9.11,26.17,26.17,0,0,1-2,8.45l-8.07-4.27.33-4.09a2.9,2.9,0,0,0-3.07-3.13l-5.69.08Z"/><ellipse class="cls-10" cx="309.4" cy="134.38" rx="2.96" ry="2.2" transform="translate(144.53 428.66) rotate(-84.22)"/><path class="cls-12" d="M296.83,155.08l-9.06,21.66-16.56,8.45,2.32,5.83,18.28-5.81s13.55-10.42,16.18-20.13C311.05,153.81,296.83,155.08,296.83,155.08Z"/><path class="cls-13" d="M325,145.86v46.73H296.05V159.67a13.8,13.8,0,0,1,13.8-13.81Z"/><path class="cls-14" d="M339,176l-14-30.13s-12-1-14.36,9c0,0,9.82,10.66,21,23.11Z"/><path class="cls-15" d="M339,197.86V176l-8.82-5.68v11.25c0,7.45,2.93,16.3,2.93,16.3Z"/><path class="cls-10" d="M333.11,197.86v8.67l7.52-1.13s.83-5.35-2.61-7.54Z"/><path class="cls-10" d="M271.21,185.19l-8.15,3.28,3.92,6.62s5.32-1.24,6.08-5.3Z"/><polygon class="cls-14" points="314.75 141.63 305.4 144.15 302.42 147.2 302.66 144.87 301.64 145.13 300.71 149.86 316.98 146.55 314.75 141.63"/><path class="cls-10" d="M265.83,189.88l-.87-3.71,4.16-1.62a1.78,1.78,0,0,1,2.31,1l.76,2Z"/><path class="cls-10" d="M335.33,204.78l-3.76-.74,0-4.42a1.78,1.78,0,0,1,1.8-1.76l2.13,0Z"/><rect class="cls-4" x="213.49" y="109.6" width="32.89" height="80.1"/><circle class="cls-4" cx="219.25" cy="115.55" r="1.35"/><line class="cls-4" x1="213.49" y1="127.46" x2="246.38" y2="127.46"/><line class="cls-4" x1="213.49" y1="135.39" x2="246.38" y2="135.39"/><line class="cls-4" x1="213.49" y1="143.33" x2="246.38" y2="143.33"/><line class="cls-4" x1="213.49" y1="151.27" x2="246.38" y2="151.27"/><line class="cls-4" x1="213.49" y1="159.2" x2="246.38" y2="159.2"/><line class="cls-4" x1="213.49" y1="167.14" x2="246.38" y2="167.14"/><line class="cls-4" x1="213.49" y1="175.07" x2="246.38" y2="175.07"/><line class="cls-4" x1="153.05" y1="101.7" x2="179.95" y2="128.6"/><line class="cls-4" x1="84.79" y1="141.66" x2="84.79" y2="181.48"/><circle class="cls-4" cx="105.67" cy="27.53" r="1.66"/><circle class="cls-4" cx="46.54" cy="58.02" r="1.66"/><circle class="cls-4" cx="18.23" cy="86.74" r="1.66"/><circle class="cls-4" cx="115.41" cy="186.37" r="1.66"/><circle class="cls-4" cx="46.54" cy="173.67" r="1.66"/><circle class="cls-4" cx="249.48" cy="87.36" r="1.66"/><polygon class="cls-16" points="342.5 96.83 384.5 78.06 384.5 283.79 342.5 283.79 342.5 96.83"/><rect class="cls-12" x="384.5" y="78.06" width="6.93" height="205.73"/></svg>