<svg id="f5addebc-a049-4079-93ae-25d082677ef5" data-name="Layer 1" xmlns="http://www.w3.org/2000/svg" xmlns:xlink="http://www.w3.org/1999/xlink" width="563.97" height="290.99" viewBox="0 0 563.97 290.99"><defs><linearGradient id="edba5524-fdd1-43f4-9c31-5aeb81e3acf1" x1="475.27" y1="52.25" x2="259.62" y2="267.9" gradientUnits="userSpaceOnUse"><stop offset="0.17" stop-color="#0091da" stop-opacity="0"/><stop offset="0.39" stop-color="#0091da" stop-opacity="0.15"/><stop offset="0.64" stop-color="#0091da" stop-opacity="0.29"/><stop offset="0.85" stop-color="#0091da" stop-opacity="0.37"/><stop offset="1" stop-color="#0091da" stop-opacity="0.4"/></linearGradient><linearGradient id="f7bf1ff7-c1e4-44db-bb44-64512c93ed94" x1="398.68" y1="17.32" x2="398.68" y2="239.43" gradientUnits="userSpaceOnUse"><stop offset="0" stop-color="#00c1d5" stop-opacity="0"/><stop offset="0.16" stop-color="#00c1d5" stop-opacity="0.22"/><stop offset="0.5" stop-color="#00c1d5" stop-opacity="0.7"/><stop offset="0.59" stop-color="#00c1d5" stop-opacity="0.6"/><stop offset="0.78" stop-color="#00c1d5" stop-opacity="0.34"/><stop offset="1" stop-color="#00c1d5" stop-opacity="0"/></linearGradient><linearGradient id="ad59112f-8b60-487a-ba22-86d2e4d00a07" x1="223.18" y1="17.32" x2="223.18" y2="239.43" xlink:href="#f7bf1ff7-c1e4-44db-bb44-64512c93ed94"/><linearGradient id="b30ab445-72d9-4c7c-84d8-a3c3b3eae3d3" x1="66.88" y1="-30.31" x2="286.06" y2="188.87" gradientUnits="userSpaceOnUse"><stop offset="0" stop-color="#00c1d5"/><stop offset="0.64" stop-color="#45d2e0" stop-opacity="0"/></linearGradient><linearGradient id="e37262dc-400a-4f78-98b9-d921eb0c2a92" x1="324.78" y1="99.41" x2="324.78" y2="8.85" gradientTransform="matrix(1, 0, 0, -1, 0, 292)" gradientUnits="userSpaceOnUse"><stop offset="0" stop-color="#0091da"/><stop offset="0.19" stop-color="#028bd4"/><stop offset="0.46" stop-color="#0979c2"/><stop offset="0.77" stop-color="#135ca5"/><stop offset="1" stop-color="#1d428a"/></linearGradient><linearGradient id="b23ce470-53e7-4822-a7cc-b2426c6e528c" x1="295.65" y1="137.65" x2="329.44" y2="103.85" gradientTransform="matrix(1, 0, 0, -1, 0, 292)" gradientUnits="userSpaceOnUse"><stop offset="0.28" stop-color="#fff"/><stop offset="1" stop-color="#00c1d5"/></linearGradient></defs><title>welcome-intro-01-dk.svg</title><path d="M372.19,68,356.54,83.69a81.23,81.23,0,0,1,71.1,75.51H281L156.58,283.65H331.16L547.05,67.75Z" fill="url(#edba5524-fdd1-43f4-9c31-5aeb81e3acf1)"/><path d="M332.24,84.29A81.56,81.56,0,0,1,399.84,103l88.64-88.64-151.69.34L308.87,42.63A97.85,97.85,0,0,1,332.24,84.29Z" opacity="0.7" fill="url(#f7bf1ff7-c1e4-44db-bb44-64512c93ed94)"/><polygon points="192.3 159.2 102.72 248.78 254.07 248.78 343.65 159.2 192.3 159.2" opacity="0.7" fill="url(#ad59112f-8b60-487a-ba22-86d2e4d00a07)"/><g opacity="0.74"><path d="M404,106.86h0a81.59,81.59,0,0,0-71.76-22.57A98.32,98.32,0,0,0,141.6,87.94H127.71a71.25,71.25,0,0,0-71.27,71.25h371.2A81.09,81.09,0,0,0,404,106.86Z" fill-rule="evenodd" fill="url(#b30ab445-72d9-4c7c-84d8-a3c3b3eae3d3)"/></g><rect x="278.95" y="96.83" width="66.1" height="186.96"/><circle cx="186.59" cy="135.53" r="9.61" fill="none" stroke="#49afd9" stroke-linecap="round" stroke-linejoin="round" stroke-width="1.62"/><line x1="196.2" y1="135.53" x2="276.52" y2="135.53" fill="none" stroke="#49afd9" stroke-linecap="round" stroke-linejoin="round" stroke-width="1.62"/><circle cx="202.91" cy="65.23" r="27.21" fill="none" stroke="#49afd9" stroke-linecap="round" stroke-linejoin="round" stroke-width="1.62"/><path d="M176.07,60.61s11.61,9.71,36.88,9.57" fill="none" stroke="#49afd9" stroke-linecap="round" stroke-linejoin="round" stroke-width="1.62"/><path d="M190.1,56.36s-8.79.45-14,3.31" fill="none" stroke="#0091da" stroke-linecap="round" stroke-linejoin="round" stroke-width="1.62"/><path d="M217.62,42a27.24,27.24,0,0,1-24.74,38.57h-.68" fill="none" stroke="#49afd9" stroke-linecap="round" stroke-linejoin="round" stroke-width="1.62"/><path d="M220.1,86.74a38.37,38.37,0,0,1-4.73-2.43A36.75,36.75,0,0,1,200.87,38" fill="none" stroke="#49afd9" stroke-linecap="round" stroke-linejoin="round" stroke-width="1.62"/><path d="M198.37,51.27a36.81,36.81,0,0,1,31.17,16.41" fill="none" stroke="#49afd9" stroke-linecap="round" stroke-linejoin="round" stroke-width="1.62"/><path d="M218.36,77.5a50.23,50.23,0,0,1,1.83,8.39" fill="none" stroke="#0091da" stroke-linecap="round" stroke-linejoin="round" stroke-width="1.62"/><circle cx="217.8" cy="42.47" r="2.04" fill="#49afd9" stroke="#49afd9" stroke-linecap="round" stroke-linejoin="round" stroke-width="1.62"/><circle cx="214.12" cy="70.09" r="1.88" fill="#49afd9" stroke="#49afd9" stroke-linecap="round" stroke-linejoin="round" stroke-width="1.62"/><circle cx="192.2" cy="80.42" r="2.09" fill="#49afd9" stroke="#49afd9" stroke-linecap="round" stroke-linejoin="round" stroke-width="1.62"/><circle cx="197.26" cy="51.3" r="2.01" fill="#49afd9" stroke="#49afd9" stroke-linecap="round" stroke-linejoin="round" stroke-width="1.62"/><circle cx="229.92" cy="68.37" r="2.03" fill="#49afd9" stroke="#49afd9" stroke-linecap="round" stroke-linejoin="round" stroke-width="1.62"/><circle cx="175.56" cy="60.19" r="2.5" fill="#49afd9" stroke="#49afd9" stroke-linecap="round" stroke-linejoin="round" stroke-width="1.62"/><circle cx="190.1" cy="56.36" r="1.62" fill="#49afd9" stroke="#49afd9" stroke-linecap="round" stroke-linejoin="round" stroke-width="1.62"/><circle cx="218.36" cy="77.5" r="1.62" fill="#49afd9" stroke="#49afd9" stroke-linecap="round" stroke-linejoin="round" stroke-width="1.62"/><circle cx="219.84" cy="86.54" r="2.08" fill="#49afd9" stroke="#49afd9" stroke-linecap="round" stroke-linejoin="round" stroke-width="1.62"/><path d="M67.69,52.54h49.94V66.36H67.69Zm0,32.43h49.94V71.15H67.69Zm0,18.6h49.94V89.75H67.69Z" fill="none" stroke="#49afd9" stroke-linecap="round" stroke-linejoin="round" stroke-width="1.62"/><line x1="69.9" y1="66.36" x2="69.9" y2="71.15" fill="none" stroke="#49afd9" stroke-linecap="round" stroke-linejoin="round" stroke-width="1.62"/><line x1="115.41" y1="66.36" x2="115.41" y2="71.15" fill="none" stroke="#49afd9" stroke-linecap="round" stroke-linejoin="round" stroke-width="1.62"/><line x1="69.9" y1="84.97" x2="69.9" y2="89.75" fill="none" stroke="#49afd9" stroke-linecap="round" stroke-linejoin="round" stroke-width="1.62"/><line x1="115.41" y1="84.97" x2="115.41" y2="89.75" fill="none" stroke="#49afd9" stroke-linecap="round" stroke-linejoin="round" stroke-width="1.62"/><circle cx="145.63" cy="92.7" r="11.65" fill="none" stroke="#49afd9" stroke-linecap="round" stroke-linejoin="round" stroke-width="1.62"/><circle cx="84.79" cy="130.01" r="11.65" fill="none" stroke="#49afd9" stroke-linecap="round" stroke-linejoin="round" stroke-width="1.62"/><line x1="42.53" y1="130.15" x2="77.96" y2="130.15" fill="none" stroke="#49afd9" stroke-linecap="round" stroke-linejoin="round" stroke-width="1.62"/><line x1="145.63" y1="34.95" x2="145.63" y2="80.88" fill="none" stroke="#49afd9" stroke-linecap="round" stroke-linejoin="round" stroke-width="1.62"/><path d="M107.33,119.94v20.6a36.21,36.21,0,0,0,25.23,34.51,36.21,36.21,0,0,0,25.23-34.51v-20.6Z" fill="none" stroke="#49afd9" stroke-linecap="round" stroke-linejoin="round" stroke-width="1.62"/><line x1="132.56" y1="175.05" x2="132.56" y2="119.94" fill="none" stroke="#49afd9" stroke-linecap="round" stroke-linejoin="round" stroke-width="1.62"/><circle cx="84.79" cy="130.15" r="6.68" fill="none" stroke="#49afd9" stroke-linecap="round" stroke-linejoin="round" stroke-width="1.62"/><circle cx="35.85" cy="130.15" r="6.68" fill="none" stroke="#49afd9" stroke-linecap="round" stroke-linejoin="round" stroke-width="1.62"/><circle cx="145.63" cy="27.53" r="7.41" fill="none" stroke="#49afd9" stroke-linecap="round" stroke-linejoin="round" stroke-width="1.62"/><circle cx="84.79" cy="189.45" r="7.41" fill="none" stroke="#49afd9" stroke-linecap="round" stroke-linejoin="round" stroke-width="1.62"/><rect x="213.49" y="109.6" width="32.89" height="80.1" stroke-width="1.62" stroke="#49afd9" stroke-linecap="round" stroke-linejoin="round" fill="none"/><circle cx="219.25" cy="115.55" r="1.35" fill="none" stroke="#49afd9" stroke-linecap="round" stroke-linejoin="round" stroke-width="1.62"/><line x1="213.49" y1="127.46" x2="246.38" y2="127.46" fill="none" stroke="#49afd9" stroke-linecap="round" stroke-linejoin="round" stroke-width="1.62"/><line x1="213.49" y1="135.39" x2="246.38" y2="135.39" fill="none" stroke="#49afd9" stroke-linecap="round" stroke-linejoin="round" stroke-width="1.62"/><line x1="213.49" y1="143.33" x2="246.38" y2="143.33" fill="none" stroke="#49afd9" stroke-linecap="round" stroke-linejoin="round" stroke-width="1.62"/><line x1="213.49" y1="151.27" x2="246.38" y2="151.27" fill="none" stroke="#49afd9" stroke-linecap="round" stroke-linejoin="round" stroke-width="1.62"/><line x1="213.49" y1="159.2" x2="246.38" y2="159.2" fill="none" stroke="#49afd9" stroke-linecap="round" stroke-linejoin="round" stroke-width="1.62"/><line x1="213.49" y1="167.14" x2="246.38" y2="167.14" fill="none" stroke="#49afd9" stroke-linecap="round" stroke-linejoin="round" stroke-width="1.62"/><line x1="213.49" y1="175.07" x2="246.38" y2="175.07" fill="none" stroke="#49afd9" stroke-linecap="round" stroke-linejoin="round" stroke-width="1.62"/><line x1="153.05" y1="101.7" x2="179.95" y2="128.6" fill="none" stroke="#49afd9" stroke-linecap="round" stroke-linejoin="round" stroke-width="1.62"/><line x1="84.79" y1="141.66" x2="84.79" y2="181.48" fill="none" stroke="#49afd9" stroke-linecap="round" stroke-linejoin="round" stroke-width="1.62"/><circle cx="105.67" cy="27.53" r="1.66" fill="none" stroke="#49afd9" stroke-linecap="round" stroke-linejoin="round" stroke-width="1.62"/><circle cx="46.54" cy="58.02" r="1.66" fill="none" stroke="#49afd9" stroke-linecap="round" stroke-linejoin="round" stroke-width="1.62"/><circle cx="18.23" cy="86.74" r="1.66" fill="none" stroke="#49afd9" stroke-linecap="round" stroke-linejoin="round" stroke-width="1.62"/><circle cx="115.41" cy="186.37" r="1.66" fill="none" stroke="#49afd9" stroke-linecap="round" stroke-linejoin="round" stroke-width="1.62"/><circle cx="46.54" cy="173.67" r="1.66" fill="none" stroke="#49afd9" stroke-linecap="round" stroke-linejoin="round" stroke-width="1.62"/><circle cx="249.48" cy="87.36" r="1.66" fill="none" stroke="#49afd9" stroke-linecap="round" stroke-linejoin="round" stroke-width="1.62"/><rect x="272.86" y="96.83" width="6.26" height="186.96" fill="#1a428a"/><path d="M296.05,192.59l-5.62,40.1a85.52,85.52,0,0,0-.75,15l1,27a4,4,0,0,1-1.73,3.46l-3.33,2.31a4,4,0,0,0-1.73,3.31h16.53V242l18.94-49.41Z" fill="#0091da"/><path d="M325,192.59l.92,43.65a81.5,81.5,0,0,1,7.81,12.06c3,6,11.36,27.51,11.36,27.51l-12.75,7.34h0a3.88,3.88,0,0,1-.26-3.68l1.89-4.16a3.9,3.9,0,0,0-.27-3.7l-18.92-29.43s-10.31-40.3-10.31-49.59Z" fill="url(#e37262dc-400a-4f78-98b9-d921eb0c2a92)"/><path d="M314.19,149.21s-2.47-5.07.4-12.41c3.18-8.11-11.17.5-11.17.5L302.34,148Z" fill="#daa873"/><path d="M304.82,142.71h0c-5-.51-8.86-3-8.36-8l.59-5.76a9.15,9.15,0,0,1,10-8.16h0a9.15,9.15,0,0,1,8.16,10l-.59,5.77C314.56,137.16,309.82,143.21,304.82,142.71Z" fill="#daa873"/><path d="M297.94,125.8c-1.28-1.73-.19-3.7,1.85-4.41,2.36-.81,5.06-2.07,8.31-1.74a9.13,9.13,0,0,1,8.3,9.11,26.22,26.22,0,0,1-2,8.45l-8.07-4.27.33-4.09a2.9,2.9,0,0,0-2.65-3.13,2.94,2.94,0,0,0-.42,0l-5.69.08Z" fill="#006fb1"/><ellipse cx="309.39" cy="134.37" rx="2.96" ry="2.2" transform="translate(144.55 428.65) rotate(-84.22)" fill="#daa873"/><path d="M296.83,155.08l-9.06,21.66-16.56,8.45,2.32,5.83,18.28-5.81s13.55-10.42,16.18-20.13C311.05,153.81,296.83,155.08,296.83,155.08Z" fill="#00c1d5"/><path d="M325,145.86v46.73H296.05V159.67a13.8,13.8,0,0,1,13.79-13.81H325Z" fill="url(#b23ce470-53e7-4822-a7cc-b2426c6e528c)"/><path d="M339,176l-14-30.13s-12-1-14.36,9c0,0,9.82,10.66,21,23.11Z" fill="#fff"/><path d="M339,197.86V176l-8.82-5.68v11.25c0,7.45,2.93,16.3,2.93,16.3Z" fill="#fff" fill-rule="evenodd"/><path d="M333.11,197.86v8.67l7.52-1.13s.83-5.35-2.61-7.54Z" fill="#daa873"/><path d="M271.21,185.19l-8.15,3.28,3.92,6.62s5.32-1.24,6.08-5.3Z" fill="#daa873"/><polygon points="314.75 141.63 305.4 144.15 302.42 147.2 302.66 144.87 301.64 145.13 300.71 149.86 316.98 146.55 314.75 141.63" fill="#fff"/><path d="M265.83,189.88l-.87-3.71,4.16-1.62a1.79,1.79,0,0,1,2.31,1l.76,2Z" fill="#daa873"/><path d="M335.33,204.78l-3.76-.74v-4.42a1.78,1.78,0,0,1,1.8-1.76h2.13Z" fill="#daa873"/><polygon points="342.5 96.83 384.5 78.06 384.5 283.79 342.5 283.79 342.5 96.83" fill="#1a428a" fill-rule="evenodd"/><rect x="384.5" y="78.06" width="6.93" height="205.73" fill="#1f92cc"/></svg>